<svg width="352" height="331" viewBox="0 0 352 331" fill="none" xmlns="http://www.w3.org/2000/svg">
<path d="M0 24C0 10.7452 10.7452 0 24 0H328C341.255 0 352 10.7452 352 24V290.114C352 302.89 341.991 313.427 329.232 314.083L25.2316 329.703C11.5111 330.409 0 319.474 0 305.735V24Z" fill="#F0F0F0"/>
<path fill-rule="evenodd" clip-rule="evenodd" d="M172.436 45V61.8849H166.255V127.597H158.135V107.36H153.861V102.473L144.506 107.36H142.22V95.2027L131.027 77.5859L119.831 95.2027V136.547H114.581V144.577H106.829V111.784H100.404L100.671 98.1861H93.2365V94.2908H85.7038L84.5446 70.7272L83.3888 94.2908H81.9554V98.1861H79.9963L80.7114 134.619H79.3269V118.546L63.7521 107.348V127.585H48.1774V111.792H38.5484V102.473L22.0822 116.615V102.473L0 121.45V260H352V124.957H344.49L345.016 98.1861H329.066V59.4373H319.597V67.6758H310.128V75.2144H300.659V114.095H293.377V96.0185H290.785V94.0189H273.891V96.0185H271.298V133.712H266.019V85.2685H263.407V83.2689H246.519V85.2685H243.923V113.163H238.177V96.0185H235.584V94.0189H218.703V96.0185H216.108V102.473L210.687 109.572V121.478H203.439V114.095H199.697V96.0185H185.898V85.3165L180.021 79.2136V61.8849H173.834V45H172.436Z" fill="#CCCCCC" fill-opacity="0.2"/>
<path fill-rule="evenodd" clip-rule="evenodd" d="M123.312 258.552H83.7117C81.4615 258.546 79.3052 257.649 77.714 256.058C76.1228 254.466 75.2261 252.31 75.2197 250.06V155.18C75.2271 152.93 76.1243 150.775 77.7154 149.185C79.3065 147.594 81.4622 146.698 83.7117 146.692H123.312C125.561 146.698 127.717 147.594 129.308 149.185C130.899 150.775 131.796 152.93 131.804 155.18V250.06C131.797 252.31 130.901 254.466 129.309 256.058C127.718 257.649 125.562 258.546 123.312 258.552Z" fill="white" stroke="#37334A" stroke-width="2" stroke-linecap="round" stroke-linejoin="round"/>
<path d="M123.312 258.552H83.7117C81.4615 258.546 79.3052 257.649 77.714 256.058C76.1228 254.466 75.2261 252.31 75.2197 250.06V155.18C75.2271 152.93 76.1243 150.775 77.7154 149.185C79.3065 147.594 81.4622 146.698 83.7117 146.692H123.312C125.561 146.698 127.717 147.594 129.308 149.185C130.899 150.775 131.796 152.93 131.804 155.18V250.06C131.797 252.31 130.901 254.466 129.309 256.058C127.718 257.649 125.562 258.546 123.312 258.552Z" stroke="#37334A" stroke-width="2" stroke-linecap="round" stroke-linejoin="round"/>
<path d="M107.896 250.412C107.897 251.279 107.64 252.126 107.16 252.847C106.679 253.567 105.995 254.129 105.195 254.462C104.394 254.794 103.514 254.881 102.664 254.712C101.814 254.544 101.033 254.127 100.42 253.515C99.8071 252.902 99.3895 252.122 99.2202 251.272C99.0509 250.422 99.1374 249.541 99.4688 248.741C99.8002 247.94 100.362 247.256 101.082 246.775C101.802 246.293 102.649 246.036 103.516 246.036C104.677 246.036 105.79 246.497 106.611 247.318C107.433 248.138 107.895 249.251 107.896 250.412Z" stroke="#37334A" stroke-width="2" stroke-linecap="round" stroke-linejoin="round"/>
<path d="M101.02 151.884H109.644" stroke="#37334A" stroke-width="2" stroke-linecap="round" stroke-linejoin="round"/>
<path d="M97.3916 151.884H98.4996" stroke="#37334A" stroke-width="2" stroke-linecap="round" stroke-linejoin="round"/>
<path fill-rule="evenodd" clip-rule="evenodd" d="M224.8 206.388C224.3 201.444 216.056 203.344 211.684 203.728C199.708 177.308 191.156 179.208 187.548 179.208C183.94 179.208 155.996 179.016 144.592 179.208C133.188 179.4 125.792 199.924 122.924 203.728C122.924 203.728 110.544 200.4 110 204.868C109.6 209.048 112.092 209.808 117.6 210.948C109.62 243.26 118.932 244.972 118.932 244.972V255.044C118.932 258.464 122.932 258.552 122.932 258.552H131.484C133.956 258.552 133.956 254.284 133.956 254.284V245.92H200.656V255.044C200.656 259.416 205.028 258.464 205.028 258.464H212.06C215.66 258.464 216.06 254.664 216.06 254.664V244.972C224.424 237.372 218.34 213.42 217.388 210.38C219.852 210.2 225.084 209.248 224.8 206.388Z" fill="#990000"/>
<path fill-rule="evenodd" clip-rule="evenodd" d="M132.06 201.06C132.924 199.508 134.06 197.06 134.06 197.06C136.152 192.688 138.536 186.608 145.568 186.608H186.42C190.02 186.608 195.54 186.228 200.864 197.44C203.524 202.576 206.944 207.896 199.532 207.896H139.092C135.48 207.904 127.632 209.156 132.06 201.06Z" fill="#FDFFFE"/>
<path fill-rule="evenodd" clip-rule="evenodd" d="M134.176 237.496C131.42 237.496 125.812 236.164 122.976 234.644C120.14 233.124 121.076 227.42 121.376 226.708C121.676 225.996 123.376 224.76 124.892 225.508C126.408 226.256 129.86 227.108 133.54 227.884C137.864 228.82 138.672 231.116 139.14 233.672C139.608 236.228 136.932 237.496 134.176 237.496Z" fill="#FDFFFE"/>
<path fill-rule="evenodd" clip-rule="evenodd" d="M183.54 238.08C177.076 238.648 159.972 238.46 154.268 238.08C148.564 237.7 142.668 238.648 144.576 229.908C153.508 230.856 182.78 230.668 190 229.908C191.524 233.896 190 237.508 183.54 238.08Z" fill="#FDFFFE"/>
<path fill-rule="evenodd" clip-rule="evenodd" d="M212.692 234.644C209.844 236.164 204.236 237.496 201.492 237.496C198.748 237.496 196.076 236.24 196.552 233.684C197.028 231.128 197.832 228.832 202.152 227.896C205.836 227.096 209.28 226.296 210.8 225.52C212.32 224.744 214.032 225.996 214.316 226.72C214.6 227.444 215.544 233.124 212.692 234.644Z" fill="#FDFFFE"/>
<path d="M62.7998 258.552H237.928" stroke="#D7D7D9" stroke-width="2" stroke-linecap="round" stroke-linejoin="round"/>
<path d="M241.692 258.552H243.812" stroke="#FF0000" stroke-width="2" stroke-linecap="round" stroke-linejoin="round"/>
<path d="M248.096 258.552H274.308C297.8 258.552 303.724 257.156 303.724 249.916C303.724 243.012 297.968 242.676 273.944 242.676C257.816 242.676 250.248 242.184 250.248 235.108C250.248 226.588 264.612 227.42 278.064 227.66" stroke="#D7D7D9" stroke-width="2" stroke-linecap="round" stroke-linejoin="round" stroke-dasharray="6.06 6.06"/>
<path d="M280.212 227.692H282.336" stroke="#FF0000" stroke-width="2" stroke-linecap="round" stroke-linejoin="round"/>
<path fill-rule="evenodd" clip-rule="evenodd" d="M281.312 196.632C279.931 196.603 278.588 196.168 277.454 195.38C276.319 194.592 275.442 193.487 274.933 192.202C274.424 190.918 274.306 189.512 274.593 188.161C274.879 186.81 275.559 185.573 276.545 184.606C277.532 183.639 278.782 182.985 280.139 182.726C281.496 182.467 282.899 182.614 284.173 183.149C285.446 183.684 286.534 184.583 287.299 185.733C288.063 186.884 288.471 188.234 288.472 189.616C288.471 190.549 288.285 191.473 287.923 192.334C287.561 193.194 287.032 193.974 286.365 194.627C285.698 195.281 284.908 195.794 284.04 196.139C283.173 196.483 282.245 196.65 281.312 196.632ZM281.312 169.968C270.284 169.968 261.264 178.808 261.264 189.616C261.264 204.352 281.312 226.104 281.312 226.104C281.312 226.104 301.36 204.352 301.36 189.616C301.36 178.808 292.34 169.968 281.312 169.968Z" fill="#F00020"/>
<path d="M281.312 226.104L280.476 226.876C280.583 226.991 280.713 227.082 280.857 227.144C281 227.207 281.156 227.239 281.312 227.239C281.469 227.239 281.624 227.207 281.768 227.144C281.912 227.082 282.041 226.991 282.148 226.876L281.312 226.104ZM281.312 195.496C280.53 195.512 279.753 195.372 279.025 195.083C278.298 194.795 277.635 194.364 277.077 193.817C276.518 193.269 276.074 192.615 275.771 191.894C275.468 191.173 275.312 190.398 275.312 189.616H273.036C273.036 190.699 273.252 191.771 273.67 192.77C274.089 193.769 274.702 194.674 275.474 195.433C276.247 196.192 277.162 196.79 278.168 197.192C279.174 197.593 280.25 197.791 281.332 197.772L281.312 195.496ZM275.312 189.616C275.312 188.834 275.468 188.059 275.771 187.338C276.074 186.616 276.518 185.963 277.077 185.415C277.635 184.868 278.298 184.437 279.025 184.149C279.753 183.86 280.53 183.72 281.312 183.736V181.46C280.23 181.441 279.154 181.639 278.148 182.04C277.142 182.442 276.227 183.039 275.454 183.799C274.682 184.558 274.069 185.463 273.65 186.462C273.232 187.461 273.016 188.533 273.016 189.616H275.312ZM281.312 183.736C282.096 183.717 282.876 183.856 283.606 184.143C284.336 184.43 285.001 184.86 285.562 185.408C286.124 185.955 286.57 186.61 286.874 187.333C287.179 188.055 287.336 188.832 287.336 189.616H289.6C289.6 188.533 289.384 187.461 288.965 186.462C288.546 185.463 287.932 184.558 287.16 183.798C286.387 183.039 285.471 182.442 284.465 182.04C283.459 181.639 282.383 181.441 281.3 181.46L281.312 183.736ZM287.336 189.616C287.336 190.4 287.179 191.177 286.874 191.899C286.57 192.622 286.124 193.276 285.562 193.824C285.001 194.372 284.336 194.802 283.606 195.089C282.876 195.376 282.096 195.515 281.312 195.496V197.772C282.394 197.789 283.469 197.591 284.473 197.188C285.478 196.786 286.393 196.188 287.164 195.429C287.935 194.67 288.548 193.765 288.966 192.767C289.384 191.769 289.6 190.698 289.6 189.616H287.336ZM281.312 168.816C269.68 168.816 260.112 178.144 260.112 189.616H262.4C262.4 179.46 270.888 171.108 281.308 171.108L281.312 168.816ZM260.112 189.616C260.112 193.536 261.436 197.832 263.344 202.016C265.331 206.215 267.67 210.237 270.336 214.04C272.864 217.712 275.392 220.92 277.288 223.208C278.236 224.352 279.024 225.268 279.58 225.9C279.856 226.216 280.076 226.46 280.224 226.624L280.396 226.816L280.444 226.864L281.28 226.092L282.116 225.32L282.076 225.276L281.912 225.092C281.768 224.936 281.556 224.692 281.284 224.388C280.744 223.772 279.968 222.872 279.036 221.748C277.172 219.496 274.688 216.344 272.204 212.74C269.61 209.047 267.336 205.139 265.404 201.06C263.6 197 262.4 193.064 262.4 189.616H260.112ZM281.312 226.104L282.152 226.876L282.2 226.828L282.4 226.6C282.548 226.436 282.768 226.2 283.044 225.876C283.6 225.244 284.388 224.328 285.336 223.184C287.232 220.896 289.76 217.688 292.288 214.016C294.956 210.214 297.296 206.191 299.28 201.992C301.188 197.816 302.516 193.52 302.516 189.592H300.24C300.24 193.04 299.06 196.992 297.208 201.036C295.279 205.116 293.004 209.023 290.408 212.716C287.924 216.316 285.44 219.472 283.576 221.724C282.644 222.848 281.868 223.748 281.328 224.364C281.056 224.672 280.844 224.912 280.7 225.068L280.536 225.252L280.496 225.296L281.312 226.104ZM302.512 189.616C302.512 178.16 292.956 168.816 281.312 168.816V171.092C291.732 171.092 300.224 179.444 300.224 189.6L302.512 189.616Z" fill="#37334A"/>
<path d="M281.312 226.104L280.476 226.876C280.583 226.991 280.713 227.082 280.857 227.144C281 227.207 281.156 227.239 281.312 227.239C281.469 227.239 281.624 227.207 281.768 227.144C281.912 227.082 282.041 226.991 282.148 226.876L281.312 226.104ZM281.312 195.496C280.53 195.512 279.753 195.372 279.025 195.083C278.298 194.795 277.635 194.364 277.077 193.817C276.518 193.269 276.074 192.615 275.771 191.894C275.468 191.173 275.312 190.398 275.312 189.616H273.036C273.036 190.699 273.252 191.771 273.67 192.77C274.089 193.769 274.702 194.674 275.474 195.433C276.247 196.192 277.162 196.79 278.168 197.192C279.174 197.593 280.25 197.791 281.332 197.772L281.312 195.496ZM275.312 189.616C275.312 188.834 275.468 188.059 275.771 187.338C276.074 186.616 276.518 185.963 277.077 185.415C277.635 184.868 278.298 184.437 279.025 184.149C279.753 183.86 280.53 183.72 281.312 183.736V181.46C280.23 181.441 279.154 181.639 278.148 182.04C277.142 182.442 276.227 183.039 275.454 183.799C274.682 184.558 274.069 185.463 273.65 186.462C273.232 187.461 273.016 188.533 273.016 189.616H275.312ZM281.312 183.736C282.096 183.717 282.876 183.856 283.606 184.143C284.336 184.43 285.001 184.86 285.562 185.408C286.124 185.955 286.57 186.61 286.874 187.333C287.179 188.055 287.336 188.832 287.336 189.616H289.6C289.6 188.533 289.384 187.461 288.965 186.462C288.546 185.463 287.932 184.558 287.16 183.798C286.387 183.039 285.471 182.442 284.465 182.04C283.459 181.639 282.383 181.441 281.3 181.46L281.312 183.736ZM287.336 189.616C287.336 190.4 287.179 191.177 286.874 191.899C286.57 192.622 286.124 193.276 285.562 193.824C285.001 194.372 284.336 194.802 283.606 195.089C282.876 195.376 282.096 195.515 281.312 195.496V197.772C282.394 197.789 283.469 197.591 284.473 197.188C285.478 196.786 286.393 196.188 287.164 195.429C287.935 194.67 288.548 193.765 288.966 192.767C289.384 191.769 289.6 190.698 289.6 189.616H287.336ZM281.312 168.816C269.68 168.816 260.112 178.144 260.112 189.616H262.4C262.4 179.46 270.888 171.108 281.308 171.108L281.312 168.816ZM260.112 189.616C260.112 193.536 261.436 197.832 263.344 202.016C265.331 206.215 267.67 210.237 270.336 214.04C272.864 217.712 275.392 220.92 277.288 223.208C278.236 224.352 279.024 225.268 279.58 225.9C279.856 226.216 280.076 226.46 280.224 226.624L280.396 226.816L280.444 226.864L281.28 226.092L282.116 225.32L282.076 225.276L281.912 225.092C281.768 224.936 281.556 224.692 281.284 224.388C280.744 223.772 279.968 222.872 279.036 221.748C277.172 219.496 274.688 216.344 272.204 212.74C269.61 209.047 267.336 205.139 265.404 201.06C263.6 197 262.4 193.064 262.4 189.616H260.112ZM281.312 226.104L282.152 226.876L282.2 226.828L282.4 226.6C282.548 226.436 282.768 226.2 283.044 225.876C283.6 225.244 284.388 224.328 285.336 223.184C287.232 220.896 289.76 217.688 292.288 214.016C294.956 210.214 297.296 206.191 299.28 201.992C301.188 197.816 302.516 193.52 302.516 189.592H300.24C300.24 193.04 299.06 196.992 297.208 201.036C295.279 205.116 293.004 209.023 290.408 212.716C287.924 216.316 285.44 219.472 283.576 221.724C282.644 222.848 281.868 223.748 281.328 224.364C281.056 224.672 280.844 224.912 280.7 225.068L280.536 225.252L280.496 225.296L281.312 226.104ZM302.512 189.616C302.512 178.16 292.956 168.816 281.312 168.816V171.092C291.732 171.092 300.224 179.444 300.224 189.6L302.512 189.616Z" fill="#DBDBDB"/>
<path d="M114.732 187.468C114.732 190.442 113.55 193.294 111.447 195.397C109.344 197.5 106.492 198.682 103.518 198.682C100.544 198.682 97.6912 197.5 95.5882 195.397C93.4852 193.294 92.3037 190.442 92.3037 187.468C92.3041 187.02 92.3308 186.573 92.3837 186.128C92.6871 183.388 93.9905 180.855 96.0445 179.016C98.0985 177.177 100.759 176.16 103.516 176.16C106.273 176.16 108.933 177.177 110.987 179.016C113.041 180.855 114.344 183.388 114.648 186.128C114.704 186.572 114.732 187.02 114.732 187.468Z" stroke="#37334A" stroke-width="2" stroke-linecap="round" stroke-linejoin="round"/>
<path d="M114.648 186.136C111.18 187.827 107.373 188.706 103.516 188.706C99.6581 188.706 95.8511 187.827 92.3838 186.136C92.6871 183.396 93.9906 180.864 96.0446 179.025C98.0986 177.185 100.759 176.168 103.516 176.168C106.273 176.168 108.933 177.185 110.987 179.025C113.041 180.864 114.344 183.396 114.648 186.136Z" stroke="#37334A" stroke-width="2" stroke-linecap="round" stroke-linejoin="round"/>
<path d="M111.368 195.472C109.274 197.529 106.455 198.681 103.52 198.681C100.584 198.681 97.7662 197.529 95.6719 195.472C95.9541 193.592 96.9015 191.877 98.3417 190.636C99.7819 189.396 101.619 188.714 103.52 188.714C105.42 188.714 107.258 189.396 108.698 190.636C110.138 191.877 111.086 193.592 111.368 195.472Z" stroke="#37334A" stroke-width="2" stroke-linecap="round" stroke-linejoin="round"/>
<path fill-rule="evenodd" clip-rule="evenodd" d="M225.092 205.8C224.596 200.84 216.348 202.752 211.972 203.132C208.984 196.528 206.216 191.688 203.676 188.148C196.036 177.472 190.536 178.548 187.824 178.548C184.224 178.548 156.256 178.356 144.844 178.548C133.432 178.74 126.02 199.316 123.164 203.132C123.164 203.132 110.764 199.8 110.232 204.276C109.832 208.468 112.328 209.228 117.832 210.368C109.832 242.768 119.164 244.492 119.164 244.492V254.6C119.164 258.036 123.164 258.12 123.164 258.12H131.724C134.196 258.12 134.196 253.84 134.196 253.84V245.44H200.944V254.6C200.944 259 205.32 258.036 205.32 258.036H212.356C215.956 258.036 216.356 254.224 216.356 254.224V244.504C224.724 236.876 218.636 212.864 217.688 209.816C220.152 209.604 225.384 208.66 225.092 205.8Z" fill="#F00020"/>
<path opacity="0.1" fill-rule="evenodd" clip-rule="evenodd" d="M217.688 210.2C218.636 213.224 224.716 237.044 216.356 244.6V254.244C216.356 254.244 215.976 258.024 212.356 258.024H205.34C205.34 258.024 200.972 258.964 200.972 254.616V245.536H146.596L154.324 237.84L154.44 237.728L161.836 230.368L203.7 188.696C206.24 192.2 209.004 197 212 203.564C216.368 203.184 224.608 201.288 225.104 206.208C225.384 209.052 220.156 209.988 217.688 210.2Z" fill="#242E42"/>
<path fill-rule="evenodd" clip-rule="evenodd" d="M199.028 207.968H138.968C135.368 207.968 127.576 209.236 131.98 201.04C132.836 199.472 133.956 197 133.956 197C136.028 192.576 138.4 186.42 145.388 186.42H186.4C188.56 186.42 191.336 186.42 194.32 188.82C196.288 190.42 198.32 193.032 200.368 197.38C203 202.6 206.4 207.968 199.028 207.968Z" fill="#FDFFFE"/>
<path fill-rule="evenodd" clip-rule="evenodd" d="M183.004 186.42L161.404 208.04H146.604L168.204 186.42H183.004Z" fill="#EDEDED"/>
<path fill-rule="evenodd" clip-rule="evenodd" d="M195.52 188.836L176.4 208.036H165.94L187.464 186.416C189.66 186.412 192.488 186.42 195.52 188.836Z" fill="#EDEDED"/>
<path fill-rule="evenodd" clip-rule="evenodd" d="M133.636 237.62C130.88 237.62 125.276 236.256 122.436 234.7C119.596 233.144 120.536 227.296 120.836 226.568C121.136 225.84 122.836 224.568 124.352 225.368C125.868 226.168 129.32 226.968 133 227.804C137.324 228.764 138.128 231.116 138.6 233.736C139.072 236.356 136.4 237.62 133.636 237.62Z" fill="#FDFFFE"/>
<path fill-rule="evenodd" clip-rule="evenodd" d="M183.916 238.376C177.412 238.984 160.188 238.776 154.448 238.376C148.708 237.976 142.772 238.984 144.688 229.656C153.68 230.668 183.152 230.456 190.424 229.656C191.956 233.912 190.424 237.768 183.916 238.376Z" fill="#FDFFFE"/>
<path fill-rule="evenodd" clip-rule="evenodd" d="M212.868 234.7C210.016 236.256 204.412 237.62 201.668 237.62C198.924 237.62 196.252 236.332 196.728 233.716C197.204 231.1 198.008 228.744 202.328 227.784C206.008 226.984 209.452 226.128 210.972 225.348C212.492 224.568 214.204 225.836 214.488 226.548C214.772 227.26 215.716 233.14 212.868 234.7Z" fill="#FDFFFE"/>
</svg>
