<svg width="352" height="331" viewBox="0 0 352 331" fill="none" xmlns="http://www.w3.org/2000/svg">
<path d="M0 24C0 10.7452 10.7452 0 24 0H328C341.255 0 352 10.7452 352 24V290.114C352 302.89 341.991 313.427 329.232 314.083L25.2316 329.703C11.5111 330.409 0 319.474 0 305.735V24Z" fill="#F0F0F0"/>
<path fill-rule="evenodd" clip-rule="evenodd" d="M140.428 284.752C136.536 284.751 132.733 283.596 129.498 281.434C126.262 279.271 123.741 276.198 122.252 272.603C120.764 269.007 120.375 265.051 121.134 261.235C121.894 257.418 123.768 253.913 126.52 251.161C129.272 248.41 132.778 246.537 136.595 245.778C140.411 245.019 144.367 245.409 147.962 246.898C151.558 248.387 154.63 250.909 156.792 254.145C158.954 257.381 160.108 261.185 160.108 265.076C160.107 270.295 158.033 275.299 154.342 278.989C150.652 282.679 145.647 284.752 140.428 284.752Z" fill="white"/>
<path fill-rule="evenodd" clip-rule="evenodd" d="M100.64 244.028C99.5047 244.025 98.3958 243.685 97.4533 243.052C96.5108 242.419 95.7771 241.521 95.3448 240.471C94.9125 239.421 94.801 238.267 95.0244 237.154C95.2479 236.04 95.7962 235.018 96.6001 234.217C97.4041 233.415 98.4276 232.87 99.5414 232.649C100.655 232.429 101.809 232.544 102.858 232.979C103.907 233.414 104.803 234.15 105.433 235.095C106.064 236.039 106.4 237.149 106.4 238.284C106.4 239.04 106.251 239.788 105.961 240.486C105.672 241.184 105.247 241.818 104.712 242.351C104.177 242.885 103.542 243.308 102.843 243.595C102.144 243.883 101.396 244.03 100.64 244.028Z" fill="white"/>
<path fill-rule="evenodd" clip-rule="evenodd" d="M194.836 272.728C194.079 272.729 193.338 272.505 192.708 272.085C192.078 271.664 191.587 271.067 191.296 270.367C191.006 269.668 190.93 268.898 191.077 268.155C191.224 267.413 191.588 266.73 192.124 266.194C192.659 265.659 193.341 265.294 194.084 265.146C194.826 264.998 195.596 265.073 196.296 265.363C196.996 265.652 197.594 266.143 198.014 266.773C198.435 267.402 198.66 268.142 198.66 268.9C198.66 269.402 198.562 269.9 198.37 270.364C198.178 270.829 197.896 271.251 197.541 271.606C197.186 271.962 196.764 272.244 196.3 272.436C195.836 272.629 195.338 272.728 194.836 272.728Z" fill="white"/>
<path fill-rule="evenodd" clip-rule="evenodd" d="M247.8 92.0242C247.042 92.025 246.302 91.801 245.672 91.3807C245.041 90.9604 244.55 90.3626 244.26 89.6629C243.97 88.9633 243.894 88.1933 244.041 87.4503C244.189 86.7074 244.553 86.025 245.089 85.4894C245.625 84.9538 246.307 84.5891 247.05 84.4415C247.793 84.2939 248.563 84.3701 249.263 84.6603C249.962 84.9506 250.56 85.4418 250.98 86.0719C251.401 86.7021 251.625 87.4427 251.624 88.2002C251.624 89.2144 251.221 90.187 250.504 90.9041C249.787 91.6213 248.814 92.0242 247.8 92.0242Z" fill="white"/>
<path fill-rule="evenodd" clip-rule="evenodd" d="M224.94 135.572H233.512V134.824C233.511 133.615 233.03 132.457 232.175 131.602C231.32 130.748 230.161 130.268 228.952 130.268H204.356C203.757 130.268 203.164 130.385 202.611 130.614C202.058 130.842 201.555 131.178 201.132 131.601C200.708 132.024 200.372 132.527 200.143 133.08C199.914 133.633 199.796 134.225 199.796 134.824V207.528H218.912V141.6C218.912 140.001 219.547 138.468 220.677 137.338C221.808 136.207 223.341 135.572 224.94 135.572Z" fill="#DDDDDD"/>
<path fill-rule="evenodd" clip-rule="evenodd" d="M173.916 207.528H194.824V144.628H173.916V207.528Z" fill="#DDDDDD"/>
<path fill-rule="evenodd" clip-rule="evenodd" d="M225.836 126.808H207.472C207.305 126.808 207.14 126.776 206.985 126.713C206.831 126.649 206.691 126.556 206.573 126.438C206.454 126.32 206.361 126.18 206.297 126.026C206.233 125.872 206.2 125.707 206.2 125.54V118.088C206.2 117.751 206.334 117.427 206.572 117.188C206.811 116.95 207.134 116.816 207.472 116.816H225.836C226.172 116.817 226.495 116.951 226.733 117.19C226.97 117.428 227.104 117.751 227.104 118.088V125.54C227.104 125.876 226.97 126.199 226.732 126.437C226.495 126.674 226.172 126.808 225.836 126.808Z" fill="#DDDDDD"/>
<path fill-rule="evenodd" clip-rule="evenodd" d="M169.388 207.532H126.832V100.444C126.829 99.8947 126.953 99.3518 127.193 98.8573C127.433 98.3628 127.783 97.9298 128.216 97.5915C128.649 97.2533 129.154 97.0187 129.692 96.9058C130.23 96.7929 130.787 96.8048 131.32 96.9404L166.648 105.74C167.431 105.933 168.127 106.383 168.624 107.019C169.12 107.654 169.389 108.438 169.388 109.244V207.532Z" fill="#E8E8E8"/>
<path fill-rule="evenodd" clip-rule="evenodd" d="M107.964 207.532V170.516C107.964 168.925 108.596 167.399 109.721 166.273C110.846 165.148 112.373 164.516 113.964 164.516H120.764V207.532H107.964Z" fill="#E8E8E8"/>
<path opacity="0.5" fill-rule="evenodd" clip-rule="evenodd" d="M215.144 200.484C214.72 200.484 214.313 200.315 214.013 200.015C213.713 199.715 213.544 199.308 213.544 198.884V142.704C213.544 142.28 213.713 141.873 214.013 141.573C214.313 141.273 214.72 141.104 215.144 141.104C215.568 141.104 215.975 141.273 216.275 141.573C216.575 141.873 216.744 142.28 216.744 142.704V198.888C216.743 199.312 216.574 199.718 216.274 200.017C215.974 200.316 215.568 200.484 215.144 200.484Z" fill="white"/>
<path opacity="0.5" fill-rule="evenodd" clip-rule="evenodd" d="M206.288 200.484C205.864 200.484 205.457 200.315 205.157 200.015C204.857 199.715 204.688 199.308 204.688 198.884V142.704C204.688 142.28 204.857 141.873 205.157 141.573C205.457 141.273 205.864 141.104 206.288 141.104C206.712 141.104 207.119 141.273 207.419 141.573C207.719 141.873 207.888 142.28 207.888 142.704V198.888C207.887 199.312 207.718 199.718 207.418 200.017C207.118 200.316 206.712 200.484 206.288 200.484Z" fill="white"/>
<path opacity="0.5" fill-rule="evenodd" clip-rule="evenodd" d="M161.32 121.8H136.12C135.475 121.774 134.864 121.5 134.417 121.034C133.97 120.569 133.72 119.948 133.72 119.302C133.72 118.656 133.97 118.036 134.417 117.57C134.864 117.105 135.475 116.83 136.12 116.804H161.32C161.965 116.83 162.575 117.105 163.023 117.57C163.47 118.036 163.72 118.656 163.72 119.302C163.72 119.948 163.47 120.569 163.023 121.034C162.575 121.5 161.965 121.774 161.32 121.8Z" fill="white"/>
<path opacity="0.5" fill-rule="evenodd" clip-rule="evenodd" d="M161.32 132.764H136.12C135.475 132.738 134.864 132.464 134.417 131.998C133.97 131.532 133.72 130.912 133.72 130.266C133.72 129.62 133.97 129 134.417 128.534C134.864 128.068 135.475 127.794 136.12 127.768H161.32C161.965 127.794 162.575 128.068 163.023 128.534C163.47 129 163.72 129.62 163.72 130.266C163.72 130.912 163.47 131.532 163.023 131.998C162.575 132.464 161.965 132.738 161.32 132.764Z" fill="white"/>
<path opacity="0.5" fill-rule="evenodd" clip-rule="evenodd" d="M161.32 143.716H136.12C135.475 143.69 134.864 143.416 134.417 142.95C133.97 142.485 133.72 141.864 133.72 141.218C133.72 140.572 133.97 139.952 134.417 139.486C134.864 139.021 135.475 138.746 136.12 138.72H161.32C161.965 138.746 162.575 139.021 163.023 139.486C163.47 139.952 163.72 140.572 163.72 141.218C163.72 141.864 163.47 142.485 163.023 142.95C162.575 143.416 161.965 143.69 161.32 143.716Z" fill="white"/>
<path opacity="0.5" fill-rule="evenodd" clip-rule="evenodd" d="M161.32 154.668H136.12C135.475 154.643 134.864 154.368 134.417 153.902C133.97 153.437 133.72 152.816 133.72 152.17C133.72 151.525 133.97 150.904 134.417 150.438C134.864 149.973 135.475 149.698 136.12 149.672H161.32C161.965 149.698 162.575 149.973 163.023 150.438C163.47 150.904 163.72 151.525 163.72 152.17C163.72 152.816 163.47 153.437 163.023 153.902C162.575 154.368 161.965 154.643 161.32 154.668Z" fill="white"/>
<path opacity="0.5" fill-rule="evenodd" clip-rule="evenodd" d="M161.32 165.62H136.12C135.475 165.594 134.864 165.32 134.417 164.854C133.97 164.388 133.72 163.768 133.72 163.122C133.72 162.476 133.97 161.856 134.417 161.39C134.864 160.924 135.475 160.65 136.12 160.624H161.32C161.965 160.65 162.575 160.924 163.023 161.39C163.47 161.856 163.72 162.476 163.72 163.122C163.72 163.768 163.47 164.388 163.023 164.854C162.575 165.32 161.965 165.594 161.32 165.62Z" fill="white"/>
<path opacity="0.5" fill-rule="evenodd" clip-rule="evenodd" d="M161.32 176.572H136.12C135.475 176.546 134.864 176.272 134.417 175.806C133.97 175.341 133.72 174.72 133.72 174.074C133.72 173.428 133.97 172.808 134.417 172.342C134.864 171.876 135.475 171.602 136.12 171.576H161.32C161.965 171.602 162.575 171.876 163.023 172.342C163.47 172.808 163.72 173.428 163.72 174.074C163.72 174.72 163.47 175.341 163.023 175.806C162.575 176.272 161.965 176.546 161.32 176.572Z" fill="white"/>
<path opacity="0.5" fill-rule="evenodd" clip-rule="evenodd" d="M161.32 187.524H136.12C135.475 187.498 134.864 187.224 134.417 186.758C133.97 186.293 133.72 185.672 133.72 185.026C133.72 184.381 133.97 183.76 134.417 183.294C134.864 182.829 135.475 182.554 136.12 182.528H161.32C161.965 182.554 162.575 182.829 163.023 183.294C163.47 183.76 163.72 184.381 163.72 185.026C163.72 185.672 163.47 186.293 163.023 186.758C162.575 187.224 161.965 187.498 161.32 187.524Z" fill="white"/>
<path opacity="0.5" fill-rule="evenodd" clip-rule="evenodd" d="M161.32 198.476H136.12C135.475 198.45 134.864 198.176 134.417 197.71C133.97 197.244 133.72 196.624 133.72 195.978C133.72 195.332 133.97 194.712 134.417 194.246C134.864 193.78 135.475 193.506 136.12 193.48H161.32C161.965 193.506 162.575 193.78 163.023 194.246C163.47 194.712 163.72 195.332 163.72 195.978C163.72 196.624 163.47 197.244 163.023 197.71C162.575 198.176 161.965 198.45 161.32 198.476Z" fill="white"/>
<path fill-rule="evenodd" clip-rule="evenodd" d="M98.1476 207.532H64.4316V141.02C64.4316 140.304 64.5727 139.596 64.8467 138.934C65.1208 138.273 65.5224 137.672 66.0287 137.167C66.5351 136.661 67.1361 136.259 67.7976 135.986C68.459 135.712 69.1679 135.572 69.8836 135.572H92.6836C94.1285 135.572 95.5143 136.146 96.536 137.168C97.5577 138.19 98.1316 139.575 98.1316 141.02L98.1476 207.532Z" fill="#DDDDDD"/>
<path opacity="0.5" fill-rule="evenodd" clip-rule="evenodd" d="M91.7638 149.912H70.7998C70.2365 149.912 69.6962 149.688 69.2979 149.29C68.8996 148.892 68.6758 148.351 68.6758 147.788V147.708C68.6758 147.144 68.8994 146.604 69.2976 146.205C69.6959 145.806 70.2361 145.581 70.7998 145.58H91.7478C92.3115 145.581 92.8517 145.806 93.2499 146.205C93.6481 146.604 93.8718 147.144 93.8718 147.708V147.788C93.8718 148.349 93.6502 148.886 93.2553 149.284C92.8605 149.682 92.3243 149.908 91.7638 149.912Z" fill="white"/>
<path opacity="0.5" fill-rule="evenodd" clip-rule="evenodd" d="M91.7638 159.4H70.7998C70.2361 159.399 69.6959 159.175 69.2976 158.776C68.8994 158.377 68.6758 157.836 68.6758 157.272V157.192C68.6758 156.629 68.8996 156.089 69.2979 155.69C69.6962 155.292 70.2365 155.068 70.7998 155.068H91.7478C92.3111 155.068 92.8513 155.292 93.2497 155.69C93.648 156.089 93.8718 156.629 93.8718 157.192V157.272C93.8718 157.833 93.6504 158.372 93.2556 158.77C92.8608 159.169 92.3247 159.395 91.7638 159.4Z" fill="white"/>
<path opacity="0.5" fill-rule="evenodd" clip-rule="evenodd" d="M91.7638 168.892H70.7998C70.2365 168.892 69.6962 168.668 69.2979 168.27C68.8996 167.872 68.6758 167.331 68.6758 166.768V166.688C68.6758 166.125 68.8996 165.584 69.2979 165.186C69.6962 164.788 70.2365 164.564 70.7998 164.564H91.7478C92.3111 164.564 92.8513 164.788 93.2497 165.186C93.648 165.584 93.8718 166.125 93.8718 166.688V166.768C93.8718 167.329 93.6502 167.866 93.2553 168.264C92.8605 168.662 92.3243 168.888 91.7638 168.892Z" fill="white"/>
<path opacity="0.5" fill-rule="evenodd" clip-rule="evenodd" d="M91.7638 178.384H70.7998C70.2365 178.384 69.6962 178.16 69.2979 177.762C68.8996 177.364 68.6758 176.824 68.6758 176.26V176.176C68.6758 175.613 68.8996 175.073 69.2979 174.674C69.6962 174.276 70.2365 174.052 70.7998 174.052H91.7478C92.3111 174.052 92.8513 174.276 93.2497 174.674C93.648 175.073 93.8718 175.613 93.8718 176.176V176.26C93.8718 176.821 93.6502 177.359 93.2553 177.757C92.8605 178.154 92.3243 178.38 91.7638 178.384Z" fill="white"/>
<path opacity="0.5" fill-rule="evenodd" clip-rule="evenodd" d="M91.7638 187.872H70.7998C70.2365 187.872 69.6962 187.648 69.2979 187.25C68.8996 186.852 68.6758 186.311 68.6758 185.748V185.668C68.6758 185.105 68.8996 184.564 69.2979 184.166C69.6962 183.768 70.2365 183.544 70.7998 183.544H91.7478C92.3111 183.544 92.8513 183.768 93.2497 184.166C93.648 184.564 93.8718 185.105 93.8718 185.668V185.748C93.8718 186.309 93.6502 186.846 93.2553 187.244C92.8605 187.642 92.3243 187.868 91.7638 187.872Z" fill="white"/>
<path opacity="0.5" fill-rule="evenodd" clip-rule="evenodd" d="M91.7638 197.364H70.7998C70.2365 197.364 69.6962 197.14 69.2979 196.742C68.8996 196.344 68.6758 195.803 68.6758 195.24V195.16C68.6758 194.597 68.8996 194.057 69.2979 193.658C69.6962 193.26 70.2365 193.036 70.7998 193.036H91.7478C92.3111 193.036 92.8513 193.26 93.2497 193.658C93.648 194.057 93.8718 194.597 93.8718 195.16V195.24C93.8718 195.801 93.6502 196.339 93.2553 196.736C92.8605 197.134 92.3243 197.36 91.7638 197.364Z" fill="white"/>
<path fill-rule="evenodd" clip-rule="evenodd" d="M262.216 210.548H220.948V144.62C220.951 143.022 221.588 141.491 222.719 140.363C223.85 139.234 225.382 138.6 226.98 138.6H256.18C256.971 138.6 257.755 138.756 258.487 139.059C259.218 139.362 259.882 139.806 260.442 140.366C261.002 140.925 261.446 141.59 261.749 142.321C262.052 143.053 262.208 143.836 262.208 144.628L262.216 210.548Z" fill="#DDDDDD"/>
<path opacity="0.5" fill-rule="evenodd" clip-rule="evenodd" d="M254.84 152.932H228.328C227.769 152.908 227.242 152.669 226.855 152.266C226.469 151.862 226.253 151.325 226.253 150.766C226.253 150.207 226.469 149.67 226.855 149.266C227.242 148.863 227.769 148.624 228.328 148.6H254.84C255.398 148.624 255.926 148.863 256.312 149.266C256.699 149.67 256.915 150.207 256.915 150.766C256.915 151.325 256.699 151.862 256.312 152.266C255.926 152.669 255.398 152.908 254.84 152.932Z" fill="white"/>
<path opacity="0.5" fill-rule="evenodd" clip-rule="evenodd" d="M254.84 162.42H228.328C227.754 162.42 227.203 162.192 226.797 161.786C226.392 161.381 226.164 160.83 226.164 160.256C226.164 159.682 226.392 159.132 226.797 158.726C227.203 158.32 227.754 158.092 228.328 158.092H254.84C255.414 158.092 255.964 158.32 256.37 158.726C256.776 159.132 257.004 159.682 257.004 160.256C257.004 160.83 256.776 161.381 256.37 161.786C255.964 162.192 255.414 162.42 254.84 162.42Z" fill="white"/>
<path opacity="0.5" fill-rule="evenodd" clip-rule="evenodd" d="M254.84 171.912H228.328C227.769 171.888 227.242 171.649 226.855 171.246C226.469 170.842 226.253 170.305 226.253 169.746C226.253 169.187 226.469 168.65 226.855 168.246C227.242 167.843 227.769 167.604 228.328 167.58H254.84C255.398 167.604 255.926 167.843 256.312 168.246C256.699 168.65 256.915 169.187 256.915 169.746C256.915 170.305 256.699 170.842 256.312 171.246C255.926 171.649 255.398 171.888 254.84 171.912Z" fill="white"/>
<path fill-rule="evenodd" clip-rule="evenodd" d="M118.22 138.72C116.632 138.72 115.109 138.091 113.984 136.97C112.859 135.849 112.225 134.328 112.22 132.74V121.772H90.0957V131.772H95.8877C96.7091 131.771 97.5225 131.933 98.2815 132.247C99.0405 132.561 99.7301 133.021 100.311 133.602C100.892 134.182 101.353 134.872 101.667 135.631C101.982 136.389 102.144 137.203 102.144 138.024V207.528H105.444V168.248C105.444 166.488 106.143 164.8 107.387 163.556C108.632 162.311 110.32 161.612 112.08 161.612H120.8V138.72H118.22Z" fill="#E8E8E8"/>
<path fill-rule="evenodd" clip-rule="evenodd" d="M222.644 110.34H210.644C210.306 110.34 209.983 110.206 209.744 109.967C209.506 109.729 209.372 109.405 209.372 109.068V103.168C209.372 103.001 209.405 102.836 209.468 102.682C209.532 102.528 209.626 102.388 209.744 102.27C209.863 102.152 210.003 102.059 210.157 101.995C210.311 101.932 210.477 101.899 210.644 101.9H222.644C222.98 101.9 223.302 102.033 223.54 102.271C223.778 102.509 223.912 102.832 223.912 103.168V109.068C223.912 109.235 223.88 109.4 223.816 109.554C223.753 109.709 223.659 109.849 223.542 109.967C223.424 110.085 223.284 110.179 223.13 110.243C222.976 110.307 222.81 110.34 222.644 110.34Z" fill="#DDDDDD"/>
<path fill-rule="evenodd" clip-rule="evenodd" d="M218.912 99.5201H214.4V87.8001C214.4 87.5699 214.491 87.3491 214.654 87.1864C214.817 87.0236 215.038 86.9321 215.268 86.9321H218.068C218.298 86.9321 218.519 87.0236 218.682 87.1864C218.844 87.3491 218.936 87.5699 218.936 87.8001L218.912 99.5201Z" fill="#DDDDDD"/>
<path fill-rule="evenodd" clip-rule="evenodd" d="M230.116 218.6H97.2838C96.3821 218.6 95.5173 218.242 94.8796 217.604C94.242 216.967 93.8838 216.102 93.8838 215.2C93.8838 214.299 94.242 213.434 94.8796 212.796C95.5173 212.158 96.3821 211.8 97.2838 211.8H230.116C231.018 211.8 231.882 212.158 232.52 212.796C233.158 213.434 233.516 214.299 233.516 215.2C233.516 216.102 233.158 216.967 232.52 217.604C231.882 218.242 231.018 218.6 230.116 218.6Z" fill="#7E89A0"/>
<path fill-rule="evenodd" clip-rule="evenodd" d="M310.964 224.64C310.963 220.308 309.241 216.153 306.178 213.09C303.115 210.027 298.96 208.305 294.628 208.304H59.5358C58.2988 208.304 57.1125 207.813 56.2379 206.938C55.3632 206.063 54.8718 204.877 54.8718 203.64C54.8718 202.403 55.3632 201.217 56.2379 200.342C57.1125 199.468 58.2988 198.976 59.5358 198.976H60.9118V191.972H52.0838C47.796 192.039 43.7066 193.79 40.6981 196.846C37.6896 199.902 36.0034 204.018 36.0034 208.306C36.0034 212.594 37.6896 216.711 40.6981 219.767C43.7066 222.823 47.796 224.573 52.0838 224.64H289.964C291.201 224.64 292.387 225.132 293.262 226.006C294.136 226.881 294.628 228.067 294.628 229.304C294.628 230.541 294.136 231.727 293.262 232.602C292.387 233.477 291.201 233.968 289.964 233.968H258.268C257.798 233.952 257.33 234.031 256.891 234.2C256.452 234.369 256.052 234.624 255.714 234.951C255.376 235.278 255.107 235.669 254.924 236.102C254.74 236.535 254.645 237 254.645 237.47C254.645 237.94 254.74 238.406 254.924 238.838C255.107 239.271 255.376 239.663 255.714 239.989C256.052 240.316 256.452 240.572 256.891 240.74C257.33 240.909 257.798 240.988 258.268 240.972H294.82C299.119 240.924 303.226 239.182 306.248 236.124C309.271 233.066 310.965 228.94 310.964 224.64Z" fill="#CCCCCC"/>
<path fill-rule="evenodd" clip-rule="evenodd" d="M241.244 233.968H218.644C217.736 233.999 216.875 234.381 216.243 235.035C215.611 235.688 215.258 236.561 215.258 237.47C215.258 238.379 215.611 239.252 216.243 239.906C216.875 240.559 217.736 240.942 218.644 240.972H241.244C241.714 240.988 242.182 240.909 242.621 240.741C243.06 240.572 243.46 240.316 243.798 239.99C244.136 239.663 244.405 239.271 244.588 238.839C244.772 238.406 244.866 237.94 244.866 237.47C244.866 237 244.772 236.535 244.588 236.102C244.405 235.669 244.136 235.278 243.798 234.951C243.46 234.624 243.06 234.369 242.621 234.2C242.182 234.031 241.714 233.952 241.244 233.968Z" fill="#CCCCCC"/>
<path fill-rule="evenodd" clip-rule="evenodd" d="M145.488 285.552H83.0279C80.8546 285.552 78.7027 285.124 76.6949 284.292C74.6872 283.46 72.863 282.241 71.3267 280.704C69.7903 279.166 68.5719 277.342 67.7409 275.334C66.91 273.325 66.4828 271.173 66.4839 269V114.084C66.4839 109.696 68.2269 105.488 71.3295 102.386C74.4321 99.2831 78.6402 97.54 83.0279 97.54H145.488C149.876 97.54 154.084 99.2831 157.186 102.386C160.289 105.488 162.032 109.696 162.032 114.084V269C162.033 271.173 161.606 273.325 160.775 275.334C159.944 277.342 158.725 279.166 157.189 280.704C155.653 282.241 153.829 283.46 151.821 284.292C149.813 285.124 147.661 285.552 145.488 285.552Z" fill="#635252"/>
<path fill-rule="evenodd" clip-rule="evenodd" d="M141.912 280.708H86.6001C82.5497 280.708 78.6652 279.099 75.8012 276.235C72.9371 273.371 71.3281 269.487 71.3281 265.436V117.66C71.3281 113.61 72.9371 109.725 75.8012 106.861C78.6652 103.997 82.5497 102.388 86.6001 102.388H141.912C143.919 102.386 145.907 102.78 147.761 103.546C149.616 104.313 151.302 105.437 152.721 106.856C154.141 108.274 155.268 109.958 156.036 111.812C156.805 113.666 157.2 115.653 157.2 117.66V265.436C157.2 267.443 156.805 269.43 156.036 271.284C155.268 273.138 154.141 274.822 152.721 276.241C151.302 277.659 149.616 278.784 147.761 279.55C145.907 280.317 143.919 280.71 141.912 280.708Z" fill="#FFE3E0"/>
<path fill-rule="evenodd" clip-rule="evenodd" d="M141.912 280.708H86.6001C82.5497 280.708 78.6652 279.099 75.8012 276.235C72.9371 273.371 71.3281 269.487 71.3281 265.436V117.66C71.3281 113.61 72.9371 109.725 75.8012 106.861C78.6652 103.997 82.5497 102.388 86.6001 102.388H141.912C143.919 102.386 145.907 102.78 147.761 103.546C149.616 104.313 151.302 105.437 152.721 106.856C154.141 108.274 155.268 109.958 156.036 111.812C156.805 113.666 157.2 115.653 157.2 117.66V265.436C157.2 267.443 156.805 269.43 156.036 271.284C155.268 273.138 154.141 274.822 152.721 276.241C151.302 277.659 149.616 278.784 147.761 279.55C145.907 280.317 143.919 280.71 141.912 280.708Z" fill="#F00020"/>
<path fill-rule="evenodd" clip-rule="evenodd" d="M128.04 109.1H100.472C98.8154 109.099 97.2268 108.441 96.0553 107.269C94.8838 106.098 94.2252 104.509 94.2241 102.852V100.076H134.292V102.852C134.291 104.51 133.632 106.099 132.46 107.27C131.287 108.442 129.698 109.1 128.04 109.1Z" fill="#635252"/>
<path fill-rule="evenodd" clip-rule="evenodd" d="M141.548 255.552H85.8519C84.9364 255.552 84.0583 255.188 83.411 254.541C82.7636 253.894 82.3999 253.016 82.3999 252.1V133.032C82.3999 132.117 82.7636 131.239 83.411 130.591C84.0583 129.944 84.9364 129.58 85.8519 129.58H141.548C142.463 129.58 143.341 129.944 143.989 130.591C144.636 131.239 145 132.117 145 133.032V252.1C145 253.016 144.636 253.894 143.989 254.541C143.341 255.188 142.463 255.552 141.548 255.552Z" fill="white"/>
<path fill-rule="evenodd" clip-rule="evenodd" d="M95.7879 231.12C94.4136 231.121 93.0699 230.714 91.9267 229.951C90.7836 229.188 89.8925 228.103 89.366 226.834C88.8395 225.564 88.7013 224.167 88.969 222.819C89.2366 221.471 89.898 220.233 90.8695 219.261C91.8411 218.288 93.0791 217.626 94.427 217.358C95.7749 217.09 97.1721 217.227 98.4419 217.753C99.7117 218.278 100.797 219.169 101.561 220.312C102.324 221.454 102.732 222.798 102.732 224.172C102.732 226.014 102 227.781 100.698 229.084C99.3962 230.387 97.63 231.119 95.7879 231.12Z" fill="#EFEFEF"/>
<path fill-rule="evenodd" clip-rule="evenodd" d="M133.736 225.32H107.04C106.736 225.32 106.444 225.199 106.228 224.984C106.013 224.768 105.892 224.476 105.892 224.172C105.892 223.867 106.013 223.575 106.228 223.36C106.444 223.145 106.736 223.024 107.04 223.024H133.736C134.041 223.024 134.333 223.145 134.548 223.36C134.763 223.575 134.884 223.867 134.884 224.172C134.884 224.476 134.763 224.768 134.548 224.984C134.333 225.199 134.041 225.32 133.736 225.32Z" fill="#EFEFEF"/>
<path fill-rule="evenodd" clip-rule="evenodd" d="M137.244 249.308H89.9518C89.647 249.309 89.3451 249.249 89.0634 249.132C88.7817 249.016 88.5257 248.845 88.3102 248.63C88.0946 248.414 87.9238 248.158 87.8074 247.876C87.691 247.595 87.6313 247.293 87.6318 246.988V241.696C87.6313 241.391 87.691 241.089 87.8074 240.808C87.9238 240.526 88.0946 240.27 88.3102 240.054C88.5257 239.839 88.7817 239.668 89.0634 239.552C89.3451 239.435 89.647 239.375 89.9518 239.376H137.244C137.859 239.376 138.449 239.62 138.884 240.055C139.319 240.491 139.564 241.081 139.564 241.696V247C139.561 247.613 139.315 248.2 138.88 248.633C138.445 249.065 137.857 249.308 137.244 249.308Z" fill="#F00020"/>
<path fill-rule="evenodd" clip-rule="evenodd" d="M123.16 229.4C123.195 229.363 123.22 229.318 123.231 229.269C123.243 229.219 123.24 229.168 123.224 229.12C123.21 229.072 123.183 229.028 123.146 228.995C123.108 228.962 123.062 228.94 123.012 228.932L122.14 228.8C122.132 228.798 122.123 228.794 122.117 228.788C122.11 228.783 122.104 228.776 122.1 228.768L121.7 227.968C121.679 227.923 121.646 227.885 121.604 227.858C121.562 227.831 121.514 227.817 121.464 227.817C121.415 227.817 121.366 227.831 121.324 227.858C121.282 227.885 121.249 227.923 121.228 227.968L120.828 228.768C120.825 228.776 120.819 228.783 120.812 228.789C120.805 228.795 120.797 228.798 120.788 228.8L119.916 228.932C119.867 228.94 119.821 228.962 119.783 228.995C119.746 229.029 119.718 229.072 119.704 229.12C119.689 229.168 119.687 229.22 119.699 229.269C119.711 229.319 119.736 229.364 119.772 229.4L120.4 230.04C120.404 230.047 120.407 230.055 120.407 230.064C120.407 230.072 120.404 230.08 120.4 230.088L120.252 230.996C120.244 231.046 120.249 231.097 120.268 231.144C120.286 231.191 120.317 231.232 120.356 231.264C120.395 231.293 120.442 231.311 120.491 231.314C120.54 231.318 120.589 231.307 120.632 231.284L121.412 230.856C121.42 230.852 121.428 230.85 121.436 230.85C121.445 230.85 121.453 230.852 121.46 230.856L122.24 231.284C122.278 231.306 122.321 231.317 122.364 231.316C122.419 231.316 122.473 231.298 122.516 231.264C122.557 231.234 122.589 231.192 122.607 231.145C122.626 231.097 122.63 231.046 122.62 230.996L122.472 230.088C122.467 230.072 122.467 230.055 122.472 230.04L123.16 229.4Z" fill="#FFD400"/>
<path fill-rule="evenodd" clip-rule="evenodd" d="M118.98 229.4C119.017 229.364 119.043 229.319 119.055 229.27C119.067 229.22 119.064 229.168 119.048 229.12C119.034 229.072 119.007 229.028 118.969 228.995C118.932 228.962 118.885 228.94 118.836 228.932L117.964 228.8C117.955 228.799 117.947 228.795 117.941 228.789C117.935 228.783 117.93 228.776 117.928 228.768L117.528 227.968C117.507 227.923 117.474 227.885 117.432 227.858C117.39 227.831 117.341 227.817 117.292 227.817C117.242 227.817 117.194 227.831 117.152 227.858C117.11 227.885 117.077 227.923 117.056 227.968L116.656 228.768C116.652 228.776 116.647 228.783 116.64 228.789C116.633 228.795 116.625 228.798 116.616 228.8L115.744 228.932C115.694 228.94 115.648 228.962 115.611 228.995C115.573 229.029 115.546 229.072 115.532 229.12C115.516 229.168 115.514 229.22 115.526 229.269C115.538 229.319 115.564 229.364 115.6 229.4L116.228 230.04C116.232 230.047 116.234 230.055 116.234 230.064C116.234 230.072 116.232 230.08 116.228 230.088L116.08 230.996C116.072 231.046 116.077 231.097 116.095 231.144C116.114 231.191 116.144 231.232 116.184 231.264C116.223 231.293 116.27 231.311 116.319 231.314C116.368 231.318 116.417 231.307 116.46 231.284L117.24 230.856C117.247 230.852 117.255 230.85 117.264 230.85C117.272 230.85 117.28 230.852 117.288 230.856L118.068 231.284C118.105 231.306 118.148 231.317 118.192 231.316C118.247 231.316 118.301 231.298 118.344 231.264C118.385 231.234 118.416 231.192 118.435 231.145C118.453 231.097 118.458 231.046 118.448 230.996L118.3 230.088C118.296 230.08 118.295 230.072 118.295 230.064C118.295 230.056 118.296 230.047 118.3 230.04L118.98 229.4Z" fill="#FFD400"/>
<path fill-rule="evenodd" clip-rule="evenodd" d="M110.316 229.4C110.352 229.364 110.378 229.319 110.39 229.269C110.402 229.22 110.4 229.168 110.384 229.12C110.37 229.072 110.343 229.029 110.305 228.995C110.268 228.962 110.222 228.94 110.172 228.932L109.3 228.8C109.291 228.798 109.283 228.795 109.276 228.789C109.269 228.783 109.264 228.776 109.26 228.768L108.86 227.968C108.839 227.923 108.806 227.885 108.764 227.858C108.722 227.831 108.674 227.817 108.624 227.817C108.575 227.817 108.526 227.831 108.484 227.858C108.442 227.885 108.409 227.923 108.388 227.968L107.988 228.768C107.986 228.776 107.981 228.783 107.975 228.789C107.969 228.795 107.961 228.799 107.952 228.8L107.08 228.932C107.03 228.94 106.984 228.962 106.945 228.995C106.907 229.028 106.879 229.071 106.864 229.12C106.85 229.168 106.849 229.22 106.861 229.269C106.873 229.318 106.897 229.363 106.932 229.4L107.564 230.04C107.569 230.055 107.569 230.072 107.564 230.088L107.412 230.996C107.404 231.046 107.41 231.097 107.428 231.144C107.446 231.191 107.477 231.232 107.516 231.264C107.556 231.293 107.604 231.311 107.653 231.314C107.703 231.318 107.752 231.307 107.796 231.284L108.576 230.856C108.584 230.852 108.592 230.85 108.6 230.85C108.609 230.85 108.617 230.852 108.624 230.856L109.424 231.284C109.46 231.306 109.502 231.317 109.544 231.316C109.601 231.316 109.655 231.298 109.7 231.264C109.74 231.232 109.77 231.191 109.789 231.144C109.807 231.097 109.812 231.046 109.804 230.996L109.656 230.088C109.653 230.08 109.651 230.072 109.651 230.064C109.651 230.055 109.653 230.047 109.656 230.04L110.316 229.4Z" fill="#FFD400"/>
<path fill-rule="evenodd" clip-rule="evenodd" d="M114.492 229.4C114.528 229.364 114.554 229.32 114.566 229.271C114.578 229.222 114.577 229.17 114.562 229.122C114.547 229.074 114.519 229.031 114.482 228.997C114.444 228.963 114.398 228.941 114.348 228.932L113.476 228.8C113.467 228.798 113.459 228.795 113.452 228.789C113.445 228.783 113.439 228.776 113.436 228.768L113.036 227.968C113.015 227.923 112.982 227.885 112.94 227.858C112.898 227.831 112.85 227.817 112.8 227.817C112.75 227.817 112.702 227.831 112.66 227.858C112.618 227.885 112.585 227.923 112.564 227.968L112.164 228.768C112.162 228.776 112.157 228.783 112.151 228.789C112.144 228.795 112.136 228.799 112.128 228.8L111.256 228.932C111.206 228.94 111.16 228.962 111.123 228.995C111.085 229.028 111.058 229.072 111.044 229.12C111.028 229.168 111.025 229.219 111.037 229.269C111.048 229.318 111.073 229.363 111.108 229.4L111.74 230.04C111.743 230.047 111.745 230.056 111.745 230.064C111.745 230.072 111.743 230.08 111.74 230.088L111.592 230.996C111.583 231.046 111.588 231.097 111.606 231.144C111.625 231.192 111.656 231.233 111.696 231.264C111.735 231.293 111.782 231.311 111.831 231.314C111.88 231.318 111.929 231.307 111.972 231.284L112.772 230.856C112.779 230.852 112.788 230.85 112.796 230.85C112.804 230.85 112.813 230.852 112.82 230.856L113.62 231.284C113.656 231.306 113.698 231.317 113.74 231.316C113.796 231.317 113.852 231.299 113.896 231.264C113.935 231.233 113.965 231.192 113.983 231.146C114.002 231.099 114.007 231.049 114 231L113.852 230.092C113.849 230.084 113.847 230.076 113.847 230.068C113.847 230.06 113.849 230.051 113.852 230.044L114.492 229.4Z" fill="#FFD400"/>
<path fill-rule="evenodd" clip-rule="evenodd" d="M127.46 229.4C127.496 229.364 127.521 229.319 127.533 229.27C127.545 229.22 127.543 229.168 127.528 229.12C127.514 229.072 127.486 229.029 127.449 228.996C127.411 228.962 127.365 228.94 127.316 228.932L126.444 228.8C126.435 228.799 126.426 228.795 126.419 228.79C126.412 228.784 126.407 228.777 126.404 228.768L126.004 227.968C125.983 227.923 125.95 227.884 125.908 227.857C125.866 227.83 125.818 227.816 125.768 227.816C125.718 227.815 125.669 227.829 125.627 227.856C125.585 227.883 125.552 227.922 125.532 227.968L125.132 228.768C125.129 228.777 125.123 228.784 125.116 228.79C125.109 228.795 125.101 228.799 125.092 228.8L124.224 228.932C124.174 228.94 124.127 228.962 124.089 228.995C124.051 229.028 124.023 229.072 124.008 229.12C123.994 229.168 123.992 229.22 124.004 229.269C124.016 229.318 124.041 229.363 124.076 229.4L124.708 230.04C124.713 230.056 124.713 230.072 124.708 230.088L124.556 230.996C124.548 231.046 124.553 231.097 124.571 231.144C124.59 231.191 124.62 231.233 124.66 231.264C124.7 231.293 124.747 231.311 124.797 231.314C124.846 231.318 124.896 231.307 124.94 231.284L125.716 230.856C125.724 230.852 125.733 230.85 125.742 230.85C125.751 230.85 125.76 230.852 125.768 230.856L126.544 231.284C126.581 231.306 126.624 231.317 126.668 231.316C126.724 231.317 126.779 231.298 126.824 231.264C126.863 231.233 126.894 231.191 126.912 231.144C126.93 231.097 126.936 231.046 126.928 230.996L126.78 230.088C126.776 230.08 126.774 230.072 126.774 230.064C126.774 230.056 126.776 230.047 126.78 230.04L127.46 229.4Z" fill="#EFEFEF"/>
<path d="M276.764 135.776C273.711 135.775 270.687 136.376 267.866 137.545C265.045 138.713 262.482 140.426 260.323 142.585C258.164 144.745 256.451 147.308 255.284 150.129C254.116 152.951 253.515 155.974 253.516 159.028C253.516 171.864 276.764 200.404 276.764 200.404C276.764 200.404 287.324 187.44 294.192 175.06C297.536 169.06 300.016 163.216 300.016 159.028C300.014 152.862 297.564 146.949 293.203 142.589C288.843 138.228 282.93 135.778 276.764 135.776ZM276.764 169.644C273.964 169.663 271.263 168.609 269.216 166.698C267.169 164.787 265.933 162.164 265.761 159.369C265.589 156.574 266.494 153.819 268.291 151.671C270.088 149.524 272.639 148.146 275.421 147.822C278.202 147.498 281.002 148.252 283.245 149.929C285.487 151.606 287.002 154.078 287.477 156.838C287.953 159.597 287.353 162.434 285.8 164.765C284.248 167.095 281.862 168.743 279.132 169.368C278.357 169.554 277.562 169.646 276.764 169.644Z" fill="#B8C1C9"/>
<path d="M267.212 184.668H237.632V209.716H270.776L267.212 184.668Z" fill="#91051C"/>
<path d="M265.916 185.528H232.392V209.716H269.396L265.916 185.528Z" fill="#131F2D"/>
<path d="M251.456 209.716H256.016V205.092H251.456V209.716Z" fill="#B8C1C9"/>
<path d="M255.828 209.716H258.588V205.092H255.828V209.716Z" fill="#657285"/>
<path d="M251.216 205.16H258.776V199.288H251.216V205.16Z" fill="#B8C1C9"/>
<path d="M258.584 205.16H260.672V200.6H258.584V205.16Z" fill="#657285"/>
<path d="M228.368 206.56H222.388C221.571 206.56 220.908 207.223 220.908 208.04V209.044C220.908 209.861 221.571 210.524 222.388 210.524H228.368C229.186 210.524 229.848 209.861 229.848 209.044V208.04C229.848 207.223 229.186 206.56 228.368 206.56Z" fill="#B8C1C9"/>
<path d="M246.688 213.02C246.687 212.18 246.936 211.358 247.402 210.658C247.869 209.959 248.532 209.414 249.309 209.092C250.085 208.77 250.939 208.686 251.764 208.849C252.588 209.013 253.345 209.418 253.94 210.012C254.534 210.607 254.939 211.364 255.103 212.188C255.266 213.013 255.182 213.867 254.86 214.644C254.538 215.42 253.993 216.083 253.294 216.55C252.594 217.016 251.773 217.265 250.932 217.264C249.806 217.264 248.727 216.817 247.931 216.021C247.135 215.225 246.688 214.146 246.688 213.02Z" fill="#131F2D"/>
<path d="M260.968 213.02C260.967 212.179 261.216 211.357 261.683 210.657C262.15 209.958 262.814 209.413 263.591 209.091C264.368 208.769 265.223 208.686 266.048 208.85C266.873 209.015 267.63 209.421 268.224 210.017C268.818 210.612 269.221 211.37 269.384 212.196C269.546 213.021 269.46 213.876 269.136 214.652C268.812 215.428 268.265 216.091 267.565 216.556C266.864 217.021 266.041 217.267 265.2 217.264C264.077 217.26 263.001 216.811 262.208 216.016C261.415 215.22 260.969 214.143 260.968 213.02Z" fill="#131F2D"/>
<path d="M210.68 213.02C210.679 212.18 210.928 211.358 211.394 210.659C211.86 209.96 212.524 209.415 213.3 209.093C214.076 208.77 214.93 208.686 215.754 208.849C216.579 209.013 217.336 209.417 217.931 210.011C218.525 210.605 218.93 211.362 219.094 212.186C219.258 213.01 219.175 213.864 218.853 214.641C218.532 215.417 217.987 216.081 217.289 216.548C216.59 217.015 215.769 217.264 214.928 217.264C213.802 217.264 212.722 216.817 211.926 216.021C211.129 215.225 210.681 214.146 210.68 213.02Z" fill="#131F2D"/>
<path d="M223.904 211.832C223.904 211.474 224.01 211.125 224.208 210.827C224.407 210.53 224.69 210.298 225.02 210.162C225.35 210.025 225.714 209.989 226.065 210.059C226.415 210.128 226.737 210.301 226.99 210.553C227.243 210.806 227.415 211.128 227.485 211.479C227.555 211.83 227.519 212.193 227.382 212.524C227.245 212.854 227.014 213.137 226.716 213.335C226.419 213.534 226.069 213.64 225.712 213.64C225.232 213.64 224.772 213.449 224.433 213.11C224.094 212.771 223.904 212.311 223.904 211.832Z" fill="#D36E2A"/>
<path d="M212.8 213.02C212.8 212.596 212.926 212.181 213.161 211.829C213.397 211.476 213.732 211.201 214.123 211.039C214.515 210.877 214.946 210.834 215.362 210.917C215.778 211 216.16 211.204 216.46 211.504C216.76 211.804 216.964 212.186 217.047 212.602C217.129 213.018 217.087 213.449 216.925 213.84C216.762 214.232 216.488 214.567 216.135 214.803C215.782 215.038 215.368 215.164 214.944 215.164C214.375 215.164 213.83 214.938 213.428 214.536C213.026 214.134 212.8 213.589 212.8 213.02Z" fill="#657285"/>
<path d="M214.264 213.02C214.264 212.889 214.303 212.76 214.376 212.651C214.449 212.542 214.553 212.457 214.674 212.407C214.795 212.356 214.929 212.343 215.058 212.369C215.187 212.394 215.305 212.458 215.398 212.55C215.491 212.643 215.554 212.762 215.579 212.89C215.605 213.019 215.592 213.153 215.542 213.274C215.491 213.395 215.406 213.499 215.297 213.572C215.188 213.645 215.06 213.684 214.928 213.684C214.752 213.684 214.583 213.614 214.459 213.489C214.334 213.365 214.264 213.196 214.264 213.02Z" fill="#B8C1C9"/>
<path d="M213.54 214.156C213.54 214.104 213.555 214.054 213.584 214.011C213.613 213.968 213.654 213.935 213.702 213.915C213.749 213.896 213.802 213.891 213.852 213.901C213.903 213.912 213.949 213.937 213.985 213.974C214.022 214.01 214.046 214.057 214.056 214.108C214.065 214.158 214.059 214.211 214.039 214.258C214.019 214.306 213.985 214.346 213.942 214.374C213.898 214.402 213.848 214.417 213.796 214.416C213.762 214.416 213.728 214.409 213.697 214.396C213.666 214.383 213.637 214.364 213.614 214.34C213.59 214.315 213.571 214.287 213.558 214.255C213.546 214.224 213.54 214.19 213.54 214.156Z" fill="#B8C1C9"/>
<path d="M213.24 212.248C213.239 212.196 213.254 212.145 213.282 212.102C213.31 212.059 213.351 212.025 213.398 212.004C213.446 211.984 213.499 211.979 213.55 211.989C213.6 211.999 213.647 212.023 213.684 212.06C213.72 212.097 213.745 212.143 213.755 212.194C213.765 212.245 213.759 212.298 213.739 212.345C213.719 212.393 213.685 212.433 213.642 212.462C213.598 212.49 213.548 212.505 213.496 212.504C213.428 212.503 213.364 212.476 213.316 212.428C213.268 212.38 213.241 212.315 213.24 212.248Z" fill="#B8C1C9"/>
<path d="M216.068 212.248C216.067 212.196 216.082 212.146 216.11 212.102C216.138 212.059 216.178 212.025 216.226 212.005C216.273 211.985 216.325 211.979 216.376 211.988C216.427 211.998 216.474 212.022 216.51 212.059C216.547 212.095 216.572 212.141 216.583 212.192C216.593 212.242 216.588 212.295 216.568 212.342C216.549 212.39 216.516 212.431 216.473 212.46C216.43 212.489 216.38 212.504 216.328 212.504C216.26 212.504 216.194 212.477 216.145 212.429C216.097 212.381 216.069 212.316 216.068 212.248Z" fill="#B8C1C9"/>
<path d="M215.856 214.156C215.856 214.088 215.883 214.023 215.931 213.975C215.979 213.927 216.044 213.9 216.112 213.9C216.175 213.908 216.233 213.938 216.275 213.986C216.317 214.033 216.34 214.095 216.34 214.158C216.34 214.221 216.317 214.282 216.275 214.33C216.233 214.378 216.175 214.408 216.112 214.416C216.044 214.415 215.979 214.387 215.931 214.338C215.883 214.29 215.856 214.224 215.856 214.156Z" fill="#B8C1C9"/>
<path d="M214.672 211.4C214.672 211.332 214.699 211.267 214.747 211.219C214.795 211.171 214.86 211.144 214.928 211.144C214.979 211.144 215.028 211.159 215.07 211.187C215.112 211.215 215.145 211.255 215.164 211.302C215.184 211.349 215.189 211.4 215.179 211.45C215.169 211.5 215.145 211.545 215.109 211.581C215.073 211.617 215.027 211.641 214.978 211.651C214.928 211.661 214.877 211.656 214.83 211.637C214.783 211.617 214.743 211.584 214.715 211.542C214.687 211.5 214.672 211.451 214.672 211.4Z" fill="#B8C1C9"/>
<path d="M254.208 211.832C254.208 211.474 254.314 211.123 254.514 210.826C254.713 210.528 254.997 210.296 255.328 210.16C255.659 210.024 256.024 209.989 256.375 210.06C256.726 210.131 257.048 210.305 257.3 210.559C257.552 210.814 257.723 211.137 257.791 211.489C257.859 211.841 257.821 212.205 257.682 212.535C257.542 212.865 257.308 213.146 257.009 213.343C256.709 213.54 256.358 213.643 256 213.64C255.524 213.635 255.068 213.442 254.733 213.104C254.398 212.765 254.209 212.308 254.208 211.832Z" fill="#D36E2A"/>
<path d="M248.712 213.02C248.712 212.596 248.838 212.181 249.073 211.829C249.309 211.476 249.644 211.201 250.035 211.039C250.427 210.877 250.858 210.834 251.274 210.917C251.69 211 252.072 211.204 252.372 211.504C252.672 211.804 252.876 212.186 252.959 212.602C253.041 213.018 252.999 213.449 252.837 213.84C252.674 214.232 252.4 214.567 252.047 214.803C251.694 215.038 251.28 215.164 250.856 215.164C250.287 215.164 249.742 214.938 249.34 214.536C248.938 214.134 248.712 213.589 248.712 213.02Z" fill="#657285"/>
<path d="M250.188 213.02C250.187 212.888 250.226 212.758 250.299 212.648C250.372 212.538 250.476 212.451 250.598 212.4C250.72 212.349 250.854 212.335 250.984 212.36C251.114 212.386 251.233 212.449 251.327 212.542C251.421 212.636 251.485 212.755 251.511 212.884C251.537 213.014 251.524 213.149 251.474 213.271C251.423 213.393 251.337 213.498 251.228 213.571C251.118 213.645 250.988 213.684 250.856 213.684C250.68 213.684 250.51 213.614 250.385 213.49C250.26 213.366 250.189 213.197 250.188 213.02Z" fill="#B8C1C9"/>
<path d="M249.468 214.156C249.468 214.088 249.495 214.023 249.543 213.975C249.591 213.927 249.656 213.9 249.724 213.9C249.776 213.899 249.826 213.914 249.87 213.942C249.913 213.97 249.947 214.011 249.967 214.059C249.987 214.106 249.993 214.159 249.983 214.21C249.973 214.26 249.948 214.307 249.912 214.344C249.875 214.38 249.828 214.405 249.778 214.415C249.727 214.425 249.674 214.42 249.626 214.399C249.579 214.379 249.538 214.345 249.51 214.302C249.482 214.258 249.467 214.208 249.468 214.156Z" fill="#B8C1C9"/>
<path d="M249.368 212.248C249.367 212.196 249.382 212.146 249.41 212.102C249.438 212.059 249.478 212.025 249.526 212.005C249.573 211.985 249.626 211.979 249.676 211.988C249.727 211.998 249.774 212.022 249.811 212.059C249.847 212.095 249.873 212.141 249.883 212.192C249.893 212.242 249.888 212.295 249.869 212.342C249.849 212.39 249.816 212.431 249.773 212.46C249.73 212.489 249.68 212.504 249.628 212.504C249.56 212.504 249.494 212.477 249.446 212.429C249.397 212.381 249.369 212.316 249.368 212.248Z" fill="#B8C1C9"/>
<path d="M251.78 214.156C251.78 214.105 251.795 214.054 251.824 214.012C251.852 213.969 251.893 213.935 251.94 213.916C251.988 213.896 252.04 213.891 252.091 213.901C252.141 213.911 252.187 213.936 252.224 213.972C252.26 214.008 252.285 214.055 252.295 214.105C252.305 214.156 252.3 214.208 252.28 214.255C252.26 214.303 252.227 214.344 252.184 214.372C252.141 214.401 252.091 214.416 252.04 214.416C251.971 214.416 251.905 214.389 251.856 214.34C251.807 214.291 251.78 214.225 251.78 214.156Z" fill="#B8C1C9"/>
<path d="M254.14 210.452C254.14 210.409 254.153 210.367 254.177 210.332C254.2 210.296 254.234 210.269 254.273 210.252C254.313 210.236 254.356 210.232 254.398 210.24C254.44 210.248 254.479 210.269 254.509 210.299C254.539 210.329 254.56 210.368 254.568 210.41C254.576 210.452 254.572 210.495 254.556 210.535C254.539 210.574 254.512 210.608 254.476 210.631C254.441 210.655 254.399 210.668 254.356 210.668C254.299 210.668 254.244 210.645 254.203 210.605C254.163 210.564 254.14 210.509 254.14 210.452Z" fill="#B8C1C9"/>
<path d="M222.748 213.02C222.747 212.18 222.996 211.358 223.462 210.659C223.928 209.96 224.591 209.415 225.368 209.093C226.144 208.77 226.998 208.686 227.822 208.849C228.647 209.013 229.404 209.417 229.998 210.011C230.593 210.605 230.998 211.362 231.162 212.186C231.326 213.01 231.242 213.864 230.921 214.641C230.6 215.417 230.055 216.081 229.357 216.548C228.658 217.015 227.836 217.264 226.996 217.264C225.87 217.264 224.79 216.817 223.994 216.021C223.197 215.225 222.749 214.146 222.748 213.02Z" fill="#131F2D"/>
<path d="M214.88 190.084C214.88 190.084 217.2 186.6 219.852 186.6L219.612 190.36L214.88 190.084Z" fill="#657285"/>
<path d="M228.456 205.964H210L211.536 193.508C211.655 192.53 212.127 191.63 212.864 190.977C213.601 190.323 214.551 189.962 215.536 189.96H228.436L228.456 205.964Z" fill="#B8C1C9"/>
<path d="M217.736 198.348H212.564L213.248 193.428C213.317 192.938 213.56 192.49 213.934 192.166C214.307 191.841 214.785 191.663 215.28 191.664H217.896L217.736 198.348Z" fill="#657285"/>
<path d="M217.352 197.98H213.948C213.827 197.98 213.707 197.954 213.596 197.904C213.486 197.854 213.388 197.78 213.308 197.689C213.228 197.598 213.168 197.491 213.133 197.375C213.098 197.258 213.088 197.136 213.104 197.016L213.556 193.612C213.604 193.187 213.805 192.793 214.122 192.505C214.438 192.217 214.848 192.053 215.276 192.044H217.488L217.352 197.98Z" fill="#EAEAEA"/>
<path d="M253.548 209.716H218.068L219.652 184.668H251.452L253.548 209.716Z" fill="#91051C"/>
<path d="M252.16 208.768H219.372L220.832 185.62H250.22L251.792 204.384L252.16 208.768Z" fill="#F00020"/>
<path d="M221.268 205.964H210C209.008 206.032 208.912 206.52 208.912 206.52L207.952 211.176C207.954 211.216 207.964 211.256 207.982 211.293C207.999 211.329 208.023 211.362 208.054 211.389C208.084 211.416 208.119 211.437 208.157 211.451C208.195 211.464 208.236 211.47 208.276 211.468H211.104C211.193 211.464 211.279 211.434 211.351 211.38C211.422 211.327 211.476 211.253 211.504 211.168C211.719 210.899 211.964 210.655 212.232 210.44C213.026 209.896 213.97 209.616 214.932 209.64C216.195 209.595 217.432 210.007 218.416 210.8H221.272C221.616 210.8 221.896 210.62 221.896 210.4V206.364C221.892 206.144 221.6 205.964 221.268 205.964Z" fill="#657285"/>
<path d="M256.656 215.104H253.088C253.014 214.696 252.862 214.306 252.64 213.956C251.564 212.228 249.04 211.7 247.604 211.556C246.976 211.488 246.556 211.488 246.556 211.488H252.684C253.32 211.564 253.933 211.776 254.481 212.108C255.029 212.441 255.499 212.886 255.86 213.416C256.225 213.926 256.494 214.498 256.656 215.104Z" fill="#91051C"/>
<path d="M270.776 215.104H267.2C267.115 214.642 266.933 214.204 266.664 213.82C265.036 211.468 260.664 211.468 260.664 211.468H266.8C267.907 211.599 268.924 212.14 269.652 212.984C270.185 213.595 270.569 214.32 270.776 215.104Z" fill="#91051C"/>
<path d="M270.896 209.716H219.16C218.738 209.716 218.396 210.058 218.396 210.48V211.38C218.396 211.802 218.738 212.144 219.16 212.144H270.896C271.318 212.144 271.66 211.802 271.66 211.38V210.48C271.66 210.058 271.318 209.716 270.896 209.716Z" fill="#91051C"/>
<path d="M229.552 210.328H222.34C221.405 210.328 220.648 211.086 220.648 212.02V214.016C220.648 214.951 221.405 215.708 222.34 215.708H229.552C230.486 215.708 231.244 214.951 231.244 214.016V212.02C231.244 211.086 230.486 210.328 229.552 210.328Z" fill="#91051C"/>
<path d="M210.348 195.94C210.348 195.94 209.888 198.416 209.908 198.82C209.927 198.989 210.009 199.145 210.138 199.256C210.267 199.368 210.434 199.426 210.604 199.42L210.348 195.94Z" fill="#F00020"/>
<path d="M211.504 195.732H210.868C210.57 195.732 210.328 195.974 210.328 196.272V198.884C210.328 199.182 210.57 199.424 210.868 199.424H211.504C211.802 199.424 212.044 199.182 212.044 198.884V196.272C212.044 195.974 211.802 195.732 211.504 195.732Z" fill="#657285"/>
<path d="M211.476 195.94H210.96C210.717 195.94 210.52 196.137 210.52 196.38V198.804C210.52 199.047 210.717 199.244 210.96 199.244H211.476C211.719 199.244 211.916 199.047 211.916 198.804V196.38C211.916 196.137 211.719 195.94 211.476 195.94Z" fill="#EAEAEA"/>
<path d="M211.2 195.8C211.184 195.798 211.169 195.79 211.159 195.777C211.148 195.764 211.143 195.748 211.144 195.732V194.68C211.163 194.513 211.246 194.36 211.375 194.252C211.503 194.144 211.669 194.09 211.836 194.1C212.109 194.116 212.383 194.116 212.656 194.1C212.672 194.101 212.688 194.108 212.699 194.12C212.71 194.132 212.716 194.148 212.716 194.164C212.719 194.18 212.714 194.197 212.705 194.21C212.695 194.224 212.68 194.233 212.664 194.236C212.664 194.236 212.412 194.236 211.836 194.236C211.699 194.221 211.561 194.261 211.452 194.347C211.344 194.433 211.273 194.558 211.256 194.696V195.732C211.257 195.748 211.252 195.764 211.242 195.777C211.231 195.79 211.216 195.798 211.2 195.8Z" fill="#F00020"/>
<path d="M217.256 199.952H216.212C216.143 199.951 216.076 199.923 216.027 199.873C215.977 199.824 215.949 199.758 215.948 199.688C215.948 199.618 215.976 199.55 216.025 199.5C216.075 199.45 216.142 199.421 216.212 199.42H217.256C217.291 199.42 217.326 199.427 217.358 199.44C217.39 199.454 217.42 199.474 217.444 199.499C217.469 199.524 217.488 199.553 217.501 199.586C217.514 199.618 217.521 199.653 217.52 199.688C217.52 199.758 217.492 199.825 217.443 199.875C217.393 199.924 217.326 199.952 217.256 199.952Z" fill="#657285"/>
<path d="M259.028 209.716H263.588V205.156H259.028V209.716Z" fill="#B8C1C9"/>
<path d="M263.392 209.716H265.48V205.156H263.392V209.716Z" fill="#657285"/>
<path d="M174.188 181.8C172.915 181.8 171.694 182.306 170.794 183.206C169.894 184.106 169.388 185.327 169.388 186.6C169.388 189.252 174.188 195.144 174.188 195.144C174.188 195.144 178.988 189.252 178.988 186.6C178.988 185.327 178.482 184.106 177.582 183.206C176.682 182.306 175.461 181.8 174.188 181.8ZM174.188 188.792C173.744 188.792 173.311 188.66 172.942 188.414C172.572 188.167 172.285 187.817 172.115 187.407C171.945 186.997 171.901 186.545 171.987 186.11C172.074 185.675 172.288 185.275 172.601 184.961C172.915 184.647 173.315 184.434 173.75 184.347C174.186 184.26 174.637 184.305 175.047 184.475C175.457 184.644 175.807 184.932 176.054 185.301C176.301 185.67 176.432 186.104 176.432 186.548C176.43 187.142 176.193 187.71 175.772 188.129C175.352 188.548 174.782 188.784 174.188 188.784V188.792Z" fill="#F00020"/>
<path d="M224.651 197.678C224.873 197.678 225.067 197.722 225.233 197.81C225.399 197.898 225.527 198.022 225.617 198.182C225.709 198.34 225.755 198.523 225.755 198.731C225.755 198.937 225.709 199.12 225.617 199.28C225.527 199.44 225.398 199.564 225.23 199.652C225.064 199.74 224.871 199.784 224.651 199.784H223.862V197.678H224.651ZM224.618 199.34C224.812 199.34 224.963 199.287 225.071 199.181C225.179 199.075 225.233 198.925 225.233 198.731C225.233 198.537 225.179 198.386 225.071 198.278C224.963 198.17 224.812 198.116 224.618 198.116H224.375V199.34H224.618ZM226.554 198.089V198.515H227.241V198.911H226.554V199.373H227.331V199.784H226.041V197.678H227.331V198.089H226.554ZM227.022 197.255L226.299 197.558V197.204L227.022 196.856V197.255ZM230.05 197.678V199.784H229.537V198.521L229.066 199.784H228.652L228.178 198.518V199.784H227.665V197.678H228.271L228.862 199.136L229.447 197.678H230.05ZM230.931 198.089V198.515H231.618V198.911H230.931V199.373H231.708V199.784H230.418V197.678H231.708V198.089H230.931ZM231.399 197.255L230.676 197.558V197.204L231.399 196.856V197.255ZM233.925 199.784H233.412L232.554 198.485V199.784H232.041V197.678H232.554L233.412 198.983V197.678H233.925V199.784ZM235.608 199.412H234.822L234.696 199.784H234.159L234.921 197.678H235.515L236.277 199.784H235.734L235.608 199.412ZM235.476 199.016L235.215 198.245L234.957 199.016H235.476ZM237.907 198.344C237.869 198.274 237.814 198.221 237.742 198.185C237.672 198.147 237.589 198.128 237.493 198.128C237.327 198.128 237.194 198.183 237.094 198.293C236.994 198.401 236.944 198.546 236.944 198.728C236.944 198.922 236.996 199.074 237.1 199.184C237.206 199.292 237.351 199.346 237.535 199.346C237.661 199.346 237.767 199.314 237.853 199.25C237.941 199.186 238.005 199.094 238.045 198.974H237.394V198.596H238.51V199.073C238.472 199.201 238.407 199.32 238.315 199.43C238.225 199.54 238.11 199.629 237.97 199.697C237.83 199.765 237.672 199.799 237.496 199.799C237.288 199.799 237.102 199.754 236.938 199.664C236.776 199.572 236.649 199.445 236.557 199.283C236.467 199.121 236.422 198.936 236.422 198.728C236.422 198.52 236.467 198.335 236.557 198.173C236.649 198.009 236.776 197.882 236.938 197.792C237.1 197.7 237.285 197.654 237.493 197.654C237.745 197.654 237.957 197.715 238.129 197.837C238.303 197.959 238.418 198.128 238.474 198.344H237.907ZM239.307 198.089V198.515H239.994V198.911H239.307V199.373H240.084V199.784H238.794V197.678H240.084V198.089H239.307ZM242.802 197.678V199.784H242.289V198.521L241.818 199.784H241.404L240.93 198.518V199.784H240.417V197.678H241.023L241.614 199.136L242.199 197.678H242.802ZM243.684 198.089V198.515H244.371V198.911H243.684V199.373H244.461V199.784H243.171V197.678H244.461V198.089H243.684ZM246.678 199.784H246.165L245.307 198.485V199.784H244.794V197.678H245.307L246.165 198.983V197.678H246.678V199.784ZM248.565 197.678V198.089H248.007V199.784H247.494V198.089H246.936V197.678H248.565Z" fill="white"/>
<path d="M278.4 218.036H276C276.029 217.958 276.08 217.891 276.147 217.842C276.213 217.793 276.293 217.764 276.376 217.76C276.748 217.7 277.392 217.484 277.536 217.008V216.96C277.648 216.452 278.48 217.116 278.48 217.116C278.48 217.116 278.48 217.136 278.48 217.172C278.516 217.356 278.564 217.952 278.4 218.036Z" fill="#657285"/>
<path d="M276.472 204.436C276.472 204.436 276.6 206.012 276.748 207.9C276.948 210.472 277.192 213.628 277.216 214.224C277.256 215.264 277.424 216.924 277.424 216.924C277.59 217.057 277.787 217.148 277.996 217.187C278.205 217.227 278.421 217.215 278.624 217.152C279.074 215.557 279.377 213.923 279.528 212.272V212.148C279.712 209.596 280.004 204.22 280.004 204.22L276.472 204.436Z" fill="#364154"/>
<path d="M276.472 204.436C276.472 204.436 276.6 206.012 276.748 207.9L279.508 212.272V212.148C279.692 209.596 279.984 204.22 279.984 204.22L276.472 204.436Z" fill="#131F2D"/>
<path d="M277.048 204.624C277.048 204.624 279.32 210.32 280.8 213C282.28 215.68 282.76 216.424 282.76 216.424C282.76 216.424 283.616 216.084 283.696 215.848C283.696 215.848 283.124 210.68 282.124 209.42C281.556 208.708 280.892 206.572 280.864 205.82C280.836 205.068 280.66 203.592 280.66 203.592L277.048 204.624Z" fill="#364154"/>
<path d="M280.04 195.844C280.04 195.844 278.5 196.596 277.616 196.316C277.784 196.117 277.987 195.951 278.216 195.828C278.184 195.648 278.16 195.492 278.148 195.36C278.126 195.201 278.112 195.041 278.108 194.88L278.704 194.404L279.264 193.952C279.24 194.306 279.297 194.661 279.432 194.989C279.566 195.317 279.774 195.609 280.04 195.844Z" fill="#8B6C42"/>
<path d="M280.848 203.888C280.848 203.984 280.652 204.092 280.564 204.136C279.944 204.431 279.279 204.621 278.596 204.7C277.885 204.718 277.174 204.686 276.468 204.604C276.434 204.604 276.401 204.591 276.376 204.568C276.352 204.568 276.336 203.544 276.352 202.28C276.352 202.228 276.352 202.176 276.352 202.124C276.352 201.632 276.376 201.112 276.4 200.592C276.418 199.638 276.513 198.687 276.684 197.748C276.846 197.153 277.182 196.619 277.648 196.216L277.956 195.944C278.277 196.014 278.613 195.973 278.908 195.828C279.264 195.652 279.652 195.456 279.708 195.504C280.172 195.848 280.48 196.632 280.648 197.62C280.748 198.24 280.795 198.868 280.788 199.496C280.788 199.74 280.788 199.992 280.788 200.244C280.731 201.31 280.747 202.38 280.836 203.444C280.836 203.628 280.848 203.8 280.848 203.888Z" fill="#F00020"/>
<path d="M280.824 203.428C273.372 203.428 279.448 197.872 279.448 197.872L280.648 197.604C280.748 198.224 280.795 198.852 280.788 199.48C280.788 199.724 280.788 199.976 280.788 200.228C280.727 201.294 280.739 202.363 280.824 203.428Z" fill="#91051C"/>
<path d="M271.656 203.392H276.288V198.76H271.656V203.392Z" fill="#B8C1C9"/>
<path d="M276.096 203.392H278.216V198.76H276.096V203.392Z" fill="#657285"/>
<path d="M275.6 201.144L275.324 201.056C275.301 200.971 275.259 200.892 275.2 200.826C275.142 200.76 275.069 200.708 274.988 200.674C274.907 200.64 274.819 200.625 274.731 200.63C274.643 200.636 274.557 200.661 274.48 200.704C274.48 200.704 274.216 200.844 274.332 201.008C274.448 201.172 274.428 201.088 274.588 201.328C274.644 201.436 274.735 201.522 274.847 201.57C274.958 201.618 275.083 201.626 275.2 201.592H275.428L275.6 201.144Z" fill="#8B6C42"/>
<path d="M280.04 195.84C280.529 196.73 280.776 197.733 280.756 198.749C280.737 199.764 280.451 200.757 279.928 201.628C279.368 202.596 275.128 201.676 275.128 201.676C275.128 201.676 274.96 201.376 275.404 201.06C275.404 201.06 278.224 200.584 278.56 200.504C278.896 200.424 278.66 197.704 279.004 196.904C279.2 196.429 279.571 196.048 280.04 195.84Z" fill="#F00020"/>
<path d="M279.276 194.44C279.026 194.875 278.624 195.202 278.148 195.36C278.125 195.201 278.112 195.04 278.108 194.88L278.704 194.404L279.276 194.44Z" fill="#AA7A4F"/>
<path d="M277.84 194.856C277.84 194.856 279.304 195.1 279.44 194.184C279.576 193.268 279.84 192.684 278.928 192.488C278.016 192.292 277.764 192.616 277.644 192.912C277.524 193.208 277.46 194.772 277.84 194.856Z" fill="#8B6C42"/>
<path d="M279.432 194.248C279.432 194.248 279.548 192.844 278.2 192.8C277.612 192.8 277.616 192.616 277.724 192.468C277.781 192.395 277.856 192.338 277.941 192.302C278.027 192.266 278.12 192.253 278.212 192.264C278.539 192.293 278.862 192.35 279.18 192.432C280.256 192.7 279.6 194.068 279.432 194.248Z" fill="#131F2D"/>
<path d="M283.712 216.04L283.64 215.948L282.84 216.4C282.84 216.556 282.84 216.736 282.84 216.892C282.852 216.997 282.852 217.103 282.84 217.208C282.84 217.288 282.736 217.632 282.484 217.72C282.232 217.808 282.18 218.04 282.664 218.036H282.916C283.063 218.035 283.205 217.985 283.321 217.896C283.437 217.806 283.521 217.682 283.56 217.54C283.598 217.395 283.664 217.259 283.756 217.14C283.892 217.014 284.003 216.863 284.084 216.696C284.136 216.436 283.712 216.04 283.712 216.04Z" fill="#657285"/>
<path d="M250.8 148.856H250.752L250.056 148.812C249.832 148.812 249.656 148.688 249.696 148.568C249.736 148.448 249.92 148.356 250.148 148.368L250.848 148.412C251.072 148.412 251.248 148.536 251.208 148.66C251.168 148.784 251.016 148.856 250.8 148.856Z" fill="#364154"/>
<path d="M174.364 177.704H174.308C174.084 177.704 173.928 177.576 173.956 177.452C174.016 177.204 174.084 176.948 174.156 176.688C174.192 176.564 174.404 176.48 174.624 176.5C174.844 176.52 175 176.632 174.968 176.756C174.892 177.012 174.828 177.268 174.768 177.512C174.74 177.624 174.564 177.704 174.364 177.704ZM174.8 176.2H174.728C174.504 176.176 174.356 176.06 174.396 175.94C174.48 175.688 174.568 175.436 174.66 175.18C174.708 175.06 174.924 174.984 175.144 175.008C175.364 175.032 175.508 175.148 175.464 175.268C175.372 175.52 175.284 175.772 175.204 176.02C175.164 176.112 174.992 176.2 174.8 176.2ZM175.356 174.692H175.268C175.048 174.664 174.908 174.548 174.956 174.428C175.056 174.18 175.168 173.924 175.28 173.676C175.332 173.556 175.552 173.484 175.772 173.512C175.992 173.54 176.128 173.66 176.076 173.78C175.964 174.028 175.856 174.276 175.756 174.524C175.708 174.583 175.645 174.628 175.575 174.656C175.504 174.683 175.427 174.691 175.352 174.68L175.356 174.692ZM176.024 173.204H175.92C175.7 173.172 175.568 173.052 175.628 172.932C175.748 172.684 175.876 172.436 176.004 172.188C176.066 172.119 176.146 172.069 176.235 172.042C176.324 172.015 176.418 172.013 176.508 172.036C176.728 172.068 176.852 172.192 176.792 172.312C176.664 172.555 176.54 172.799 176.42 173.044C176.371 173.1 176.308 173.143 176.239 173.169C176.169 173.194 176.094 173.202 176.02 173.192L176.024 173.204ZM176.796 171.728C176.756 171.732 176.716 171.732 176.676 171.728C176.46 171.692 176.34 171.568 176.404 171.448C176.544 171.204 176.688 170.956 176.836 170.716C176.901 170.648 176.984 170.6 177.074 170.574C177.165 170.549 177.261 170.548 177.352 170.572C177.568 170.612 177.684 170.736 177.612 170.852C177.468 171.092 177.324 171.34 177.188 171.58C177.138 171.631 177.077 171.671 177.01 171.694C176.943 171.718 176.871 171.725 176.8 171.716L176.796 171.728ZM177.676 170.272H177.54C177.328 170.232 177.216 170.104 177.292 169.988C177.448 169.748 177.608 169.504 177.772 169.264C177.842 169.199 177.927 169.153 178.019 169.13C178.111 169.107 178.208 169.108 178.3 169.132C178.512 169.176 178.62 169.304 178.54 169.42C178.376 169.656 178.216 169.896 178.064 170.136C178.012 170.185 177.95 170.221 177.882 170.243C177.814 170.264 177.742 170.27 177.672 170.26L177.676 170.272ZM178.664 168.84C178.613 168.844 178.562 168.844 178.512 168.84C178.3 168.792 178.2 168.664 178.28 168.548L178.8 167.8C178.872 167.737 178.959 167.693 179.053 167.672C179.146 167.652 179.244 167.654 179.336 167.68C179.548 167.728 179.644 167.86 179.556 167.972C179.376 168.204 179.2 168.444 179.028 168.676C178.981 168.726 178.923 168.765 178.86 168.791C178.797 168.817 178.728 168.83 178.66 168.828L178.664 168.84ZM179.756 167.424C179.7 167.43 179.644 167.43 179.588 167.424C179.38 167.372 179.288 167.24 179.38 167.128C179.572 166.892 179.78 166.66 179.968 166.428C180.044 166.367 180.133 166.326 180.229 166.307C180.324 166.288 180.423 166.292 180.516 166.32C180.72 166.372 180.808 166.508 180.712 166.616C180.516 166.844 180.312 167.08 180.128 167.308C180.075 167.348 180.014 167.377 179.949 167.392C179.885 167.408 179.818 167.411 179.752 167.4L179.756 167.424ZM180.956 166.04C180.895 166.04 180.835 166.032 180.776 166.016C180.572 165.964 180.492 165.828 180.592 165.716C180.8 165.488 181.02 165.256 181.236 165.032C181.314 164.973 181.404 164.934 181.5 164.918C181.596 164.901 181.695 164.907 181.788 164.936C181.988 164.996 182.068 165.128 181.96 165.24C181.748 165.46 181.532 165.688 181.324 165.916C181.272 165.958 181.212 165.99 181.147 166.009C181.083 166.029 181.015 166.035 180.948 166.028L180.956 166.04ZM182.264 164.684C182.198 164.684 182.131 164.675 182.068 164.656C181.868 164.596 181.796 164.46 181.908 164.352C182.136 164.128 182.372 163.904 182.608 163.684C182.688 163.627 182.781 163.59 182.878 163.576C182.976 163.562 183.075 163.572 183.168 163.604C183.364 163.664 183.428 163.8 183.316 163.908C183.084 164.124 182.852 164.348 182.624 164.568C182.519 164.648 182.387 164.685 182.256 164.672L182.264 164.684ZM183.684 163.36C183.611 163.361 183.538 163.351 183.468 163.328C183.276 163.264 183.216 163.128 183.336 163.02C183.584 162.804 183.836 162.584 184.092 162.368C184.175 162.315 184.269 162.282 184.366 162.27C184.464 162.259 184.563 162.271 184.656 162.304C184.848 162.372 184.9 162.508 184.78 162.612C184.528 162.82 184.276 163.04 184.032 163.256C183.927 163.327 183.802 163.359 183.676 163.348L183.684 163.36ZM185.212 162.076C185.133 162.077 185.054 162.063 184.98 162.036C184.796 161.968 184.748 161.828 184.872 161.728C185.14 161.516 185.412 161.3 185.672 161.096C185.757 161.044 185.853 161.013 185.952 161.004C186.051 160.995 186.151 161.009 186.244 161.044C186.428 161.116 186.472 161.256 186.34 161.356C186.072 161.56 185.8 161.756 185.54 161.976C185.439 162.041 185.32 162.072 185.2 162.064L185.212 162.076ZM186.852 160.832C186.767 160.832 186.683 160.817 186.604 160.788C186.424 160.712 186.388 160.572 186.524 160.472C186.808 160.268 187.1 160.072 187.392 159.864C187.479 159.815 187.576 159.787 187.676 159.781C187.775 159.774 187.875 159.79 187.968 159.828C188.144 159.904 188.172 160.044 188.032 160.14C187.744 160.34 187.456 160.54 187.18 160.744C187.078 160.802 186.961 160.828 186.844 160.82L186.852 160.832ZM188.6 159.632C188.509 159.633 188.419 159.616 188.336 159.58C188.164 159.5 188.14 159.36 188.288 159.268C188.588 159.072 188.896 158.868 189.208 158.68C189.297 158.634 189.395 158.609 189.496 158.605C189.596 158.602 189.696 158.621 189.788 158.66C189.956 158.74 189.972 158.884 189.824 158.976C189.516 159.164 189.212 159.376 188.916 159.552C188.816 159.604 188.704 159.627 188.592 159.62L188.6 159.632ZM190.456 158.484C190.361 158.485 190.266 158.464 190.18 158.424C190.012 158.34 190.004 158.2 190.156 158.108C190.476 157.92 190.804 157.732 191.132 157.548C191.223 157.505 191.322 157.483 191.422 157.483C191.522 157.483 191.621 157.505 191.712 157.548C191.872 157.636 191.876 157.776 191.712 157.864C191.388 158.044 191.064 158.228 190.752 158.416C190.657 158.46 190.552 158.479 190.448 158.472L190.456 158.484ZM192.42 157.388C192.318 157.39 192.218 157.366 192.128 157.32C191.968 157.232 191.972 157.088 192.128 157.004C192.464 156.824 192.812 156.644 193.156 156.472C193.246 156.43 193.344 156.408 193.444 156.408C193.543 156.408 193.642 156.43 193.732 156.472C193.888 156.564 193.876 156.704 193.712 156.788C193.372 156.96 193.032 157.136 192.7 157.312C192.606 157.356 192.504 157.378 192.4 157.376L192.42 157.388ZM194.484 156.348C194.376 156.349 194.271 156.323 194.176 156.272C194.028 156.18 194.044 156.036 194.216 155.956C194.568 155.788 194.932 155.62 195.292 155.456C195.384 155.416 195.483 155.398 195.583 155.403C195.683 155.408 195.78 155.436 195.868 155.484C196.016 155.58 195.992 155.72 195.816 155.8C195.46 155.96 195.104 156.124 194.756 156.292C194.667 156.326 194.571 156.341 194.476 156.336L194.484 156.348ZM196.648 155.368C196.534 155.371 196.422 155.342 196.324 155.284C196.184 155.188 196.216 155.048 196.396 154.972C196.764 154.812 197.144 154.656 197.52 154.5C197.613 154.464 197.712 154.45 197.811 154.458C197.91 154.467 198.006 154.497 198.092 154.548C198.228 154.644 198.188 154.784 198.008 154.86C197.636 155.008 197.264 155.164 196.9 155.32C196.817 155.35 196.728 155.362 196.64 155.356L196.648 155.368ZM198.9 154.452C198.782 154.456 198.666 154.424 198.568 154.36C198.436 154.26 198.48 154.12 198.664 154.048C199.064 153.9 199.464 153.756 199.832 153.612C199.925 153.578 200.025 153.566 200.123 153.577C200.222 153.589 200.317 153.622 200.4 153.676C200.528 153.776 200.476 153.916 200.288 153.984L199.136 154.412C199.057 154.437 198.974 154.446 198.892 154.44L198.9 154.452ZM201.24 153.604C201.115 153.609 200.993 153.573 200.892 153.5C200.772 153.396 200.832 153.26 201.02 153.192C201.42 153.056 201.82 152.924 202.22 152.792C202.313 152.76 202.412 152.751 202.509 152.764C202.606 152.777 202.699 152.813 202.78 152.868C202.896 152.972 202.832 153.112 202.636 153.172L201.436 153.572C201.369 153.589 201.301 153.596 201.232 153.592L201.24 153.604ZM203.64 152.804C203.511 152.809 203.385 152.768 203.284 152.688C203.172 152.58 203.244 152.444 203.44 152.384L204.684 152.016C204.778 151.986 204.877 151.98 204.974 151.997C205.07 152.013 205.162 152.053 205.24 152.112C205.344 152.22 205.268 152.352 205.068 152.412C204.668 152.528 204.244 152.652 203.84 152.776C203.778 152.795 203.713 152.808 203.648 152.812L203.64 152.804ZM206.128 152.088C205.994 152.097 205.862 152.052 205.76 151.964C205.66 151.856 205.76 151.72 205.944 151.668C206.344 151.552 206.792 151.44 207.224 151.332C207.316 151.304 207.414 151.299 207.509 151.318C207.604 151.337 207.693 151.379 207.768 151.44C207.86 151.552 207.768 151.684 207.568 151.736L206.308 152.064C206.252 152.082 206.194 152.093 206.136 152.096L206.128 152.088ZM208.676 151.444C208.607 151.448 208.538 151.438 208.474 151.415C208.409 151.391 208.35 151.355 208.3 151.308C208.212 151.196 208.3 151.064 208.512 151.016L209.816 150.716C209.908 150.69 210.006 150.688 210.1 150.709C210.193 150.731 210.28 150.776 210.352 150.84C210.436 150.952 210.352 151.084 210.128 151.128L208.84 151.424C208.789 151.439 208.737 151.448 208.684 151.452L208.676 151.444ZM211.28 150.868C211.207 150.875 211.133 150.866 211.064 150.841C210.994 150.816 210.932 150.776 210.88 150.724C210.8 150.608 210.908 150.48 211.12 150.436C211.556 150.344 212.004 150.256 212.448 150.168C212.54 150.144 212.636 150.144 212.728 150.168C212.819 150.192 212.903 150.238 212.972 150.304C213.048 150.42 212.936 150.548 212.72 150.592L211.412 150.852C211.371 150.863 211.33 150.871 211.288 150.876L211.28 150.868ZM213.932 150.356C213.858 150.363 213.784 150.353 213.714 150.327C213.645 150.3 213.582 150.258 213.532 150.204C213.464 150.084 213.58 149.96 213.796 149.92L215.144 149.688C215.235 149.665 215.33 149.667 215.42 149.693C215.51 149.719 215.591 149.768 215.656 149.836C215.72 149.956 215.6 150.08 215.384 150.116L214.052 150.344L213.932 150.356ZM216.62 149.912C216.545 149.921 216.468 149.911 216.398 149.882C216.328 149.854 216.267 149.807 216.22 149.748C216.156 149.632 216.284 149.508 216.504 149.472C216.952 149.404 217.412 149.336 217.868 149.276C217.958 149.254 218.052 149.257 218.141 149.285C218.229 149.313 218.308 149.366 218.368 149.436C218.424 149.552 218.292 149.676 218.072 149.704L216.724 149.904L216.62 149.912ZM219.344 149.532C219.268 149.54 219.191 149.528 219.121 149.498C219.051 149.468 218.99 149.421 218.944 149.36C218.892 149.24 219.032 149.12 219.252 149.092L220.632 148.92C220.852 148.896 221.068 148.972 221.116 149.092C221.164 149.212 221.024 149.332 220.8 149.356L219.436 149.524L219.344 149.532ZM222.092 149.208C221.9 149.208 221.728 149.136 221.692 149.028C221.656 148.92 221.792 148.792 222.016 148.768L223.408 148.628C223.628 148.628 223.84 148.688 223.88 148.812C223.92 148.936 223.768 149.048 223.548 149.068L222.172 149.204L222.092 149.208ZM224.864 148.948C224.664 148.948 224.488 148.868 224.464 148.76C224.44 148.652 224.58 148.524 224.804 148.504L226.204 148.396C226.428 148.396 226.636 148.464 226.664 148.588C226.692 148.712 226.54 148.82 226.312 148.836L224.928 148.944L224.864 148.948ZM227.664 148.744C227.46 148.744 227.284 148.66 227.264 148.548C227.244 148.436 227.396 148.312 227.624 148.3C228.088 148.268 228.56 148.24 229.028 148.216C229.252 148.216 229.452 148.292 229.476 148.416C229.5 148.54 229.332 148.648 229.108 148.66L227.716 148.74L227.664 148.744ZM248.724 148.744H248.684L247.288 148.676C247.06 148.676 246.888 148.556 246.912 148.432C246.936 148.308 247.132 148.22 247.356 148.232L248.764 148.3C248.988 148.3 249.164 148.424 249.132 148.544C249.1 148.664 248.924 148.736 248.716 148.736L248.724 148.744ZM245.924 148.608H245.892L244.496 148.556C244.268 148.556 244.096 148.444 244.096 148.32C244.096 148.196 244.304 148.104 244.528 148.112L245.94 148.164C246.164 148.164 246.34 148.28 246.316 148.404C246.292 148.528 246.124 148.6 245.912 148.6L245.924 148.608ZM230.468 148.608C230.256 148.608 230.068 148.52 230.068 148.404C230.068 148.288 230.216 148.172 230.444 148.164C230.904 148.14 231.38 148.124 231.852 148.104C232.076 148.104 232.252 148.192 232.288 148.312C232.324 148.432 232.132 148.544 231.888 148.552L230.492 148.608H230.468ZM243.116 148.516C242.652 148.516 242.18 148.492 241.716 148.48C241.488 148.48 241.316 148.372 241.316 148.252C241.316 148.132 241.516 148.032 241.74 148.036L243.152 148.068C243.376 148.068 243.552 148.18 243.552 148.304C243.552 148.428 243.32 148.508 243.104 148.508L243.116 148.516ZM233.272 148.516C233.056 148.516 232.872 148.42 232.872 148.304C232.872 148.188 233.036 148.076 233.272 148.068L234.684 148.036C234.908 148.036 235.084 148.128 235.108 148.252C235.132 148.376 234.94 148.476 234.708 148.484C234.244 148.484 233.776 148.484 233.312 148.516H233.272ZM240.304 148.468H238.904C238.68 148.468 238.504 148.368 238.504 148.244C238.504 148.12 238.688 148.024 238.904 148.024H240.316C240.544 148.024 240.716 148.128 240.716 148.252C240.716 148.376 240.512 148.452 240.292 148.452L240.304 148.468ZM236.084 148.468C235.86 148.468 235.684 148.372 235.684 148.252C235.684 148.132 235.856 148.028 236.084 148.024H237.496C237.724 148.024 237.896 148.12 237.896 148.244C237.896 148.368 237.712 148.468 237.496 148.468H236.096H236.084Z" fill="#364154"/>
<path d="M174.144 178.844H174.12C173.892 178.844 173.72 178.732 173.72 178.612C173.72 178.612 173.72 178.472 173.78 178.212C173.78 178.092 174 178 174.224 178.012C174.448 178.024 174.624 178.136 174.592 178.256C174.552 178.496 174.536 178.628 174.536 178.628C174.54 178.752 174.36 178.844 174.144 178.844Z" fill="#364154"/>
<path d="M127.488 242.252H99.7042C98.551 242.252 97.6162 243.187 97.6162 244.34C97.6162 245.493 98.551 246.428 99.7042 246.428H127.488C128.641 246.428 129.576 245.493 129.576 244.34C129.576 243.187 128.641 242.252 127.488 242.252Z" fill="#EFEFEF"/>
<path d="M129.016 138.1H92.7562C89.7098 138.1 87.2402 140.57 87.2402 143.616V189.028C87.2402 192.075 89.7098 194.544 92.7562 194.544H129.016C132.063 194.544 134.532 192.075 134.532 189.028V143.616C134.532 140.57 132.063 138.1 129.016 138.1Z" fill="#EFEFEF"/>
<path d="M102.988 134.344C101.842 134.421 100.773 134.946 100.011 135.806C99.2491 136.665 98.8558 137.789 98.9162 138.936C99.0202 141.336 103.556 147.528 103.556 147.528C103.556 147.528 107.556 140.9 107.436 138.488C107.42 137.923 107.292 137.366 107.059 136.851C106.826 136.335 106.493 135.871 106.079 135.486C105.665 135.1 105.179 134.801 104.648 134.605C104.118 134.409 103.553 134.32 102.988 134.344ZM103.264 140.744C102.968 140.767 102.67 140.731 102.389 140.637C102.107 140.543 101.846 140.394 101.623 140.199C101.399 140.003 101.217 139.765 101.087 139.498C100.957 139.231 100.881 138.941 100.864 138.644C100.849 138.043 101.071 137.46 101.482 137.021C101.892 136.581 102.459 136.321 103.06 136.296C103.356 136.274 103.654 136.312 103.936 136.406C104.217 136.501 104.477 136.65 104.701 136.846C104.924 137.042 105.106 137.28 105.237 137.547C105.367 137.814 105.443 138.104 105.46 138.4C105.474 139 105.252 139.582 104.841 140.02C104.43 140.457 103.864 140.716 103.264 140.74V140.744Z" fill="#F00020"/>
<path d="M94.68 166.504C94.1457 166.552 93.6516 166.807 93.3038 167.216C92.956 167.624 92.7823 168.153 92.82 168.688C92.872 169.836 94.952 172.784 94.952 172.784C94.952 172.784 96.772 169.632 96.72 168.48C96.7169 168.216 96.6616 167.955 96.5571 167.712C96.4527 167.47 96.3013 167.251 96.1117 167.067C95.922 166.883 95.6979 166.739 95.4522 166.642C95.2064 166.546 94.944 166.499 94.68 166.504ZM94.812 169.552C94.6743 169.558 94.5366 169.537 94.4069 169.49C94.2773 169.443 94.1582 169.371 94.0567 169.278C93.9552 169.184 93.8731 169.072 93.8154 168.946C93.7576 168.821 93.7252 168.686 93.72 168.548C93.7069 168.268 93.8044 167.994 93.9915 167.785C94.1786 167.576 94.4402 167.449 94.72 167.432C94.8581 167.425 94.9963 167.445 95.1264 167.492C95.2565 167.539 95.376 167.611 95.4779 167.705C95.5799 167.798 95.6623 167.911 95.7203 168.036C95.7784 168.162 95.8109 168.298 95.816 168.436C95.828 168.718 95.728 168.994 95.5377 169.203C95.3474 169.412 95.0823 169.537 94.8 169.552H94.812Z" fill="#F00020"/>
<path d="M129.044 152.92C128.509 152.966 128.013 153.221 127.665 153.63C127.317 154.039 127.144 154.568 127.184 155.104C127.232 156.252 129.316 159.2 129.316 159.2C129.316 159.2 131.132 156.044 131.084 154.896C131.081 154.632 131.025 154.371 130.921 154.129C130.817 153.886 130.665 153.667 130.475 153.483C130.286 153.299 130.062 153.155 129.816 153.058C129.57 152.962 129.308 152.915 129.044 152.92ZM129.176 155.964C129.038 155.971 128.9 155.951 128.77 155.905C128.64 155.859 128.52 155.787 128.418 155.694C128.316 155.601 128.234 155.488 128.176 155.363C128.118 155.237 128.085 155.102 128.08 154.964C128.067 154.683 128.165 154.409 128.353 154.2C128.541 153.991 128.803 153.864 129.084 153.848C129.222 153.841 129.36 153.861 129.49 153.908C129.619 153.955 129.739 154.027 129.84 154.121C129.942 154.214 130.024 154.327 130.082 154.453C130.139 154.578 130.171 154.714 130.176 154.852C130.189 155.131 130.091 155.405 129.904 155.613C129.717 155.821 129.455 155.947 129.176 155.964Z" fill="#F00020"/>
<path d="M110.2 154.656C108.736 154.736 107.276 154.776 105.8 154.808C104.324 154.84 102.876 154.852 101.4 154.856C99.9238 154.86 98.4758 154.856 96.9998 154.808L94.8078 154.752C94.0758 154.72 93.3438 154.7 92.6118 154.656C93.3438 154.608 94.0758 154.592 94.8078 154.556L96.9998 154.5C98.4638 154.464 99.9238 154.46 101.4 154.456C102.876 154.452 104.324 154.456 105.8 154.504C107.276 154.552 108.736 154.572 110.2 154.656Z" fill="#F00020"/>
<path d="M100.172 157.444C97.6723 157.711 95.1514 157.711 92.6519 157.444C95.1514 157.177 97.6723 157.177 100.172 157.444Z" fill="#F00020"/>
<path d="M135.488 198.24C136.218 198.258 136.926 197.986 137.456 197.483C137.985 196.979 138.293 196.286 138.312 195.556V179.464C138.293 178.734 137.985 178.041 137.456 177.538C136.926 177.034 136.218 176.762 135.488 176.78H105.088C104.543 176.774 104.007 176.925 103.546 177.216C103.085 177.507 102.717 177.925 102.488 178.42C102.34 178.748 102.264 179.104 102.264 179.464V195.556C102.283 196.286 102.591 196.979 103.121 197.483C103.65 197.986 104.358 198.258 105.088 198.24" fill="#B8C1C9"/>
<path d="M102.664 178.26L93.9598 190.776C93.6671 191.182 93.509 191.671 93.5078 192.172V195.744C93.5256 196.423 93.8124 197.068 94.3052 197.536C94.798 198.004 95.4564 198.257 96.1358 198.24H105.2" fill="#B8C1C9"/>
<path d="M94.3999 190.164C94.5627 190.29 94.6802 190.465 94.735 190.663C94.7898 190.862 94.7789 191.072 94.7039 191.264L94.1079 192.764C94.0565 192.894 93.9778 193.012 93.8771 193.109C93.7763 193.207 93.6559 193.281 93.5239 193.328V192.172C93.5252 191.671 93.6832 191.183 93.9759 190.776L94.3999 190.164Z" fill="white"/>
<path d="M93.8962 194.108C94.0278 194.108 94.1542 194.159 94.2484 194.251C94.3426 194.343 94.397 194.468 94.4002 194.6V195.96C94.3986 196.026 94.3839 196.092 94.3569 196.153C94.3299 196.214 94.2911 196.269 94.2427 196.314C94.1944 196.36 94.1374 196.396 94.0752 196.419C94.013 196.443 93.9467 196.454 93.8802 196.452H93.6002C93.5297 196.222 93.4933 195.984 93.4922 195.744V194.108H93.8962Z" fill="#657285"/>
<path d="M103.032 180.676L98.4242 187C98.3651 187.085 98.331 187.185 98.3259 187.289C98.3207 187.393 98.3447 187.496 98.3951 187.586C98.4454 187.677 98.5202 187.752 98.6108 187.802C98.7015 187.853 98.8045 187.877 98.9082 187.872H106.752C106.827 187.874 106.902 187.861 106.972 187.835C107.043 187.808 107.107 187.767 107.161 187.716C107.216 187.664 107.26 187.602 107.291 187.534C107.321 187.465 107.338 187.391 107.34 187.316V180.824C107.336 180.678 107.276 180.539 107.173 180.435C107.069 180.332 106.93 180.272 106.784 180.268L104.164 180.144C103.946 180.132 103.729 180.175 103.531 180.268C103.334 180.361 103.162 180.501 103.032 180.676Z" fill="white"/>
<path d="M126.624 201.936C128.99 201.936 130.908 200.114 130.908 197.868C130.908 195.621 128.99 193.8 126.624 193.8C124.258 193.8 122.34 195.621 122.34 197.868C122.34 200.114 124.258 201.936 126.624 201.936Z" fill="#002042"/>
<path d="M105.196 201.936C107.562 201.936 109.48 200.114 109.48 197.868C109.48 195.621 107.562 193.8 105.196 193.8C102.83 193.8 100.912 195.621 100.912 197.868C100.912 200.114 102.83 201.936 105.196 201.936Z" fill="#002042"/>
<path d="M124.98 197.868C124.962 198.197 125.044 198.523 125.213 198.805C125.383 199.086 125.634 199.311 125.932 199.449C126.231 199.586 126.564 199.632 126.889 199.578C127.213 199.525 127.514 199.375 127.753 199.149C127.992 198.922 128.157 198.629 128.227 198.308C128.298 197.987 128.27 197.652 128.148 197.346C128.026 197.041 127.815 196.779 127.543 196.594C127.27 196.41 126.949 196.312 126.62 196.312C126.196 196.301 125.786 196.459 125.478 196.751C125.171 197.043 124.991 197.444 124.98 197.868Z" fill="#657285"/>
<path d="M103.628 197.868C103.61 198.197 103.692 198.523 103.861 198.805C104.031 199.086 104.282 199.311 104.58 199.449C104.879 199.586 105.212 199.632 105.537 199.578C105.861 199.525 106.162 199.375 106.401 199.149C106.64 198.922 106.805 198.629 106.875 198.308C106.946 197.987 106.918 197.652 106.796 197.346C106.674 197.041 106.463 196.779 106.191 196.594C105.918 196.41 105.597 196.312 105.268 196.312C104.844 196.301 104.433 196.459 104.126 196.751C103.819 197.043 103.639 197.444 103.628 197.868Z" fill="#657285"/>
<path d="M126.572 134.16C125.423 134.902 124.519 135.967 123.975 137.223C123.432 138.478 123.273 139.866 123.518 141.212C123.763 142.558 124.402 143.801 125.354 144.783C126.306 145.766 127.528 146.444 128.865 146.732C130.202 147.02 131.595 146.905 132.867 146.402C134.139 145.899 135.233 145.029 136.011 143.904C136.789 142.779 137.215 141.448 137.237 140.08C137.258 138.713 136.874 137.369 136.132 136.22C135.137 134.679 133.571 133.597 131.779 133.21C129.986 132.824 128.113 133.166 126.572 134.16ZM133.62 145.08C132.609 145.733 131.427 146.072 130.223 146.053C129.019 146.034 127.848 145.659 126.858 144.974C125.868 144.289 125.103 143.326 124.66 142.206C124.218 141.087 124.117 139.861 124.372 138.684C124.626 137.508 125.224 136.433 126.089 135.596C126.955 134.759 128.049 134.198 129.234 133.983C130.418 133.769 131.64 133.91 132.744 134.39C133.848 134.87 134.785 135.667 135.436 136.68C136.308 138.035 136.607 139.681 136.266 141.256C135.926 142.831 134.974 144.206 133.62 145.08Z" fill="#F00020"/>
<path d="M138.672 152.496C138.605 152.54 138.531 152.57 138.453 152.584C138.374 152.599 138.294 152.598 138.216 152.581C138.138 152.564 138.065 152.532 137.999 152.487C137.934 152.441 137.878 152.383 137.836 152.316L133.676 145.872C133.589 145.737 133.56 145.572 133.594 145.415C133.627 145.258 133.722 145.12 133.856 145.032C133.923 144.989 133.998 144.96 134.077 144.946C134.155 144.931 134.236 144.933 134.314 144.95C134.392 144.967 134.466 144.999 134.531 145.045C134.597 145.091 134.653 145.149 134.696 145.216L138.856 151.66C138.899 151.727 138.928 151.802 138.942 151.88C138.956 151.958 138.955 152.039 138.937 152.116C138.92 152.194 138.888 152.268 138.843 152.333C138.797 152.398 138.739 152.453 138.672 152.496Z" fill="#F00020"/>
<path d="M101.572 143.076H102.136" stroke="#F00020" stroke-miterlimit="10" stroke-linecap="round"/>
<path d="M103.204 143.072L115.448 143.032" stroke="#F00020" stroke-miterlimit="10" stroke-linecap="round" stroke-dasharray="2.66 2.66"/>
<path d="M115.98 143.032L116.544 143.028L116.556 143.596" stroke="#F00020" stroke-miterlimit="10" stroke-linecap="round"/>
<path d="M116.572 144.744L116.752 155.664" stroke="#F00020" stroke-miterlimit="10" stroke-linecap="round" stroke-dasharray="2.87 2.87"/>
<path d="M116.764 156.236L116.772 156.804H117.34" stroke="#F00020" stroke-miterlimit="10" stroke-linecap="round"/>
<path d="M118.388 156.804H130.428" stroke="#F00020" stroke-miterlimit="10" stroke-linecap="round" stroke-dasharray="2.62 2.62"/>
<path d="M130.948 156.804H131.516L131.5 157.372" stroke="#F00020" stroke-miterlimit="10" stroke-linecap="round"/>
<path d="M131.472 158.46L131.316 164.448" stroke="#F00020" stroke-miterlimit="10" stroke-linecap="round" stroke-dasharray="2.72 2.72"/>
<path d="M131.3 164.992L131.288 165.56H130.72" stroke="#F00020" stroke-miterlimit="10" stroke-linecap="round"/>
<path d="M129.604 165.56H115.872L98.9761 165.128" stroke="#F00020" stroke-miterlimit="10" stroke-linecap="round" stroke-dasharray="2.78 2.78"/>
<path d="M98.42 165.112L97.8521 165.096V165.664" stroke="#F00020" stroke-miterlimit="10" stroke-linecap="round"/>
<path d="M97.8521 166.944V171.416" stroke="#F00020" stroke-miterlimit="10" stroke-linecap="round" stroke-dasharray="3.2 3.2"/>
<path d="M97.8522 172.056V172.624L97.2842 172.628" stroke="#F00020" stroke-miterlimit="10" stroke-linecap="round"/>
<path d="M96.2279 172.64L92.5239 172.676" stroke="#F00020" stroke-miterlimit="10" stroke-linecap="round" stroke-dasharray="2.65 2.65"/>
<path d="M91.9958 172.684L91.4278 172.688L91.4238 173.256" stroke="#F00020" stroke-miterlimit="10" stroke-linecap="round"/>
<path d="M91.4159 174.336L91.3599 182.424" stroke="#F00020" stroke-miterlimit="10" stroke-linecap="round" stroke-dasharray="2.7 2.7"/>
<path d="M91.3561 182.96L91.3521 183.528L91.92 183.512" stroke="#F00020" stroke-miterlimit="10" stroke-linecap="round"/>
<path d="M92.7959 183.488L95.8719 183.404" stroke="#F00020" stroke-miterlimit="10" stroke-linecap="round" stroke-dasharray="2.2 2.2"/>
<path d="M96.3081 183.392L96.8761 183.38" stroke="#F00020" stroke-miterlimit="10" stroke-linecap="round"/>
</svg>
