<svg width="352" height="331" viewBox="0 0 352 331" fill="none" xmlns="http://www.w3.org/2000/svg">
<path d="M0 24C0 10.7452 10.7452 0 24 0H328C341.255 0 352 10.7452 352 24V290.114C352 302.89 341.991 313.427 329.232 314.083L25.2316 329.703C11.5111 330.409 0 319.474 0 305.735V24Z" fill="#F0F0F0"/>
<path fill-rule="evenodd" clip-rule="evenodd" d="M141.176 277.968C137.295 277.968 133.5 276.817 130.273 274.661C127.046 272.505 124.531 269.44 123.046 265.854C121.56 262.268 121.172 258.322 121.929 254.516C122.686 250.709 124.555 247.212 127.3 244.468C130.044 241.723 133.541 239.854 137.347 239.097C141.154 238.34 145.1 238.729 148.686 240.214C152.271 241.699 155.336 244.215 157.493 247.442C159.649 250.669 160.8 254.463 160.8 258.344C160.8 263.549 158.732 268.54 155.052 272.22C151.372 275.901 146.38 277.968 141.176 277.968Z" fill="white"/>
<path fill-rule="evenodd" clip-rule="evenodd" d="M101.488 237.352C100.353 237.356 99.2431 237.023 98.2979 236.396C97.3526 235.768 96.6148 234.875 96.1779 233.828C95.741 232.781 95.6246 231.627 95.8436 230.514C96.0625 229.401 96.6068 228.378 97.4076 227.574C98.2085 226.771 99.2298 226.223 100.342 226C101.455 225.777 102.608 225.889 103.657 226.323C104.705 226.756 105.602 227.491 106.232 228.434C106.863 229.377 107.2 230.486 107.2 231.62C107.201 233.137 106.6 234.593 105.529 235.667C104.458 236.742 103.005 237.348 101.488 237.352Z" fill="white"/>
<path fill-rule="evenodd" clip-rule="evenodd" d="M195.436 265.976C194.681 265.976 193.944 265.752 193.316 265.333C192.689 264.913 192.199 264.317 191.911 263.62C191.622 262.923 191.546 262.156 191.693 261.415C191.841 260.675 192.204 259.995 192.738 259.461C193.271 258.928 193.951 258.564 194.692 258.417C195.432 258.27 196.199 258.345 196.896 258.634C197.594 258.923 198.19 259.412 198.609 260.04C199.028 260.667 199.252 261.405 199.252 262.16C199.252 263.172 198.85 264.142 198.134 264.858C197.419 265.574 196.448 265.976 195.436 265.976Z" fill="white"/>
<path fill-rule="evenodd" clip-rule="evenodd" d="M248.256 85.7521C247.501 85.7513 246.764 85.5269 246.137 85.1071C245.51 84.6873 245.021 84.091 244.733 83.3937C244.445 82.6963 244.37 81.9292 244.518 81.1892C244.665 80.4492 245.029 79.7697 245.563 79.2364C246.097 78.7031 246.777 78.3401 247.517 78.1931C248.257 78.0462 249.024 78.122 249.721 78.411C250.418 78.6999 251.014 79.189 251.433 79.8165C251.852 80.4439 252.076 81.1816 252.076 81.9361C252.076 82.4376 251.977 82.9341 251.785 83.3974C251.593 83.8606 251.312 84.2814 250.957 84.6358C250.602 84.9902 250.181 85.2713 249.717 85.4628C249.254 85.6543 248.757 85.7526 248.256 85.7521Z" fill="white"/>
<path fill-rule="evenodd" clip-rule="evenodd" d="M231.164 120.432H239.712V119.688C239.712 118.482 239.233 117.325 238.38 116.472C237.527 115.619 236.37 115.14 235.164 115.14H210.632C210.035 115.14 209.444 115.258 208.892 115.486C208.341 115.715 207.839 116.05 207.417 116.472C206.995 116.895 206.661 117.396 206.433 117.948C206.205 118.5 206.087 119.091 206.088 119.688V192.2H225.152V126.444C225.15 125.654 225.305 124.872 225.606 124.142C225.908 123.411 226.351 122.748 226.909 122.189C227.468 121.631 228.131 121.188 228.861 120.887C229.591 120.585 230.374 120.431 231.164 120.432Z" fill="#DDDDDD"/>
<path fill-rule="evenodd" clip-rule="evenodd" d="M180.276 192.2H201.128V129.468H180.276V192.2Z" fill="#E2E2E2"/>
<path fill-rule="evenodd" clip-rule="evenodd" d="M175.76 192.2H133.316V85.4001C133.315 84.8524 133.44 84.3118 133.679 83.8194C133.919 83.327 134.268 82.8959 134.7 82.5587C135.132 82.2216 135.634 81.9874 136.17 81.874C136.706 81.7605 137.261 81.7708 137.792 81.9041L173.028 90.7041C173.808 90.898 174.501 91.3476 174.996 91.9812C175.492 92.6148 175.76 93.396 175.76 94.2001V192.2Z" fill="#E2E2E2"/>
<path fill-rule="evenodd" clip-rule="evenodd" d="M114.5 192.2V155.284C114.5 153.693 115.132 152.167 116.257 151.042C117.383 149.916 118.909 149.284 120.5 149.284H127.3V192.2H114.5Z" fill="#DDDDDD"/>
<path opacity="0.5" fill-rule="evenodd" clip-rule="evenodd" d="M221.392 185.172C220.968 185.172 220.561 185.004 220.261 184.704C219.961 184.404 219.792 183.997 219.792 183.572V127.544C219.792 127.12 219.961 126.713 220.261 126.413C220.561 126.113 220.968 125.944 221.392 125.944C221.816 125.944 222.223 126.113 222.523 126.413C222.823 126.713 222.992 127.12 222.992 127.544V183.58C222.99 184.003 222.82 184.408 222.521 184.707C222.221 185.005 221.815 185.172 221.392 185.172Z" fill="white"/>
<path opacity="0.5" fill-rule="evenodd" clip-rule="evenodd" d="M212.56 185.172C212.136 185.172 211.729 185.004 211.429 184.704C211.129 184.404 210.96 183.997 210.96 183.572V127.544C210.96 127.12 211.129 126.713 211.429 126.413C211.729 126.113 212.136 125.944 212.56 125.944C212.984 125.944 213.391 126.113 213.691 126.413C213.991 126.713 214.16 127.12 214.16 127.544V183.58C214.158 184.003 213.988 184.408 213.689 184.707C213.389 185.005 212.983 185.172 212.56 185.172Z" fill="white"/>
<path opacity="0.5" fill-rule="evenodd" clip-rule="evenodd" d="M167.712 106.708H142.58C141.937 106.682 141.329 106.409 140.883 105.945C140.437 105.48 140.188 104.862 140.188 104.218C140.188 103.574 140.437 102.956 140.883 102.492C141.329 102.027 141.937 101.754 142.58 101.728H167.712C168.048 101.715 168.382 101.769 168.696 101.888C169.01 102.007 169.296 102.188 169.538 102.421C169.781 102.654 169.973 102.933 170.105 103.241C170.236 103.55 170.304 103.882 170.304 104.218C170.304 104.554 170.236 104.886 170.105 105.195C169.973 105.504 169.781 105.783 169.538 106.015C169.296 106.248 169.01 106.429 168.696 106.548C168.382 106.667 168.048 106.722 167.712 106.708Z" fill="white"/>
<path opacity="0.5" fill-rule="evenodd" clip-rule="evenodd" d="M167.712 117.632H142.58C141.919 117.632 141.285 117.369 140.818 116.902C140.35 116.435 140.088 115.801 140.088 115.14C140.088 114.479 140.35 113.845 140.818 113.378C141.285 112.911 141.919 112.648 142.58 112.648H167.712C168.039 112.648 168.363 112.712 168.666 112.838C168.968 112.963 169.243 113.146 169.474 113.378C169.705 113.609 169.889 113.884 170.014 114.186C170.139 114.489 170.204 114.813 170.204 115.14C170.204 115.467 170.139 115.791 170.014 116.094C169.889 116.396 169.705 116.671 169.474 116.902C169.243 117.133 168.968 117.317 168.666 117.442C168.363 117.567 168.039 117.632 167.712 117.632Z" fill="white"/>
<path opacity="0.5" fill-rule="evenodd" clip-rule="evenodd" d="M167.712 128.556H142.58C141.919 128.556 141.285 128.294 140.818 127.826C140.35 127.359 140.088 126.725 140.088 126.064C140.088 125.403 140.35 124.77 140.818 124.302C141.285 123.835 141.919 123.572 142.58 123.572H167.712C168.373 123.572 169.007 123.835 169.474 124.302C169.941 124.77 170.204 125.403 170.204 126.064C170.204 126.725 169.941 127.359 169.474 127.826C169.007 128.294 168.373 128.556 167.712 128.556Z" fill="white"/>
<path opacity="0.5" fill-rule="evenodd" clip-rule="evenodd" d="M167.712 139.48H142.58C141.919 139.48 141.285 139.218 140.818 138.75C140.35 138.283 140.088 137.649 140.088 136.988C140.088 136.327 140.35 135.693 140.818 135.226C141.285 134.759 141.919 134.496 142.58 134.496H167.712C168.373 134.496 169.007 134.759 169.474 135.226C169.941 135.693 170.204 136.327 170.204 136.988C170.204 137.649 169.941 138.283 169.474 138.75C169.007 139.218 168.373 139.48 167.712 139.48Z" fill="white"/>
<path fill-rule="evenodd" clip-rule="evenodd" d="M167.712 150.4H142.58C141.919 150.4 141.285 150.137 140.818 149.67C140.35 149.203 140.088 148.569 140.088 147.908C140.088 147.247 140.35 146.613 140.818 146.146C141.285 145.679 141.919 145.416 142.58 145.416H167.712C168.039 145.416 168.363 145.48 168.666 145.606C168.968 145.731 169.243 145.914 169.474 146.146C169.705 146.377 169.889 146.652 170.014 146.954C170.139 147.257 170.204 147.581 170.204 147.908C170.204 148.235 170.139 148.559 170.014 148.862C169.889 149.164 169.705 149.439 169.474 149.67C169.243 149.902 168.968 150.085 168.666 150.21C168.363 150.336 168.039 150.4 167.712 150.4Z" fill="#C1CAE7"/>
<path fill-rule="evenodd" clip-rule="evenodd" d="M167.712 161.324H142.58C141.919 161.324 141.285 161.062 140.818 160.594C140.35 160.127 140.088 159.493 140.088 158.832C140.088 158.171 140.35 157.538 140.818 157.07C141.285 156.603 141.919 156.34 142.58 156.34H167.712C168.373 156.34 169.007 156.603 169.474 157.07C169.941 157.538 170.204 158.171 170.204 158.832C170.204 159.493 169.941 160.127 169.474 160.594C169.007 161.062 168.373 161.324 167.712 161.324Z" fill="#C1CAE7"/>
<path fill-rule="evenodd" clip-rule="evenodd" d="M167.712 172.244H142.58C141.937 172.218 141.329 171.945 140.883 171.481C140.437 171.017 140.188 170.398 140.188 169.754C140.188 169.111 140.437 168.492 140.883 168.028C141.329 167.564 141.937 167.29 142.58 167.264H167.712C168.048 167.251 168.382 167.305 168.696 167.424C169.01 167.543 169.296 167.725 169.538 167.957C169.781 168.19 169.973 168.469 170.105 168.778C170.236 169.086 170.304 169.419 170.304 169.754C170.304 170.09 170.236 170.422 170.105 170.731C169.973 171.04 169.781 171.319 169.538 171.551C169.296 171.784 169.01 171.965 168.696 172.084C168.382 172.203 168.048 172.258 167.712 172.244Z" fill="#C1CAE7"/>
<path fill-rule="evenodd" clip-rule="evenodd" d="M167.712 183.168H142.58C141.919 183.168 141.285 182.906 140.818 182.438C140.35 181.971 140.088 181.337 140.088 180.676C140.088 180.015 140.35 179.381 140.818 178.914C141.285 178.447 141.919 178.184 142.58 178.184H167.712C168.373 178.184 169.007 178.447 169.474 178.914C169.941 179.381 170.204 180.015 170.204 180.676C170.204 181.337 169.941 181.971 169.474 182.438C169.007 182.906 168.373 183.168 167.712 183.168Z" fill="#C1CAE7"/>
<path fill-rule="evenodd" clip-rule="evenodd" d="M104.708 192.2H71.084V125.868C71.0835 125.154 71.2237 124.447 71.4967 123.787C71.7697 123.127 72.1701 122.528 72.675 122.023C73.1799 121.518 73.7793 121.118 74.4391 120.845C75.0989 120.572 75.806 120.432 76.52 120.432H99.272C99.986 120.432 100.693 120.572 101.353 120.845C102.013 121.118 102.612 121.518 103.117 122.023C103.622 122.528 104.022 123.127 104.295 123.787C104.568 124.447 104.709 125.154 104.708 125.868V192.2Z" fill="#DDDDDD"/>
<path opacity="0.5" fill-rule="evenodd" clip-rule="evenodd" d="M98.344 134.732H77.452C77.1738 134.733 76.8982 134.678 76.6411 134.572C76.3839 134.466 76.1501 134.31 75.9532 134.114C75.7563 133.917 75.6001 133.684 75.4935 133.427C75.3869 133.17 75.332 132.894 75.332 132.616V132.536C75.332 132.258 75.3869 131.982 75.4934 131.725C75.5999 131.468 75.7561 131.234 75.953 131.037C76.1498 130.84 76.3835 130.684 76.6407 130.577C76.898 130.471 77.1736 130.416 77.452 130.416H98.344C98.6222 130.416 98.8977 130.471 99.1547 130.577C99.4117 130.684 99.6451 130.84 99.8417 131.037C100.038 131.234 100.194 131.468 100.3 131.725C100.406 131.982 100.461 132.258 100.46 132.536V132.616C100.46 133.177 100.237 133.715 99.8403 134.112C99.4434 134.509 98.9052 134.732 98.344 134.732Z" fill="white"/>
<path opacity="0.5" fill-rule="evenodd" clip-rule="evenodd" d="M98.344 144.2H77.452C77.1736 144.2 76.898 144.145 76.6407 144.039C76.3835 143.932 76.1498 143.776 75.953 143.579C75.7561 143.382 75.5999 143.148 75.4934 142.891C75.3869 142.634 75.332 142.358 75.332 142.08V142C75.332 141.721 75.3869 141.446 75.4934 141.189C75.5999 140.931 75.7561 140.698 75.953 140.501C76.1498 140.304 76.3835 140.148 76.6407 140.041C76.898 139.935 77.1736 139.88 77.452 139.88H98.344C98.6222 139.88 98.8977 139.935 99.1547 140.041C99.4117 140.148 99.6451 140.304 99.8417 140.501C100.038 140.698 100.194 140.932 100.3 141.189C100.406 141.446 100.461 141.722 100.46 142V142.08C100.461 142.358 100.406 142.634 100.3 142.891C100.194 143.148 100.038 143.382 99.8417 143.579C99.6451 143.776 99.4117 143.932 99.1547 144.038C98.8977 144.145 98.6222 144.2 98.344 144.2Z" fill="white"/>
<path opacity="0.5" fill-rule="evenodd" clip-rule="evenodd" d="M98.344 153.664H77.452C77.1736 153.664 76.898 153.609 76.6407 153.503C76.3835 153.396 76.1498 153.24 75.953 153.043C75.7561 152.846 75.5999 152.613 75.4934 152.356C75.3869 152.098 75.332 151.823 75.332 151.544V151.464C75.332 151.186 75.3869 150.91 75.4934 150.653C75.5999 150.396 75.7561 150.162 75.953 149.965C76.1498 149.768 76.3835 149.612 76.6407 149.506C76.898 149.399 77.1736 149.344 77.452 149.344H98.344C98.9056 149.345 99.4438 149.569 99.8405 149.967C100.237 150.364 100.46 150.903 100.46 151.464V151.544C100.461 151.822 100.406 152.098 100.3 152.355C100.194 152.612 100.038 152.846 99.8417 153.043C99.6451 153.24 99.4117 153.396 99.1547 153.503C98.8977 153.609 98.6222 153.664 98.344 153.664Z" fill="white"/>
<path opacity="0.5" fill-rule="evenodd" clip-rule="evenodd" d="M98.344 163.128H77.452C77.1738 163.129 76.8982 163.074 76.6411 162.968C76.3839 162.862 76.1501 162.706 75.9532 162.51C75.7563 162.313 75.6001 162.08 75.4935 161.823C75.3869 161.566 75.332 161.29 75.332 161.012V160.932C75.332 160.654 75.3869 160.378 75.4934 160.121C75.5999 159.864 75.7561 159.63 75.953 159.433C76.1498 159.236 76.3835 159.08 76.6407 158.973C76.898 158.867 77.1736 158.812 77.452 158.812H98.344C98.6222 158.812 98.8977 158.867 99.1547 158.973C99.4117 159.08 99.6451 159.236 99.8417 159.433C100.038 159.63 100.194 159.864 100.3 160.121C100.406 160.378 100.461 160.654 100.46 160.932V161.012C100.46 161.573 100.237 162.111 99.8403 162.508C99.4434 162.905 98.9052 163.128 98.344 163.128Z" fill="white"/>
<path opacity="0.5" fill-rule="evenodd" clip-rule="evenodd" d="M98.344 172.6H77.452C77.1736 172.6 76.898 172.545 76.6407 172.439C76.3835 172.332 76.1498 172.176 75.953 171.979C75.7561 171.782 75.5999 171.549 75.4934 171.292C75.3869 171.034 75.332 170.759 75.332 170.48V170.4C75.332 170.122 75.3869 169.846 75.4934 169.589C75.5999 169.332 75.7561 169.098 75.953 168.901C76.1498 168.704 76.3835 168.548 76.6407 168.442C76.898 168.335 77.1736 168.28 77.452 168.28H98.344C98.6222 168.28 98.8977 168.335 99.1547 168.442C99.4117 168.548 99.6451 168.705 99.8417 168.901C100.038 169.098 100.194 169.332 100.3 169.589C100.406 169.846 100.461 170.122 100.46 170.4V170.48C100.46 171.042 100.237 171.58 99.8405 171.978C99.4438 172.375 98.9056 172.599 98.344 172.6Z" fill="white"/>
<path opacity="0.5" fill-rule="evenodd" clip-rule="evenodd" d="M98.344 182.06H77.452C77.1736 182.06 76.898 182.005 76.6407 181.899C76.3835 181.792 76.1498 181.636 75.953 181.439C75.7561 181.242 75.5999 181.009 75.4934 180.752C75.3869 180.494 75.332 180.219 75.332 179.94V179.86C75.332 179.582 75.3869 179.306 75.4934 179.049C75.5999 178.792 75.7561 178.558 75.953 178.361C76.1498 178.164 76.3835 178.008 76.6407 177.902C76.898 177.795 77.1736 177.74 77.452 177.74H98.344C98.9056 177.741 99.4438 177.965 99.8405 178.363C100.237 178.76 100.46 179.299 100.46 179.86V179.94C100.461 180.218 100.406 180.494 100.3 180.751C100.194 181.008 100.038 181.242 99.8417 181.439C99.6451 181.636 99.4117 181.792 99.1547 181.899C98.8977 182.005 98.6222 182.06 98.344 182.06Z" fill="white"/>
<path fill-rule="evenodd" clip-rule="evenodd" d="M268.344 195.212H227.2V129.456C227.2 127.865 227.832 126.339 228.958 125.213C230.083 124.088 231.609 123.456 233.2 123.456H262.332C263.924 123.456 265.45 124.088 266.575 125.213C267.7 126.339 268.332 127.865 268.332 129.456L268.344 195.212Z" fill="#DDDDDD"/>
<path opacity="0.5" fill-rule="evenodd" clip-rule="evenodd" d="M260.984 137.744H234.54C233.983 137.72 233.458 137.482 233.073 137.08C232.688 136.678 232.473 136.143 232.473 135.586C232.473 135.029 232.688 134.494 233.073 134.092C233.458 133.69 233.983 133.452 234.54 133.428H260.984C261.275 133.416 261.566 133.462 261.838 133.565C262.111 133.668 262.36 133.825 262.571 134.026C262.781 134.228 262.949 134.47 263.063 134.738C263.178 135.006 263.237 135.295 263.237 135.586C263.237 135.878 263.178 136.166 263.063 136.434C262.949 136.702 262.781 136.945 262.571 137.146C262.36 137.348 262.111 137.505 261.838 137.607C261.566 137.71 261.275 137.757 260.984 137.744Z" fill="white"/>
<path opacity="0.5" fill-rule="evenodd" clip-rule="evenodd" d="M260.984 147.212H234.54C233.967 147.212 233.418 146.985 233.013 146.579C232.607 146.174 232.38 145.625 232.38 145.052C232.38 144.479 232.607 143.93 233.013 143.525C233.418 143.12 233.967 142.892 234.54 142.892H260.984C261.557 142.892 262.106 143.12 262.511 143.525C262.916 143.93 263.144 144.479 263.144 145.052C263.144 145.625 262.916 146.174 262.511 146.579C262.106 146.985 261.557 147.212 260.984 147.212Z" fill="white"/>
<path opacity="0.5" fill-rule="evenodd" clip-rule="evenodd" d="M260.984 156.676H234.54C233.967 156.676 233.418 156.448 233.013 156.043C232.607 155.638 232.38 155.089 232.38 154.516C232.38 153.943 232.607 153.394 233.013 152.989C233.418 152.584 233.967 152.356 234.54 152.356H260.984C261.557 152.356 262.106 152.584 262.511 152.989C262.916 153.394 263.144 153.943 263.144 154.516C263.144 155.089 262.916 155.638 262.511 156.043C262.106 156.448 261.557 156.676 260.984 156.676Z" fill="white"/>
<path fill-rule="evenodd" clip-rule="evenodd" d="M124.728 123.572C123.146 123.572 121.629 122.944 120.51 121.825C119.39 120.707 118.761 119.19 118.76 117.608V106.672H96.6802V116.648H102.456C104.11 116.648 105.696 117.305 106.866 118.474C108.035 119.644 108.692 121.23 108.692 122.884V192.2H112V153.024C112 151.268 112.698 149.584 113.939 148.343C115.181 147.101 116.864 146.404 118.62 146.404H127.308V123.572H124.728Z" fill="#E2E2E2"/>
<path fill-rule="evenodd" clip-rule="evenodd" d="M236.324 203.24H103.848C102.949 203.24 102.088 202.883 101.452 202.248C100.817 201.612 100.46 200.75 100.46 199.852C100.46 198.953 100.817 198.092 101.452 197.456C102.088 196.821 102.949 196.464 103.848 196.464H236.324C237.223 196.464 238.084 196.821 238.72 197.456C239.355 198.092 239.712 198.953 239.712 199.852C239.712 200.75 239.355 201.612 238.72 202.248C238.084 202.883 237.223 203.24 236.324 203.24Z" fill="#7E89A0"/>
<path fill-rule="evenodd" clip-rule="evenodd" d="M316.96 209.264C316.96 204.943 315.243 200.799 312.188 197.744C309.133 194.689 304.989 192.972 300.668 192.972H66.2C64.9662 192.972 63.7829 192.482 62.9105 191.61C62.0381 190.737 61.548 189.554 61.548 188.32C61.548 187.086 62.0381 185.903 62.9105 185.031C63.7829 184.158 64.9662 183.668 66.2 183.668H67.572V176.68H58.772C54.4511 176.68 50.3071 178.397 47.2518 181.452C44.1965 184.507 42.48 188.651 42.48 192.972C42.48 197.293 44.1965 201.437 47.2518 204.492C50.3071 207.548 54.4511 209.264 58.772 209.264H296C297.234 209.264 298.417 209.754 299.289 210.627C300.162 211.499 300.652 212.682 300.652 213.916C300.652 215.15 300.162 216.333 299.289 217.206C298.417 218.078 297.234 218.568 296 218.568H264.4C263.474 218.568 262.586 218.936 261.931 219.591C261.276 220.246 260.908 221.134 260.908 222.06C260.908 222.986 261.276 223.875 261.931 224.529C262.586 225.184 263.474 225.552 264.4 225.552H300.856C305.144 225.505 309.241 223.768 312.256 220.718C315.271 217.669 316.961 213.553 316.96 209.264Z" fill="#CCCCCC"/>
<path fill-rule="evenodd" clip-rule="evenodd" d="M247.424 218.568H224.884C223.958 218.568 223.07 218.936 222.415 219.591C221.76 220.246 221.392 221.134 221.392 222.06C221.392 222.986 221.76 223.874 222.415 224.529C223.07 225.184 223.958 225.552 224.884 225.552H247.424C248.35 225.552 249.238 225.184 249.893 224.529C250.548 223.874 250.916 222.986 250.916 222.06C250.916 221.134 250.548 220.246 249.893 219.591C249.238 218.936 248.35 218.568 247.424 218.568Z" fill="#CCCCCC"/>
<path fill-rule="evenodd" clip-rule="evenodd" d="M180.596 173.228L168.376 183.488C167.885 183.923 167.312 184.256 166.69 184.466C166.069 184.676 165.411 184.759 164.757 184.711C164.103 184.663 163.465 184.484 162.881 184.185C162.297 183.886 161.778 183.474 161.356 182.971C160.934 182.469 160.617 181.887 160.424 181.26C160.23 180.633 160.165 179.974 160.23 179.321C160.296 178.668 160.491 178.035 160.806 177.459C161.12 176.883 161.546 176.376 162.06 175.968L175.472 164.712C176.153 164.138 177.035 163.857 177.923 163.932C178.811 164.007 179.632 164.432 180.208 165.112L181.2 166.312C181.615 166.805 181.929 167.376 182.123 167.991C182.317 168.606 182.388 169.253 182.332 169.895C182.276 170.538 182.094 171.163 181.796 171.734C181.498 172.306 181.09 172.814 180.596 173.228Z" fill="#AA7A4F"/>
<path fill-rule="evenodd" clip-rule="evenodd" d="M180.168 171.064L166.316 182.688C165.928 183.012 165.48 183.257 164.998 183.408C164.515 183.559 164.008 183.614 163.505 183.568C163.001 183.523 162.512 183.379 162.064 183.144C161.616 182.909 161.219 182.589 160.896 182.2L160.464 181.688C159.809 180.906 159.491 179.895 159.579 178.879C159.667 177.862 160.155 176.922 160.936 176.264L174.8 164.656C175.186 164.331 175.634 164.085 176.115 163.933C176.597 163.78 177.104 163.725 177.608 163.768C178.111 163.812 178.601 163.955 179.049 164.188C179.497 164.422 179.895 164.741 180.22 165.128L180.652 165.644C181.305 166.428 181.621 167.438 181.531 168.454C181.44 169.47 180.95 170.409 180.168 171.064Z" fill="#8B6C42"/>
<path fill-rule="evenodd" clip-rule="evenodd" d="M131.06 222.052C130.876 222.788 128.852 259.176 129.404 259.356C129.956 259.536 158.072 244.104 158.072 244.104L161.38 225.176L131.06 222.052Z" fill="#AA7A4F"/>
<path fill-rule="evenodd" clip-rule="evenodd" d="M168.916 219.476C167.996 221.684 166.652 242.828 156.788 254.396C145.344 267.812 137.672 266.708 136.02 267.076C135.288 268.54 133.976 270.876 132.6 273.256C131.368 275.408 129.639 277.235 127.557 278.582C125.475 279.929 123.1 280.758 120.632 281C120 281.056 119.312 281.136 118.56 281.24C112.608 282.04 112.128 285.1 107.904 287.488C103.68 289.876 98.8962 293.184 92.2802 289.888C84.7202 286.104 78.6802 293.196 78.6802 293.196L105.512 246.52C105.512 246.52 104.4 215.436 109.74 206.428C115.08 197.42 132.14 180.516 132.14 180.516C132.14 180.516 143.74 190.26 124.608 204.96C124.608 210.84 124.24 215.252 124.24 215.252C124.24 215.252 138.756 219.476 134.348 251.252C143.904 251.252 151.988 249.044 154.56 240.224C157.156 233.996 158.8 231.24 158.8 231.24C156.596 231.24 160.636 182.172 160.636 182.172L168.916 219.476Z" fill="#8B6C42"/>
<path fill-rule="evenodd" clip-rule="evenodd" d="M161.856 240.28H128.508C126.166 240.279 123.92 239.348 122.264 237.692C120.608 236.036 119.677 233.79 119.676 231.448V148.736C119.677 146.394 120.608 144.148 122.264 142.492C123.92 140.836 126.166 139.905 128.508 139.904H161.856C164.197 139.905 166.443 140.836 168.098 142.492C169.754 144.148 170.684 146.394 170.684 148.736V231.448C170.684 233.79 169.754 236.035 168.098 237.692C166.443 239.348 164.197 240.279 161.856 240.28Z" fill="#635252"/>
<path fill-rule="evenodd" clip-rule="evenodd" d="M159.948 237.692H130.4C129.329 237.692 128.269 237.481 127.279 237.071C126.29 236.661 125.391 236.061 124.634 235.303C123.877 234.546 123.277 233.647 122.867 232.657C122.458 231.668 122.248 230.607 122.248 229.536V150.644C122.248 149.573 122.458 148.513 122.868 147.524C123.277 146.535 123.877 145.636 124.635 144.879C125.392 144.122 126.291 143.521 127.28 143.112C128.269 142.702 129.329 142.492 130.4 142.492H159.932C161.003 142.492 162.063 142.702 163.052 143.112C164.042 143.521 164.94 144.122 165.698 144.879C166.455 145.636 167.055 146.535 167.465 147.524C167.874 148.513 168.085 149.573 168.084 150.644V229.536C168.085 231.696 167.229 233.768 165.703 235.297C164.178 236.827 162.108 237.688 159.948 237.692Z" fill="#FFE3E0"/>
<path fill-rule="evenodd" clip-rule="evenodd" d="M159.948 237.692H130.4C129.329 237.692 128.269 237.481 127.279 237.071C126.29 236.661 125.391 236.061 124.634 235.303C123.877 234.546 123.277 233.647 122.867 232.657C122.458 231.668 122.248 230.607 122.248 229.536V150.644C122.248 149.573 122.458 148.513 122.868 147.524C123.277 146.535 123.877 145.636 124.635 144.879C125.392 144.122 126.291 143.521 127.28 143.112C128.269 142.702 129.329 142.492 130.4 142.492H159.932C161.003 142.492 162.063 142.702 163.052 143.112C164.042 143.521 164.94 144.122 165.698 144.879C166.455 145.636 167.055 146.535 167.465 147.524C167.874 148.513 168.085 149.573 168.084 150.644V229.536C168.085 231.696 167.229 233.768 165.703 235.297C164.178 236.827 162.108 237.688 159.948 237.692Z" fill="#F00020"/>
<path fill-rule="evenodd" clip-rule="evenodd" d="M157.668 171.848C157.668 174.319 156.935 176.734 155.562 178.788C154.189 180.842 152.237 182.443 149.954 183.387C147.671 184.332 145.159 184.578 142.736 184.094C140.313 183.611 138.088 182.42 136.342 180.671C134.597 178.923 133.409 176.696 132.929 174.272C132.45 171.848 132.7 169.337 133.648 167.055C134.596 164.774 136.2 162.825 138.257 161.455C140.313 160.085 142.729 159.356 145.2 159.36C148.508 159.365 151.68 160.683 154.017 163.025C156.355 165.366 157.668 168.539 157.668 171.848Z" fill="white"/>
<path fill-rule="evenodd" clip-rule="evenodd" d="M152.54 146.076H137.824C136.939 146.076 136.09 145.725 135.464 145.099C134.837 144.473 134.485 143.625 134.484 142.74V141.256H155.876V142.74C155.876 143.625 155.524 144.473 154.899 145.099C154.273 145.724 153.425 146.076 152.54 146.076Z" fill="#635252"/>
<path fill-rule="evenodd" clip-rule="evenodd" d="M158.532 193.996H132.672C132.523 193.996 132.375 193.967 132.237 193.91C132.1 193.853 131.974 193.769 131.869 193.663C131.763 193.558 131.68 193.433 131.623 193.295C131.566 193.157 131.536 193.009 131.536 192.86C131.536 192.711 131.566 192.563 131.623 192.425C131.68 192.288 131.763 192.162 131.869 192.057C131.974 191.951 132.1 191.868 132.237 191.811C132.375 191.754 132.523 191.724 132.672 191.724H158.532C158.833 191.724 159.122 191.844 159.335 192.057C159.548 192.27 159.668 192.559 159.668 192.86C159.668 193.161 159.548 193.45 159.335 193.663C159.122 193.876 158.833 193.996 158.532 193.996Z" fill="white"/>
<path fill-rule="evenodd" clip-rule="evenodd" d="M152.936 199.256H138.268C138.113 199.265 137.958 199.243 137.813 199.19C137.667 199.137 137.534 199.055 137.421 198.949C137.309 198.842 137.219 198.714 137.157 198.572C137.096 198.43 137.064 198.277 137.064 198.122C137.064 197.967 137.096 197.814 137.157 197.672C137.219 197.529 137.309 197.401 137.421 197.295C137.534 197.189 137.667 197.107 137.813 197.054C137.958 197.001 138.113 196.979 138.268 196.988H152.936C153.225 197.005 153.497 197.132 153.695 197.343C153.894 197.554 154.004 197.832 154.004 198.122C154.004 198.411 153.894 198.69 153.695 198.901C153.497 199.112 153.225 199.239 152.936 199.256Z" fill="white"/>
<path fill-rule="evenodd" clip-rule="evenodd" d="M118.152 214.856C135.292 218.084 136.152 230.636 135.14 251.376C118.868 249.3 115.76 230.012 115.76 230.012L118.152 214.856Z" fill="#8B6C42"/>
<path fill-rule="evenodd" clip-rule="evenodd" d="M107.872 211.316C111.76 192.372 126.452 180.2 126.452 180.2C126.452 180.2 138.116 191.38 119.784 207.044C119.784 213.784 119.916 215.572 119.916 215.572" fill="#8B6C42"/>
<path fill-rule="evenodd" clip-rule="evenodd" d="M171.672 200.448H166.16C165.468 200.467 164.779 200.347 164.134 200.096C163.489 199.844 162.901 199.466 162.404 198.983C161.908 198.5 161.514 197.923 161.244 197.285C160.975 196.648 160.836 195.962 160.836 195.27C160.836 194.577 160.975 193.892 161.244 193.254C161.514 192.617 161.908 192.039 162.404 191.556C162.901 191.074 163.489 190.695 164.134 190.444C164.779 190.192 165.468 190.073 166.16 190.092H171.672C173.02 190.129 174.301 190.691 175.241 191.658C176.182 192.625 176.708 193.921 176.708 195.27C176.708 196.619 176.182 197.914 175.241 198.881C174.301 199.848 173.02 200.41 171.672 200.448Z" fill="#8B6C42"/>
<path fill-rule="evenodd" clip-rule="evenodd" d="M169.6 212.2H165.744C164.483 212.2 163.274 211.7 162.382 210.809C161.49 209.918 160.989 208.709 160.988 207.448V206.6C160.989 205.339 161.49 204.131 162.382 203.24C163.274 202.349 164.483 201.848 165.744 201.848H169.6C170.859 201.85 172.065 202.352 172.955 203.243C173.844 204.134 174.344 205.341 174.344 206.6V207.452C174.343 208.71 173.843 209.917 172.953 210.807C172.064 211.697 170.858 212.198 169.6 212.2Z" fill="#8B6C42"/>
<path fill-rule="evenodd" clip-rule="evenodd" d="M170.852 224.704H170.088C168.739 224.667 167.459 224.105 166.518 223.138C165.578 222.171 165.052 220.875 165.052 219.526C165.052 218.177 165.578 216.882 166.518 215.915C167.459 214.948 168.739 214.386 170.088 214.348H170.852C172.2 214.386 173.481 214.948 174.421 215.915C175.362 216.882 175.888 218.177 175.888 219.526C175.888 220.875 175.362 222.171 174.421 223.138C173.481 224.105 172.2 224.667 170.852 224.704Z" fill="#8B6C42"/>
<path fill-rule="evenodd" clip-rule="evenodd" d="M167.532 199.112H167.684C167.819 199.103 167.949 199.056 168.058 198.977C168.168 198.897 168.252 198.788 168.302 198.662C168.351 198.536 168.364 198.399 168.338 198.266C168.312 198.133 168.249 198.01 168.156 197.912C167.486 197.202 167.112 196.263 167.112 195.286C167.112 194.309 167.486 193.37 168.156 192.66C168.25 192.563 168.315 192.441 168.342 192.309C168.369 192.177 168.358 192.039 168.31 191.913C168.261 191.787 168.178 191.677 168.069 191.597C167.96 191.517 167.831 191.469 167.696 191.46H167.628C167.123 191.459 166.622 191.559 166.156 191.752C165.689 191.945 165.265 192.229 164.907 192.586C164.55 192.944 164.267 193.368 164.075 193.835C163.882 194.302 163.783 194.803 163.784 195.308C163.807 196.3 164.207 197.246 164.904 197.953C165.6 198.66 166.54 199.075 167.532 199.112Z" fill="#B28F66"/>
<path fill-rule="evenodd" clip-rule="evenodd" d="M167.076 210.884C167.303 210.891 167.531 210.877 167.756 210.844C167.852 210.831 167.942 210.79 168.016 210.726C168.089 210.663 168.142 210.579 168.169 210.486C168.196 210.393 168.195 210.294 168.166 210.201C168.138 210.108 168.083 210.026 168.008 209.964C167.589 209.601 167.253 209.151 167.025 208.646C166.796 208.141 166.68 207.592 166.684 207.038C166.688 206.483 166.813 205.936 167.049 205.435C167.285 204.933 167.627 204.488 168.052 204.132C168.128 204.071 168.184 203.99 168.214 203.898C168.244 203.806 168.247 203.707 168.222 203.613C168.197 203.519 168.145 203.435 168.073 203.37C168.001 203.305 167.912 203.263 167.816 203.248C167.62 203.214 167.422 203.197 167.224 203.196C166.204 203.191 165.224 203.59 164.499 204.307C163.773 205.024 163.362 206 163.356 207.02C163.363 208.018 163.753 208.975 164.445 209.694C165.137 210.413 166.079 210.839 167.076 210.884Z" fill="#B28F66"/>
<path fill-rule="evenodd" clip-rule="evenodd" d="M169.328 222.576C169.843 222.706 170.384 222.699 170.896 222.556C170.934 222.541 170.967 222.516 170.993 222.484C171.018 222.452 171.035 222.414 171.041 222.374C171.048 222.334 171.044 222.292 171.029 222.254C171.015 222.216 170.991 222.182 170.96 222.156C170.551 221.865 170.22 221.478 169.994 221.03C169.768 220.582 169.655 220.086 169.664 219.584C169.688 218.356 171.448 217.408 171.472 216.832C171.472 216.384 170.616 216.488 170.136 216.5C169.377 216.487 168.639 216.754 168.064 217.25C167.489 217.745 167.116 218.436 167.017 219.189C166.918 219.942 167.1 220.705 167.528 221.332C167.955 221.96 168.599 222.408 169.336 222.592L169.328 222.576Z" fill="#B28F66"/>
<path fill-rule="evenodd" clip-rule="evenodd" d="M124.588 287.7L92.1519 262.336L96.9078 256.256L129.344 281.62L124.588 287.7Z" fill="#ECECEC"/>
<path fill-rule="evenodd" clip-rule="evenodd" d="M108.252 316.256L68.376 285.076L88.432 259.428L128.308 290.6L108.252 316.256Z" fill="#535565"/>
<path fill-rule="evenodd" clip-rule="evenodd" d="M102.672 270.56L91.436 261.76L96.188 255.68L107.428 264.48L102.672 270.56Z" fill="#CFCFCF"/>
<path fill-rule="evenodd" clip-rule="evenodd" d="M80.5839 294.844L68.356 285.28L88.4 259.632L100.628 269.192L80.5839 294.844Z" fill="#38414A"/>
<path fill-rule="evenodd" clip-rule="evenodd" d="M124.444 182.04C124.444 182.04 125.86 184.392 125.86 185.152C125.86 185.912 120.82 191.628 119.324 192.132C118.736 192.332 115.78 192.644 115.78 192.644C115.78 192.644 120.196 185.724 124.444 182.04Z" fill="#B28F66"/>
<path d="M206.74 189.888C205.806 189.888 204.881 190.072 204.019 190.43C203.156 190.787 202.372 191.311 201.712 191.971C201.052 192.632 200.529 193.416 200.172 194.279C199.815 195.142 199.631 196.066 199.632 197C199.633 197.299 199.654 197.597 199.696 197.892C199.914 199.634 200.769 201.233 202.096 202.381C203.423 203.529 205.129 204.145 206.884 204.11C208.638 204.075 210.318 203.391 211.598 202.19C212.878 200.989 213.668 199.357 213.816 197.608C213.816 197.408 213.844 197.208 213.844 197C213.845 196.067 213.662 195.142 213.305 194.279C212.949 193.416 212.426 192.632 211.766 191.972C211.106 191.311 210.323 190.787 209.46 190.43C208.598 190.072 207.673 189.888 206.74 189.888ZM203.2 194.316L204.652 195.764C204.535 195.958 204.448 196.169 204.392 196.388H202.352C202.451 195.636 202.743 194.922 203.2 194.316ZM202.34 197.62H204.4C204.456 197.836 204.542 198.044 204.656 198.236L203.2 199.688C202.736 199.085 202.433 198.373 202.32 197.62H202.34ZM206.144 201.408C205.395 201.305 204.686 201.01 204.084 200.552L205.528 199.108C205.72 199.219 205.928 199.303 206.144 199.356V201.408ZM206.144 194.628C205.923 194.687 205.712 194.776 205.516 194.892L204.068 193.444C204.674 192.984 205.389 192.687 206.144 192.584V194.628ZM207.376 192.584C208.13 192.688 208.845 192.984 209.452 193.444L208 194.892C207.804 194.776 207.592 194.687 207.372 194.628V192.6L207.376 192.584ZM207.376 201.384V199.336C207.592 199.282 207.799 199.199 207.992 199.088L209.436 200.532C208.83 200.998 208.113 201.298 207.356 201.4L207.376 201.384ZM210.316 199.672L208.86 198.216C208.978 198.025 209.067 197.817 209.124 197.6H211.168C211.065 198.362 210.764 199.083 210.296 199.692L210.316 199.672ZM209.116 196.368C209.057 196.15 208.969 195.94 208.856 195.744L210.308 194.296C210.764 194.903 211.057 195.616 211.16 196.368H209.116Z" fill="#38414A"/>
<path d="M265.744 189.888C264.811 189.888 263.886 190.072 263.024 190.43C262.161 190.787 261.378 191.311 260.718 191.972C260.058 192.632 259.535 193.416 259.179 194.279C258.822 195.142 258.639 196.067 258.64 197C258.641 197.299 258.663 197.597 258.704 197.892C258.926 199.63 259.783 201.224 261.109 202.368C262.436 203.513 264.138 204.126 265.89 204.091C267.641 204.056 269.318 203.374 270.597 202.178C271.876 200.981 272.668 199.353 272.82 197.608C272.82 197.408 272.852 197.208 272.852 197C272.853 196.066 272.67 195.141 272.313 194.278C271.957 193.415 271.433 192.631 270.773 191.97C270.113 191.31 269.329 190.786 268.466 190.429C267.603 190.071 266.678 189.888 265.744 189.888ZM262.188 194.316L263.636 195.764C263.522 195.959 263.436 196.169 263.38 196.388H261.336C261.436 195.635 261.729 194.921 262.188 194.316ZM261.328 197.62H263.388C263.444 197.836 263.531 198.044 263.644 198.236L262.192 199.688C261.73 199.085 261.433 198.373 261.328 197.62ZM265.132 201.408C264.382 201.305 263.671 201.01 263.068 200.552L264.516 199.108C264.708 199.22 264.916 199.304 265.132 199.356V201.408ZM265.132 194.628C264.912 194.687 264.7 194.776 264.504 194.892L263.056 193.444C263.663 192.984 264.378 192.687 265.132 192.584V194.628ZM266.364 192.584C267.118 192.687 267.831 192.983 268.436 193.444L266.992 194.892C266.796 194.775 266.585 194.686 266.364 194.628V192.584ZM266.364 201.384V199.336C266.58 199.282 266.787 199.199 266.98 199.088L268.424 200.532C267.824 200.995 267.114 201.294 266.364 201.4V201.384ZM269.304 199.672L267.848 198.216C267.965 198.024 268.053 197.817 268.112 197.6H270.152C270.056 198.359 269.764 199.08 269.304 199.692V199.672ZM268.104 196.368C268.045 196.15 267.958 195.94 267.844 195.744L269.292 194.296C269.75 194.902 270.044 195.616 270.144 196.368H268.104Z" fill="#38414A"/>
<path d="M282.8 186.2V180.948C282.8 180.54 282.654 180.145 282.389 179.834C282.123 179.524 281.755 179.319 281.352 179.256C279.352 178.944 275.792 178.348 274.196 177.856C271.904 177.152 263.06 173.408 259.996 172.704C256.932 172 243.116 168.244 229.884 172.832C227.648 173.608 217.576 178.432 211.652 180.924C209.908 180.964 192.644 184.564 191.724 187.028C191.183 188.431 190.724 189.864 190.348 191.32C190.176 191.948 190.348 194.944 191.628 197.028C192.936 197.768 195.452 198.264 198.364 198.6C198.332 198.42 198.296 198.244 198.272 198.064C198.222 197.71 198.197 197.353 198.196 196.996C198.171 195.86 198.374 194.73 198.792 193.673C199.209 192.616 199.834 191.653 200.629 190.841C201.424 190.029 202.373 189.383 203.421 188.943C204.468 188.502 205.593 188.275 206.73 188.275C207.866 188.275 208.991 188.502 210.039 188.943C211.087 189.383 212.036 190.029 212.831 190.841C213.626 191.653 214.25 192.616 214.668 193.673C215.086 194.73 215.288 195.86 215.264 196.996C215.264 197.236 215.264 197.476 215.232 197.712C215.186 198.232 215.092 198.746 214.952 199.248H214.976L257.336 198.396C257.316 198.284 257.292 198.176 257.28 198.064C257.229 197.712 257.202 197.356 257.2 197C257.175 195.864 257.378 194.734 257.796 193.677C258.213 192.62 258.838 191.657 259.633 190.845C260.428 190.033 261.377 189.387 262.425 188.947C263.472 188.506 264.597 188.279 265.734 188.279C266.87 188.279 267.995 188.506 269.043 188.947C270.091 189.387 271.04 190.033 271.835 190.845C272.63 191.657 273.254 192.62 273.672 193.677C274.09 194.734 274.292 195.864 274.268 197C274.27 197.016 274.27 197.032 274.268 197.048H274.452L281.692 195.684C281.692 195.684 284.468 194.204 284.468 190.144C284.476 187.4 282.8 186.2 282.8 186.2ZM240.8 181.224L224.98 181.708C225.272 179.336 223.868 178.804 223.868 178.804C230.156 173.096 242.832 172.904 242.832 172.904L240.8 181.224ZM258.556 180.5L244.156 180.984L245.46 172.904C252.912 172.808 257.168 174.452 257.168 174.452L259.296 177.888L258.556 180.5ZM266.684 180.448H262.684L258.684 174.936C261.021 175.863 263.311 176.907 265.544 178.064C265.959 178.292 266.292 178.645 266.494 179.073C266.697 179.501 266.759 179.982 266.672 180.448H266.684Z" fill="#38414A"/>
<path d="M142.852 177.744H144.148C144.331 177.745 144.506 177.673 144.636 177.544C144.698 177.479 144.745 177.401 144.776 177.317C144.807 177.232 144.821 177.142 144.816 177.052L144.792 176.74H142.228L142.204 177.052C142.194 177.143 142.204 177.234 142.236 177.32C142.267 177.405 142.318 177.482 142.384 177.544C142.511 177.665 142.677 177.736 142.852 177.744Z" fill="#F00020"/>
<path d="M142.16 175.044C142.175 174.985 142.205 174.931 142.248 174.888C142.228 174.888 142.204 174.888 142.16 174.888V175.044Z" fill="#F00020"/>
<path d="M144.368 174.2C144.348 174.02 144.48 173.508 144.1 173.508H144C143.95 173.597 143.88 173.674 143.796 173.732C144.064 173.732 144.156 173.708 144.156 173.776V174.068H142.88C142.904 173.82 142.86 173.732 142.928 173.732H143.04C142.951 173.69 142.879 173.62 142.836 173.532C142.785 173.549 142.74 173.581 142.708 173.625C142.677 173.669 142.66 173.722 142.66 173.776V174.2C142.636 174.2 142.612 174.224 142.568 174.224L142.636 174.536C142.904 174.424 143.06 174.492 144.044 174.468C144.241 174.467 144.432 174.532 144.586 174.655C144.74 174.777 144.848 174.948 144.892 175.14C144.912 175.204 144.868 175.248 144.8 175.272H144.78C144.756 175.267 144.733 175.257 144.713 175.242C144.694 175.226 144.678 175.207 144.668 175.184C144.632 175.04 144.548 174.914 144.43 174.824C144.312 174.735 144.168 174.688 144.02 174.692C143.44 174.76 142.504 174.444 142.324 175.184C142.319 175.202 142.31 175.219 142.297 175.232C142.284 175.246 142.269 175.257 142.251 175.263C142.233 175.269 142.214 175.271 142.196 175.269C142.177 175.266 142.159 175.259 142.144 175.248V176.476H144.888C144.903 176.475 144.918 176.478 144.932 176.483C144.945 176.489 144.958 176.497 144.968 176.507C144.979 176.518 144.987 176.53 144.993 176.544C144.998 176.558 145.001 176.573 145 176.588L145.024 177.012C145.035 177.133 145.021 177.256 144.982 177.371C144.943 177.487 144.881 177.593 144.799 177.683C144.717 177.774 144.617 177.846 144.506 177.896C144.394 177.945 144.274 177.971 144.152 177.972H142.88C142.758 177.97 142.638 177.943 142.527 177.894C142.415 177.844 142.315 177.773 142.232 177.684C142.194 177.645 142.164 177.599 142.144 177.548V178.04C142.306 178.176 142.513 178.247 142.724 178.24H144.352C144.484 178.241 144.615 178.215 144.736 178.164C144.858 178.112 144.967 178.035 145.057 177.939C145.148 177.843 145.217 177.729 145.261 177.604C145.305 177.48 145.322 177.347 145.312 177.216L145.156 175.092C145.142 174.877 145.057 174.673 144.915 174.511C144.772 174.35 144.58 174.24 144.368 174.2Z" fill="#F00020"/>
<path d="M138.588 175.088L138.52 178.748C138.519 178.924 138.585 179.095 138.706 179.223C138.826 179.352 138.992 179.43 139.168 179.44H139.2C139.374 179.441 139.542 179.374 139.668 179.253C139.794 179.132 139.867 178.966 139.872 178.792L139.94 175.192C139.487 175.19 139.036 175.156 138.588 175.088Z" fill="#F00020"/>
<path d="M142.428 174.62C141.628 170.288 141.912 171.784 141.848 171.448C141.313 171.615 140.756 171.697 140.196 171.692C139.636 171.694 139.079 171.611 138.544 171.448L138.052 174.728L138.164 174.776C138.164 174.776 138.32 174.82 138.588 174.864C139.712 174.999 140.85 174.953 141.96 174.728V174.84C141.98 174.796 142.004 174.776 142.024 174.728C142.156 174.684 142.291 174.648 142.428 174.62Z" fill="#F00020"/>
<path d="M141.912 174.952C141.486 175.042 141.055 175.102 140.62 175.132L140.552 178.732C140.546 178.911 140.61 179.086 140.731 179.219C140.852 179.351 141.021 179.43 141.2 179.44H141.22C141.395 179.441 141.563 179.374 141.688 179.253C141.814 179.132 141.887 178.966 141.892 178.792V177.812C141.892 177.768 141.94 175.108 141.94 174.82C141.921 174.861 141.911 174.906 141.912 174.952Z" fill="#F00020"/>
<path d="M140.24 167.116C140.501 167.116 140.757 167.039 140.974 166.893C141.191 166.748 141.36 166.542 141.46 166.3C141.56 166.059 141.586 165.793 141.534 165.537C141.483 165.281 141.357 165.046 141.172 164.861C140.987 164.677 140.751 164.551 140.495 164.501C140.239 164.45 139.973 164.477 139.732 164.578C139.491 164.678 139.285 164.848 139.14 165.066C138.996 165.283 138.919 165.539 138.92 165.8C138.92 165.973 138.954 166.145 139.02 166.305C139.087 166.465 139.184 166.61 139.307 166.732C139.429 166.854 139.575 166.951 139.735 167.017C139.895 167.083 140.067 167.117 140.24 167.116Z" fill="#F00020"/>
<path d="M138.34 171.156L138.432 170.844L138.544 170.508L138.564 171.204C139.032 171.448 140.776 171.58 141.692 171.248C141.715 171.233 141.741 171.224 141.767 171.22C141.794 171.216 141.822 171.217 141.848 171.224L141.94 170.024L142.028 170.316L142.116 170.604C143.256 174.312 142.852 173.004 142.944 173.308C142.966 173.38 143.007 173.446 143.062 173.499C143.116 173.552 143.184 173.59 143.257 173.61C143.33 173.63 143.408 173.631 143.482 173.613C143.555 173.595 143.624 173.559 143.68 173.508C144.036 173.172 143.656 172.84 143.1 170.76C142.3 168.128 142.34 168.26 142.3 168.172C142.238 168.075 142.143 168.004 142.032 167.972L141.988 167.948C140.388 167.256 138.548 167.836 138.324 168.148C138.276 168.225 138.239 168.309 138.212 168.396L136.808 173.06C136.777 173.172 136.789 173.292 136.842 173.396C136.896 173.5 136.986 173.58 137.096 173.62C137.152 173.638 137.211 173.644 137.269 173.639C137.328 173.634 137.385 173.618 137.437 173.591C137.489 173.564 137.535 173.526 137.573 173.481C137.61 173.436 137.639 173.384 137.656 173.328L138.34 171.156Z" fill="#F00020"/>
<path d="M150.752 177.744H152.044C152.228 177.745 152.405 177.673 152.536 177.544C152.598 177.479 152.645 177.401 152.676 177.317C152.707 177.232 152.721 177.142 152.716 177.052L152.692 176.74H150.124L150.104 177.052C150.094 177.142 150.104 177.233 150.135 177.319C150.165 177.404 150.215 177.481 150.28 177.544C150.409 177.664 150.576 177.735 150.752 177.744Z" fill="#F00020"/>
<path d="M150.06 175.044C150.075 174.985 150.105 174.931 150.148 174.888C150.124 174.888 150.104 174.888 150.06 174.888V175.044Z" fill="#F00020"/>
<path d="M152.268 174.2C152.248 174.02 152.38 173.508 152 173.508H151.888C151.84 173.597 151.771 173.674 151.688 173.732C151.956 173.732 152.044 173.708 152.044 173.776V174.068H150.772C150.796 173.82 150.752 173.732 150.816 173.732H150.928C150.841 173.689 150.771 173.619 150.728 173.532C150.676 173.549 150.631 173.581 150.599 173.625C150.567 173.669 150.549 173.721 150.548 173.776V174.2C150.528 174.2 150.504 174.224 150.46 174.224L150.528 174.536C150.796 174.424 150.952 174.492 151.932 174.468C152.13 174.466 152.322 174.531 152.477 174.653C152.632 174.776 152.74 174.947 152.784 175.14C152.804 175.204 152.76 175.248 152.692 175.272H152.672C152.647 175.268 152.624 175.259 152.604 175.243C152.584 175.228 152.569 175.207 152.56 175.184C152.524 175.04 152.44 174.914 152.322 174.824C152.205 174.735 152.06 174.688 151.912 174.692C151.332 174.76 150.392 174.444 150.216 175.184C150.211 175.202 150.202 175.219 150.189 175.232C150.177 175.246 150.161 175.257 150.143 175.263C150.125 175.269 150.106 175.271 150.088 175.269C150.069 175.266 150.051 175.259 150.036 175.248L150.012 176.476H152.76C152.775 176.475 152.79 176.478 152.804 176.483C152.818 176.489 152.83 176.497 152.841 176.507C152.851 176.518 152.859 176.53 152.865 176.544C152.87 176.558 152.873 176.573 152.872 176.588L152.892 177.012C152.903 177.133 152.888 177.255 152.851 177.37C152.813 177.486 152.752 177.592 152.672 177.684C152.589 177.772 152.488 177.844 152.377 177.893C152.266 177.942 152.146 177.969 152.024 177.972H150.752C150.63 177.97 150.51 177.944 150.399 177.894C150.287 177.845 150.187 177.773 150.104 177.684C150.066 177.644 150.035 177.598 150.012 177.548V178.04C150.176 178.175 150.384 178.247 150.596 178.24H152.224C152.356 178.241 152.487 178.215 152.608 178.164C152.73 178.112 152.839 178.035 152.929 177.939C153.02 177.843 153.089 177.729 153.133 177.604C153.177 177.48 153.194 177.347 153.184 177.216L153.028 175.092C153.015 174.881 152.934 174.68 152.797 174.519C152.66 174.358 152.474 174.246 152.268 174.2Z" fill="#F00020"/>
<path d="M146.484 175.088L146.42 178.748C146.418 178.925 146.484 179.095 146.605 179.224C146.725 179.353 146.892 179.431 147.068 179.44H147.088C147.262 179.441 147.43 179.374 147.556 179.253C147.682 179.132 147.755 178.966 147.76 178.792L147.824 175.192C147.375 175.19 146.928 175.155 146.484 175.088Z" fill="#F00020"/>
<path d="M150.328 174.62C149.528 170.288 149.812 171.784 149.744 171.448C149.21 171.616 148.652 171.698 148.092 171.692C147.533 171.693 146.976 171.611 146.44 171.448L145.948 174.728L146.06 174.776C146.084 174.776 146.216 174.82 146.484 174.864C147.608 174.999 148.747 174.953 149.856 174.728V174.84C149.88 174.796 149.9 174.776 149.924 174.728C150.056 174.683 150.191 174.647 150.328 174.62Z" fill="#F00020"/>
<path d="M149.812 174.952C149.385 175.043 148.952 175.103 148.516 175.132L148.452 178.732C148.45 178.908 148.515 179.078 148.635 179.207C148.755 179.336 148.92 179.414 149.096 179.424H149.12C149.295 179.425 149.463 179.358 149.588 179.237C149.714 179.116 149.787 178.951 149.792 178.776V177.796C149.792 177.752 149.836 175.092 149.836 174.804C149.817 174.851 149.809 174.902 149.812 174.952Z" fill="#F00020"/>
<path d="M148.14 167.116C148.401 167.116 148.656 167.039 148.874 166.893C149.091 166.748 149.26 166.542 149.36 166.3C149.46 166.059 149.485 165.793 149.434 165.537C149.383 165.281 149.257 165.046 149.072 164.861C148.887 164.677 148.651 164.551 148.395 164.501C148.139 164.45 147.873 164.477 147.632 164.578C147.391 164.678 147.185 164.848 147.04 165.066C146.896 165.283 146.819 165.539 146.82 165.8C146.82 165.973 146.854 166.145 146.92 166.305C146.987 166.465 147.084 166.61 147.207 166.732C147.329 166.854 147.475 166.951 147.635 167.017C147.795 167.083 147.967 167.117 148.14 167.116Z" fill="#F00020"/>
<path d="M146.24 171.156L146.328 170.844L146.44 170.508L146.464 171.204C146.932 171.448 148.672 171.58 149.588 171.248H149.6C149.623 171.233 149.649 171.224 149.676 171.22C149.702 171.216 149.73 171.217 149.756 171.224L149.844 170.024L149.936 170.316L150.024 170.604C151.164 174.312 150.76 173.004 150.848 173.308C150.871 173.38 150.912 173.446 150.967 173.499C151.022 173.552 151.09 173.59 151.164 173.61C151.237 173.629 151.315 173.631 151.389 173.613C151.463 173.595 151.531 173.559 151.588 173.508C151.944 173.172 151.564 172.84 151.008 170.76C150.208 168.128 150.248 168.26 150.208 168.172C150.146 168.075 150.051 168.004 149.94 167.972L149.892 167.948C148.292 167.256 146.456 167.836 146.232 168.148C146.181 168.224 146.143 168.308 146.12 168.396L144.712 173.06C144.682 173.173 144.695 173.293 144.749 173.397C144.803 173.5 144.894 173.58 145.004 173.62C145.06 173.638 145.119 173.644 145.177 173.639C145.236 173.634 145.293 173.618 145.345 173.591C145.397 173.564 145.443 173.526 145.481 173.481C145.518 173.436 145.547 173.384 145.564 173.328L146.24 171.156Z" fill="#F00020"/>
<path d="M93.8122 182.448L98.6602 178.448L93.8122 174.448H83.8122V172.336H80.9162V174.448H69.2002V182.448H80.9042V201.72H78.0002V203.752H86.6402V201.72H83.8002V182.448H93.8122ZM70.1082 181.54V175.376H93.4882L97.2322 178.456L93.4882 181.54H70.1082Z" fill="#B7B7B7"/>
<path d="M97.2319 178.456L93.4879 181.54H70.1079V175.376H93.4879L97.2319 178.456Z" fill="#EFF3F9"/>
<path d="M75.072 178.344C74.9835 178.273 74.8852 178.215 74.78 178.172C74.6696 178.124 74.556 178.084 74.44 178.052L74.104 177.968C74.004 177.947 73.9051 177.92 73.808 177.888C73.7349 177.869 73.6648 177.839 73.6 177.8C73.5756 177.783 73.5558 177.76 73.5425 177.734C73.5292 177.707 73.5228 177.678 73.524 177.648C73.522 177.603 73.5346 177.558 73.56 177.52C73.584 177.484 73.6171 177.455 73.656 177.436C73.6964 177.415 73.7395 177.401 73.784 177.392H73.924C73.9873 177.391 74.0504 177.398 74.112 177.412C74.1714 177.423 74.2283 177.445 74.28 177.476C74.328 177.504 74.3679 177.544 74.396 177.592C74.4287 177.646 74.4428 177.709 74.436 177.772H75.264C75.2688 177.611 75.2301 177.453 75.152 177.312C75.0815 177.185 74.983 177.076 74.864 176.992C74.7416 176.909 74.6065 176.847 74.464 176.808C74.3126 176.768 74.1566 176.748 74 176.748C73.8466 176.75 73.6938 176.767 73.544 176.8C73.3956 176.834 73.2538 176.892 73.124 176.972C73.0012 177.048 72.8972 177.15 72.82 177.272C72.7374 177.405 72.6957 177.559 72.7 177.716C72.6966 177.845 72.7255 177.973 72.784 178.088C72.8371 178.188 72.9108 178.275 73 178.344C73.0884 178.418 73.1884 178.476 73.296 178.516C73.408 178.56 73.52 178.6 73.632 178.632L73.968 178.72C74.0672 178.741 74.1648 178.769 74.26 178.804C74.3366 178.83 74.4074 178.871 74.468 178.924C74.4936 178.945 74.5141 178.971 74.5279 179.001C74.5418 179.031 74.5487 179.063 74.548 179.096C74.5492 179.151 74.5323 179.204 74.5 179.248C74.4701 179.29 74.4303 179.325 74.384 179.348C74.3337 179.374 74.2798 179.393 74.224 179.404C74.1628 179.41 74.1012 179.41 74.04 179.404C73.8904 179.41 73.7421 179.374 73.612 179.3C73.5524 179.253 73.5051 179.192 73.4745 179.122C73.4438 179.052 73.4306 178.976 73.436 178.9H72.608C72.6021 179.08 72.6405 179.259 72.72 179.42C72.7937 179.56 72.8992 179.68 73.028 179.772C73.16 179.867 73.3096 179.935 73.468 179.972C73.6378 180.016 73.8126 180.038 73.988 180.036C74.1602 180.036 74.3319 180.017 74.5 179.98C74.6583 179.952 74.8093 179.892 74.944 179.804C75.0747 179.725 75.1823 179.614 75.256 179.48C75.3401 179.324 75.3815 179.149 75.376 178.972C75.3775 178.852 75.352 178.734 75.3015 178.625C75.251 178.516 75.1766 178.42 75.084 178.344H75.072Z" fill="#38414A"/>
<path d="M76.6519 177.728C76.712 177.633 76.7962 177.555 76.896 177.503C76.9958 177.451 77.1075 177.427 77.2199 177.432C77.3746 177.427 77.5269 177.47 77.656 177.556C77.7141 177.6 77.7626 177.655 77.7984 177.718C77.8342 177.781 77.8565 177.851 77.8639 177.924H78.692C78.6902 177.744 78.6419 177.568 78.5519 177.412C78.4654 177.265 78.3513 177.136 78.216 177.032C78.0766 176.929 77.9211 176.851 77.756 176.8C77.5893 176.746 77.4151 176.719 77.2399 176.72C77.0161 176.717 76.7942 176.761 76.5879 176.848C76.3973 176.931 76.2258 177.052 76.0839 177.204C75.9434 177.355 75.8347 177.534 75.7639 177.728C75.6877 177.935 75.6497 178.155 75.6519 178.376C75.6498 178.598 75.6877 178.819 75.7639 179.028C75.8367 179.22 75.9438 179.398 76.08 179.552C76.2209 179.704 76.3927 179.824 76.5839 179.904C76.7909 179.994 77.0144 180.039 77.2399 180.036C77.4302 180.038 77.6195 180.008 77.7999 179.948C77.9647 179.895 78.117 179.809 78.2479 179.696C78.3773 179.585 78.4822 179.449 78.556 179.296C78.638 179.124 78.6843 178.938 78.692 178.748H77.8599C77.8609 178.83 77.8446 178.911 77.812 178.986C77.7795 179.062 77.7315 179.129 77.6711 179.185C77.6107 179.24 77.5394 179.282 77.4616 179.308C77.3839 179.334 77.3015 179.344 77.2199 179.336C77.1016 179.339 76.9845 179.311 76.88 179.256C76.7876 179.203 76.7093 179.129 76.6519 179.04C76.5904 178.947 76.5457 178.844 76.5199 178.736C76.4924 178.622 76.479 178.505 76.48 178.388C76.4792 178.271 76.4926 178.154 76.5199 178.04C76.5444 177.929 76.5892 177.823 76.6519 177.728Z" fill="#38414A"/>
<path d="M81.044 177.944H79.952V176.788H79.124V179.968H79.952V178.656H81.044V179.968H81.872V176.788H81.044V177.944Z" fill="#38414A"/>
<path d="M85.0399 177.204C84.9026 177.052 84.735 176.931 84.5479 176.848C84.3364 176.76 84.109 176.716 83.8799 176.72C83.6522 176.716 83.4261 176.76 83.2159 176.848C83.0277 176.929 82.8597 177.051 82.7239 177.204C82.5871 177.356 82.4824 177.534 82.4159 177.728C82.2774 178.149 82.2774 178.603 82.4159 179.024C82.4837 179.218 82.5883 179.397 82.7239 179.552C82.86 179.704 83.028 179.824 83.2159 179.904C83.4253 179.995 83.6517 180.04 83.8799 180.036C84.1095 180.04 84.3373 179.995 84.5479 179.904C84.7356 179.824 84.9035 179.704 85.0399 179.552C85.1733 179.396 85.2764 179.217 85.3439 179.024C85.414 178.815 85.4492 178.596 85.4479 178.376C85.4508 178.156 85.4156 177.936 85.3439 177.728C85.2769 177.536 85.1737 177.358 85.0399 177.204ZM84.5799 178.724C84.5573 178.833 84.5138 178.936 84.4519 179.028C84.3929 179.116 84.3133 179.189 84.2199 179.24C84.115 179.295 83.9984 179.324 83.8799 179.324C83.7615 179.324 83.6448 179.295 83.5399 179.24C83.4466 179.189 83.367 179.116 83.3079 179.028C83.2494 178.934 83.2062 178.831 83.1799 178.724C83.1543 178.61 83.1409 178.493 83.1399 178.376C83.1412 178.259 83.1546 178.142 83.1799 178.028C83.2062 177.922 83.2494 177.82 83.3079 177.728C83.3657 177.637 83.4455 177.563 83.5399 177.512C83.6456 177.459 83.762 177.432 83.8799 177.432C83.9979 177.432 84.1143 177.459 84.2199 177.512C84.3144 177.563 84.3942 177.637 84.4519 177.728C84.5138 177.819 84.5573 177.921 84.5799 178.028C84.6333 178.257 84.6333 178.495 84.5799 178.724Z" fill="#38414A"/>
<path d="M88.5039 177.204C88.3681 177.051 88.2001 176.929 88.0119 176.848C87.8018 176.76 87.5757 176.716 87.3479 176.72C87.1188 176.716 86.8915 176.76 86.6799 176.848C86.4923 176.93 86.3245 177.051 86.1879 177.204C86.051 177.355 85.9474 177.534 85.8839 177.728C85.8109 177.936 85.7744 178.155 85.7759 178.376C85.7747 178.596 85.8098 178.815 85.8799 179.024C85.9477 179.218 86.0523 179.397 86.1879 179.552C86.324 179.704 86.492 179.824 86.6799 179.904C87.1065 180.08 87.5853 180.08 88.0119 179.904C88.1996 179.824 88.3675 179.704 88.5039 179.552C88.6373 179.396 88.7404 179.217 88.8079 179.024C88.878 178.815 88.9132 178.596 88.9119 178.376C88.9148 178.156 88.8796 177.936 88.8079 177.728C88.7444 177.534 88.6409 177.355 88.5039 177.204ZM88.0439 178.724C88.0213 178.833 87.9778 178.936 87.9159 179.028C87.8569 179.116 87.7773 179.189 87.6839 179.24C87.5806 179.299 87.4629 179.328 87.3439 179.324C87.2319 179.327 87.121 179.301 87.0216 179.249C86.9222 179.198 86.8377 179.121 86.7759 179.028C86.7144 178.935 86.6697 178.832 86.6439 178.724C86.6183 178.61 86.6049 178.493 86.6039 178.376C86.6052 178.259 86.6186 178.142 86.6439 178.028C86.6698 177.921 86.7145 177.819 86.7759 177.728C86.8332 177.638 86.9115 177.564 87.0039 177.512C87.1085 177.456 87.2256 177.429 87.3439 177.432C87.4623 177.429 87.5795 177.456 87.6839 177.512C87.7784 177.563 87.8582 177.637 87.9159 177.728C87.9778 177.819 88.0213 177.921 88.0439 178.028C88.0712 178.142 88.0847 178.259 88.0839 178.376C88.0849 178.493 88.0715 178.61 88.0439 178.724Z" fill="#38414A"/>
<path d="M90.1958 176.788H89.3638V179.968H91.6758V179.256H90.1958V176.788Z" fill="#38414A"/>
<path d="M68.8559 191.448C68.7801 190.909 68.824 190.359 68.9844 189.839C69.1448 189.318 69.4177 188.839 69.7839 188.436C69.9168 189.27 70.335 190.032 70.9671 190.592C71.5991 191.152 72.4059 191.476 73.2499 191.507C74.0938 191.539 74.9225 191.277 75.5947 190.766C76.267 190.254 76.741 189.526 76.9359 188.704C77.4315 189.53 77.6671 190.486 77.6119 191.448C80.6639 191.424 79.1599 187.936 77.0199 187.552C77.0074 187.375 76.9847 187.199 76.9519 187.024C76.8365 186.078 76.3638 185.212 75.6306 184.603C74.8974 183.994 73.9591 183.688 73.0079 183.748C70.5679 183.804 70.0359 185.64 69.9079 186.76C69.8214 187.04 69.7691 187.328 69.7519 187.62C66.5719 188.172 66.9199 191.4 68.8559 191.448ZM71.6559 186.808C71.6559 186.808 71.9679 186.916 71.9679 187.936C72.5079 188.124 73.4439 186.336 73.4439 186.336V187.728C74.0439 187.892 75.9199 187.68 75.9199 187.68L75.9879 187.736C75.9879 187.768 75.9879 187.8 75.9879 187.828C75.9697 188.507 75.6891 189.152 75.2052 189.628C74.7213 190.104 74.0717 190.374 73.3929 190.381C72.7141 190.389 72.0588 190.133 71.5649 189.667C71.0709 189.201 70.7766 188.562 70.7439 187.884C71.2879 187.712 71.6719 186.808 71.6719 186.808H71.6559Z" fill="#38414A"/>
<path d="M78.048 196.6H78.076C78.1862 196.574 78.2882 196.521 78.373 196.447C78.4579 196.372 78.523 196.277 78.5626 196.171C78.6021 196.065 78.6149 195.951 78.5998 195.839C78.5847 195.727 78.5422 195.62 78.476 195.528L75.972 192.148C75.8524 191.984 75.6959 191.851 75.5152 191.76C75.3345 191.668 75.1347 191.62 74.932 191.62H71.936C71.7459 191.621 71.5581 191.663 71.3861 191.744C71.214 191.824 71.0617 191.942 70.94 192.088L68 195.596C67.9159 195.696 67.8624 195.819 67.8461 195.949C67.8298 196.078 67.8513 196.21 67.908 196.328C67.9579 196.429 68.032 196.517 68.1236 196.583C68.2152 196.648 68.3217 196.691 68.4335 196.706C68.5454 196.721 68.6592 196.708 68.765 196.669C68.8707 196.629 68.9652 196.565 69.04 196.48L71.176 194.028L71.34 195.312L68.724 199.8H71.744V203.72H71.344V204.2H73.152V203.744V199.8H73.832V204.2H75.636V203.744H75.236V199.8H77.6L75.288 195.296L75.416 193.72L77.348 196.312C77.423 196.424 77.5296 196.511 77.6542 196.563C77.7789 196.614 77.9159 196.627 78.048 196.6Z" fill="#38414A"/>
<path d="M91.2002 183.748C90.4242 183.748 89.4202 184.376 88.8722 184.844C88.1882 185.42 88.7242 185.928 88.7242 186.888C88.7532 187.703 89.0974 188.475 89.6842 189.041C90.271 189.607 91.0547 189.924 91.8702 189.924C92.6856 189.924 93.4693 189.607 94.0561 189.041C94.6429 188.475 94.9871 187.703 95.0162 186.888C95.0162 185.804 95.3962 184.812 94.5602 184.244C94.0722 183.912 91.8682 183.748 91.2002 183.748ZM91.9402 189.304C91.6355 189.301 91.3343 189.239 91.0539 189.12C90.7734 189.001 90.5191 188.828 90.3055 188.61C90.0919 188.393 89.9233 188.136 89.8091 187.853C89.6949 187.571 89.6375 187.269 89.6402 186.964C89.6421 186.83 89.6555 186.696 89.6802 186.564C90.0058 186.498 90.3437 186.528 90.6522 186.652H91.1322C91.1322 186.652 91.1322 186.88 91.5682 186.652C92.4266 186.408 93.3319 186.379 94.2042 186.568C94.23 186.693 94.2434 186.82 94.2442 186.948C94.2489 187.253 94.1935 187.556 94.081 187.84C93.9686 188.123 93.8013 188.382 93.5888 188.601C93.3763 188.819 93.1227 188.994 92.8425 189.115C92.5624 189.236 92.2612 189.3 91.9562 189.304H91.9402Z" fill="#38414A"/>
<path d="M89.6681 190.968L86.7041 195.512C86.6141 195.651 86.5733 195.816 86.5886 195.981C86.6038 196.145 86.6741 196.3 86.7881 196.42C86.8673 196.504 86.9651 196.568 87.0735 196.607C87.182 196.646 87.2981 196.659 87.4125 196.645C87.5269 196.631 87.6365 196.59 87.7323 196.526C87.8281 196.462 87.9075 196.377 87.9641 196.276L89.7241 193.16L89.6161 198.76H90.2441V202.68H89.8441V203.14H91.6521V198.74H92.3281V203.14H94.1321V202.68H93.7321V198.76H94.4921V193.704L95.8841 195.644C95.9484 195.735 96.034 195.808 96.1334 195.857C96.2328 195.907 96.3429 195.931 96.4538 195.927C96.5647 195.923 96.6731 195.892 96.7691 195.837C96.8651 195.781 96.9459 195.703 97.0041 195.608C97.0754 195.499 97.1133 195.372 97.1133 195.242C97.1133 195.112 97.0754 194.985 97.0041 194.876L94.3801 190.96C94.2934 190.836 94.1779 190.735 94.0434 190.665C93.9089 190.595 93.7596 190.559 93.6081 190.56H90.4521C90.298 190.558 90.1457 190.595 90.009 190.666C89.8722 190.737 89.7551 190.841 89.6681 190.968Z" fill="#38414A"/>
<path d="M154 217.8C153.995 216.964 153.709 216.154 153.187 215.501C152.665 214.847 151.938 214.389 151.124 214.2C150.848 214.137 150.566 214.105 150.284 214.104C150.205 214.1 150.126 214.1 150.048 214.104C149.179 214.16 148.356 214.519 147.725 215.119C147.094 215.72 146.694 216.523 146.596 217.388C146.596 217.524 146.572 217.664 146.572 217.788C146.573 218.049 146.602 218.309 146.656 218.564C146.845 219.462 147.361 220.258 148.102 220.798C148.844 221.338 149.759 221.585 150.672 221.49C151.585 221.395 152.43 220.965 153.044 220.284C153.659 219.603 153.999 218.718 154 217.8ZM150.284 220.252C149.798 220.252 149.323 220.108 148.919 219.838C148.515 219.568 148.2 219.184 148.014 218.735C147.829 218.286 147.78 217.792 147.875 217.316C147.97 216.839 148.205 216.401 148.549 216.058C148.892 215.715 149.33 215.481 149.807 215.387C150.284 215.293 150.778 215.342 151.226 215.528C151.675 215.715 152.058 216.03 152.328 216.435C152.597 216.839 152.741 217.314 152.74 217.8C152.741 218.122 152.679 218.441 152.558 218.739C152.436 219.037 152.257 219.309 152.03 219.537C151.804 219.766 151.534 219.948 151.237 220.073C150.94 220.198 150.622 220.263 150.3 220.264L150.284 220.252Z" fill="white"/>
<path d="M150.78 216.132H149.944V217.452H148.624V218.288H150.78V217.452V216.132Z" fill="white"/>
<path d="M141.44 206.2C141.386 206.197 141.332 206.206 141.281 206.225C141.23 206.244 141.183 206.273 141.144 206.31C141.105 206.347 141.074 206.392 141.052 206.442C141.031 206.492 141.02 206.546 141.02 206.6V208.6C141.02 208.654 141.031 208.708 141.052 208.758C141.074 208.808 141.105 208.853 141.144 208.89C141.183 208.928 141.23 208.957 141.281 208.976C141.332 208.995 141.386 209.003 141.44 209H141.8C141.854 209.003 141.908 208.995 141.959 208.976C142.01 208.957 142.057 208.928 142.096 208.89C142.135 208.853 142.166 208.808 142.188 208.758C142.209 208.708 142.22 208.654 142.22 208.6V206.6C142.22 206.546 142.209 206.492 142.188 206.442C142.166 206.392 142.135 206.347 142.096 206.31C142.057 206.273 142.01 206.244 141.959 206.225C141.908 206.206 141.854 206.197 141.8 206.2H141.44Z" fill="white"/>
<path d="M148.028 206.2C147.974 206.197 147.92 206.206 147.869 206.225C147.818 206.244 147.771 206.273 147.732 206.31C147.693 206.347 147.662 206.392 147.64 206.442C147.619 206.492 147.608 206.546 147.608 206.6V208.6C147.608 208.654 147.619 208.708 147.64 208.758C147.662 208.808 147.693 208.853 147.732 208.89C147.771 208.928 147.818 208.957 147.869 208.976C147.92 208.995 147.974 209.003 148.028 209H148.4C148.454 209.003 148.508 208.995 148.559 208.976C148.61 208.957 148.656 208.928 148.696 208.89C148.735 208.853 148.766 208.808 148.788 208.758C148.809 208.708 148.82 208.654 148.82 208.6V206.6C148.82 206.546 148.809 206.492 148.788 206.442C148.766 206.392 148.735 206.347 148.696 206.31C148.656 206.273 148.61 206.244 148.559 206.225C148.508 206.206 148.454 206.197 148.4 206.2H148.028Z" fill="white"/>
<path d="M139.644 218.6H145.572C145.511 218.305 145.48 218.005 145.48 217.704C145.48 217.6 145.48 217.5 145.48 217.404H140.48C140.29 217.403 140.108 217.326 139.973 217.191C139.839 217.057 139.764 216.874 139.764 216.684V210.924H150.064V213.144H150.3C150.582 213.144 150.863 213.171 151.14 213.224V208.528C151.14 208.274 151.039 208.031 150.86 207.852C150.681 207.672 150.438 207.572 150.184 207.572H149.404V208.6C149.404 208.87 149.296 209.13 149.105 209.321C148.914 209.512 148.654 209.62 148.384 209.62H148.028C147.757 209.62 147.498 209.512 147.307 209.321C147.115 209.13 147.008 208.87 147.008 208.6V207.584H142.8V208.6C142.8 208.87 142.693 209.128 142.503 209.32C142.312 209.511 142.054 209.619 141.784 209.62H141.424C141.154 209.619 140.895 209.511 140.704 209.32C140.513 209.129 140.405 208.87 140.404 208.6V207.584H139.628C139.374 207.584 139.13 207.684 138.951 207.864C138.771 208.043 138.669 208.286 138.668 208.54V217.644C138.668 217.771 138.694 217.897 138.744 218.014C138.793 218.131 138.865 218.237 138.956 218.326C139.047 218.415 139.155 218.485 139.273 218.532C139.391 218.579 139.517 218.602 139.644 218.6Z" fill="white"/>
<path d="M142.06 213.672C142.586 213.672 143.012 213.246 143.012 212.72C143.012 212.194 142.586 211.768 142.06 211.768C141.534 211.768 141.108 212.194 141.108 212.72C141.108 213.246 141.534 213.672 142.06 213.672Z" fill="white"/>
<path d="M144.912 213.672C145.438 213.672 145.864 213.246 145.864 212.72C145.864 212.194 145.438 211.768 144.912 211.768C144.386 211.768 143.96 212.194 143.96 212.72C143.96 213.246 144.386 213.672 144.912 213.672Z" fill="white"/>
<path d="M147.764 213.672C148.29 213.672 148.716 213.246 148.716 212.72C148.716 212.194 148.29 211.768 147.764 211.768C147.238 211.768 146.812 212.194 146.812 212.72C146.812 213.246 147.238 213.672 147.764 213.672Z" fill="white"/>
<path d="M144.912 216.548C145.438 216.548 145.864 216.122 145.864 215.596C145.864 215.07 145.438 214.644 144.912 214.644C144.386 214.644 143.96 215.07 143.96 215.596C143.96 216.122 144.386 216.548 144.912 216.548Z" fill="white"/>
<path d="M142.06 216.548C142.586 216.548 143.012 216.122 143.012 215.596C143.012 215.07 142.586 214.644 142.06 214.644C141.534 214.644 141.108 215.07 141.108 215.596C141.108 216.122 141.534 216.548 142.06 216.548Z" fill="white"/>
</svg>
