<svg width="352" height="331" viewBox="0 0 352 331" fill="none" xmlns="http://www.w3.org/2000/svg">
<path d="M0 24C0 10.7452 10.7452 0 24 0H328C341.255 0 352 10.7452 352 24V290.114C352 302.89 341.991 313.427 329.232 314.083L25.2316 329.703C11.5111 330.409 0 319.474 0 305.735V24Z" fill="#F0F0F0"/>
<path fill-rule="evenodd" clip-rule="evenodd" d="M140.428 284.752C136.536 284.751 132.733 283.596 129.498 281.434C126.262 279.271 123.741 276.198 122.252 272.603C120.764 269.007 120.375 265.051 121.134 261.235C121.894 257.418 123.768 253.913 126.52 251.161C129.272 248.41 132.778 246.537 136.595 245.778C140.411 245.019 144.367 245.409 147.962 246.898C151.558 248.387 154.63 250.909 156.792 254.145C158.954 257.381 160.108 261.185 160.108 265.076C160.107 270.295 158.033 275.299 154.342 278.989C150.652 282.679 145.647 284.752 140.428 284.752Z" fill="white"/>
<path fill-rule="evenodd" clip-rule="evenodd" d="M100.64 244.028C99.5047 244.025 98.3958 243.685 97.4533 243.052C96.5108 242.419 95.7771 241.521 95.3448 240.471C94.9125 239.421 94.801 238.267 95.0244 237.154C95.2479 236.04 95.7962 235.018 96.6001 234.217C97.4041 233.415 98.4276 232.87 99.5414 232.649C100.655 232.429 101.809 232.544 102.858 232.979C103.907 233.414 104.803 234.15 105.433 235.095C106.064 236.039 106.4 237.149 106.4 238.284C106.4 239.04 106.251 239.788 105.961 240.486C105.672 241.184 105.247 241.818 104.712 242.351C104.177 242.885 103.542 243.308 102.843 243.595C102.144 243.883 101.396 244.03 100.64 244.028Z" fill="white"/>
<path fill-rule="evenodd" clip-rule="evenodd" d="M194.836 272.728C194.079 272.729 193.338 272.505 192.708 272.085C192.078 271.664 191.587 271.067 191.296 270.367C191.006 269.668 190.93 268.898 191.077 268.155C191.224 267.413 191.588 266.73 192.124 266.194C192.659 265.659 193.341 265.294 194.084 265.146C194.826 264.998 195.596 265.073 196.296 265.363C196.996 265.652 197.594 266.143 198.014 266.773C198.435 267.402 198.66 268.142 198.66 268.9C198.66 269.402 198.562 269.9 198.37 270.364C198.178 270.829 197.896 271.251 197.541 271.606C197.186 271.962 196.764 272.244 196.3 272.436C195.836 272.629 195.338 272.728 194.836 272.728Z" fill="white"/>
<path fill-rule="evenodd" clip-rule="evenodd" d="M247.8 92.0242C247.042 92.025 246.302 91.801 245.672 91.3807C245.041 90.9604 244.55 90.3626 244.26 89.6629C243.97 88.9633 243.894 88.1933 244.041 87.4503C244.189 86.7074 244.553 86.025 245.089 85.4894C245.625 84.9538 246.307 84.5891 247.05 84.4415C247.793 84.2939 248.563 84.3701 249.263 84.6603C249.962 84.9506 250.56 85.4418 250.98 86.0719C251.401 86.7021 251.625 87.4427 251.624 88.2002C251.624 89.2144 251.221 90.187 250.504 90.9041C249.787 91.6213 248.814 92.0242 247.8 92.0242Z" fill="white"/>
<path fill-rule="evenodd" clip-rule="evenodd" d="M224.94 135.572H233.512V134.824C233.511 133.615 233.03 132.457 232.175 131.602C231.32 130.748 230.161 130.268 228.952 130.268H204.356C203.757 130.268 203.164 130.385 202.611 130.614C202.058 130.842 201.555 131.178 201.132 131.601C200.708 132.024 200.372 132.527 200.143 133.08C199.914 133.633 199.796 134.225 199.796 134.824V207.528H218.912V141.6C218.912 140.001 219.547 138.468 220.677 137.338C221.808 136.207 223.341 135.572 224.94 135.572Z" fill="#DDDDDD"/>
<path fill-rule="evenodd" clip-rule="evenodd" d="M173.916 207.528H194.824V144.628H173.916V207.528Z" fill="#D0DBF0"/>
<path fill-rule="evenodd" clip-rule="evenodd" d="M225.836 126.808H207.472C207.305 126.808 207.14 126.776 206.985 126.713C206.831 126.649 206.691 126.556 206.573 126.438C206.454 126.32 206.361 126.18 206.297 126.026C206.233 125.872 206.2 125.707 206.2 125.54V118.088C206.2 117.751 206.334 117.427 206.572 117.188C206.811 116.95 207.134 116.816 207.472 116.816H225.836C226.172 116.817 226.495 116.951 226.733 117.19C226.97 117.428 227.104 117.751 227.104 118.088V125.54C227.104 125.876 226.97 126.199 226.732 126.437C226.495 126.674 226.172 126.808 225.836 126.808Z" fill="#DDDDDD"/>
<path fill-rule="evenodd" clip-rule="evenodd" d="M169.388 207.532H126.832V100.444C126.829 99.8947 126.953 99.3518 127.193 98.8573C127.433 98.3628 127.783 97.9298 128.216 97.5915C128.649 97.2533 129.154 97.0187 129.692 96.9058C130.23 96.7929 130.787 96.8048 131.32 96.9404L166.648 105.74C167.431 105.933 168.127 106.383 168.624 107.019C169.12 107.654 169.389 108.438 169.388 109.244V207.532Z" fill="#E8E8E8"/>
<path fill-rule="evenodd" clip-rule="evenodd" d="M107.964 207.532V170.516C107.964 168.925 108.596 167.399 109.721 166.273C110.846 165.148 112.373 164.516 113.964 164.516H120.764V207.532H107.964Z" fill="#E8E8E8"/>
<path fill-rule="evenodd" clip-rule="evenodd" d="M215.144 200.484C214.72 200.484 214.313 200.315 214.013 200.015C213.713 199.715 213.544 199.308 213.544 198.884V142.704C213.544 142.28 213.713 141.873 214.013 141.573C214.313 141.273 214.72 141.104 215.144 141.104C215.568 141.104 215.975 141.273 216.275 141.573C216.575 141.873 216.744 142.28 216.744 142.704V198.888C216.743 199.312 216.574 199.718 216.274 200.017C215.974 200.316 215.568 200.484 215.144 200.484Z" fill="#C0CBE2"/>
<path fill-rule="evenodd" clip-rule="evenodd" d="M206.288 200.484C205.864 200.484 205.457 200.315 205.157 200.015C204.857 199.715 204.688 199.308 204.688 198.884V142.704C204.688 142.28 204.857 141.873 205.157 141.573C205.457 141.273 205.864 141.104 206.288 141.104C206.712 141.104 207.119 141.273 207.419 141.573C207.719 141.873 207.888 142.28 207.888 142.704V198.888C207.887 199.312 207.718 199.718 207.418 200.017C207.118 200.316 206.712 200.484 206.288 200.484Z" fill="#C0CBE2"/>
<path fill-rule="evenodd" clip-rule="evenodd" d="M161.32 121.8H136.12C135.475 121.774 134.864 121.5 134.417 121.034C133.97 120.569 133.72 119.948 133.72 119.302C133.72 118.656 133.97 118.036 134.417 117.57C134.864 117.105 135.475 116.83 136.12 116.804H161.32C161.965 116.83 162.575 117.105 163.023 117.57C163.47 118.036 163.72 118.656 163.72 119.302C163.72 119.948 163.47 120.569 163.023 121.034C162.575 121.5 161.965 121.774 161.32 121.8Z" fill="#C1CAE7"/>
<path fill-rule="evenodd" clip-rule="evenodd" d="M161.32 132.764H136.12C135.475 132.738 134.864 132.464 134.417 131.998C133.97 131.532 133.72 130.912 133.72 130.266C133.72 129.62 133.97 129 134.417 128.534C134.864 128.068 135.475 127.794 136.12 127.768H161.32C161.965 127.794 162.575 128.068 163.023 128.534C163.47 129 163.72 129.62 163.72 130.266C163.72 130.912 163.47 131.532 163.023 131.998C162.575 132.464 161.965 132.738 161.32 132.764Z" fill="#C1CAE7"/>
<path fill-rule="evenodd" clip-rule="evenodd" d="M161.32 143.716H136.12C135.475 143.69 134.864 143.416 134.417 142.95C133.97 142.485 133.72 141.864 133.72 141.218C133.72 140.572 133.97 139.952 134.417 139.486C134.864 139.021 135.475 138.746 136.12 138.72H161.32C161.965 138.746 162.575 139.021 163.023 139.486C163.47 139.952 163.72 140.572 163.72 141.218C163.72 141.864 163.47 142.485 163.023 142.95C162.575 143.416 161.965 143.69 161.32 143.716Z" fill="#C1CAE7"/>
<path fill-rule="evenodd" clip-rule="evenodd" d="M161.32 154.668H136.12C135.475 154.643 134.864 154.368 134.417 153.902C133.97 153.437 133.72 152.816 133.72 152.17C133.72 151.525 133.97 150.904 134.417 150.438C134.864 149.973 135.475 149.698 136.12 149.672H161.32C161.965 149.698 162.575 149.973 163.023 150.438C163.47 150.904 163.72 151.525 163.72 152.17C163.72 152.816 163.47 153.437 163.023 153.902C162.575 154.368 161.965 154.643 161.32 154.668Z" fill="#C1CAE7"/>
<path fill-rule="evenodd" clip-rule="evenodd" d="M161.32 165.62H136.12C135.475 165.594 134.864 165.32 134.417 164.854C133.97 164.388 133.72 163.768 133.72 163.122C133.72 162.476 133.97 161.856 134.417 161.39C134.864 160.924 135.475 160.65 136.12 160.624H161.32C161.965 160.65 162.575 160.924 163.023 161.39C163.47 161.856 163.72 162.476 163.72 163.122C163.72 163.768 163.47 164.388 163.023 164.854C162.575 165.32 161.965 165.594 161.32 165.62Z" fill="#C1CAE7"/>
<path fill-rule="evenodd" clip-rule="evenodd" d="M161.32 176.572H136.12C135.475 176.546 134.864 176.272 134.417 175.806C133.97 175.341 133.72 174.72 133.72 174.074C133.72 173.428 133.97 172.808 134.417 172.342C134.864 171.876 135.475 171.602 136.12 171.576H161.32C161.965 171.602 162.575 171.876 163.023 172.342C163.47 172.808 163.72 173.428 163.72 174.074C163.72 174.72 163.47 175.341 163.023 175.806C162.575 176.272 161.965 176.546 161.32 176.572Z" fill="#C1CAE7"/>
<path fill-rule="evenodd" clip-rule="evenodd" d="M161.32 187.524H136.12C135.475 187.498 134.864 187.224 134.417 186.758C133.97 186.293 133.72 185.672 133.72 185.026C133.72 184.381 133.97 183.76 134.417 183.294C134.864 182.829 135.475 182.554 136.12 182.528H161.32C161.965 182.554 162.575 182.829 163.023 183.294C163.47 183.76 163.72 184.381 163.72 185.026C163.72 185.672 163.47 186.293 163.023 186.758C162.575 187.224 161.965 187.498 161.32 187.524Z" fill="#C1CAE7"/>
<path fill-rule="evenodd" clip-rule="evenodd" d="M161.32 198.476H136.12C135.475 198.45 134.864 198.176 134.417 197.71C133.97 197.244 133.72 196.624 133.72 195.978C133.72 195.332 133.97 194.712 134.417 194.246C134.864 193.78 135.475 193.506 136.12 193.48H161.32C161.965 193.506 162.575 193.78 163.023 194.246C163.47 194.712 163.72 195.332 163.72 195.978C163.72 196.624 163.47 197.244 163.023 197.71C162.575 198.176 161.965 198.45 161.32 198.476Z" fill="#C1CAE7"/>
<path fill-rule="evenodd" clip-rule="evenodd" d="M98.1476 207.532H64.4316V141.02C64.4316 140.304 64.5727 139.596 64.8467 138.934C65.1208 138.273 65.5224 137.672 66.0287 137.167C66.5351 136.661 67.1361 136.259 67.7976 135.986C68.459 135.712 69.1679 135.572 69.8836 135.572H92.6836C94.1285 135.572 95.5143 136.146 96.536 137.168C97.5577 138.19 98.1316 139.575 98.1316 141.02L98.1476 207.532Z" fill="#DDDDDD"/>
<path opacity="0.5" fill-rule="evenodd" clip-rule="evenodd" d="M91.7638 149.912H70.7998C70.2365 149.912 69.6962 149.688 69.2979 149.29C68.8996 148.892 68.6758 148.351 68.6758 147.788V147.708C68.6758 147.144 68.8994 146.604 69.2976 146.205C69.6959 145.806 70.2361 145.581 70.7998 145.58H91.7478C92.3115 145.581 92.8517 145.806 93.2499 146.205C93.6481 146.604 93.8718 147.144 93.8718 147.708V147.788C93.8718 148.349 93.6502 148.886 93.2553 149.284C92.8605 149.682 92.3243 149.908 91.7638 149.912Z" fill="white"/>
<path opacity="0.5" fill-rule="evenodd" clip-rule="evenodd" d="M91.7638 159.4H70.7998C70.2361 159.399 69.6959 159.175 69.2976 158.776C68.8994 158.377 68.6758 157.836 68.6758 157.272V157.192C68.6758 156.629 68.8996 156.089 69.2979 155.69C69.6962 155.292 70.2365 155.068 70.7998 155.068H91.7478C92.3111 155.068 92.8513 155.292 93.2497 155.69C93.648 156.089 93.8718 156.629 93.8718 157.192V157.272C93.8718 157.833 93.6504 158.372 93.2556 158.77C92.8608 159.169 92.3247 159.395 91.7638 159.4Z" fill="white"/>
<path opacity="0.5" fill-rule="evenodd" clip-rule="evenodd" d="M91.7638 168.892H70.7998C70.2365 168.892 69.6962 168.668 69.2979 168.27C68.8996 167.872 68.6758 167.331 68.6758 166.768V166.688C68.6758 166.125 68.8996 165.584 69.2979 165.186C69.6962 164.788 70.2365 164.564 70.7998 164.564H91.7478C92.3111 164.564 92.8513 164.788 93.2497 165.186C93.648 165.584 93.8718 166.125 93.8718 166.688V166.768C93.8718 167.329 93.6502 167.866 93.2553 168.264C92.8605 168.662 92.3243 168.888 91.7638 168.892Z" fill="white"/>
<path opacity="0.5" fill-rule="evenodd" clip-rule="evenodd" d="M91.7638 178.384H70.7998C70.2365 178.384 69.6962 178.16 69.2979 177.762C68.8996 177.364 68.6758 176.824 68.6758 176.26V176.176C68.6758 175.613 68.8996 175.073 69.2979 174.674C69.6962 174.276 70.2365 174.052 70.7998 174.052H91.7478C92.3111 174.052 92.8513 174.276 93.2497 174.674C93.648 175.073 93.8718 175.613 93.8718 176.176V176.26C93.8718 176.821 93.6502 177.359 93.2553 177.757C92.8605 178.154 92.3243 178.38 91.7638 178.384Z" fill="white"/>
<path opacity="0.5" fill-rule="evenodd" clip-rule="evenodd" d="M91.7638 187.872H70.7998C70.2365 187.872 69.6962 187.648 69.2979 187.25C68.8996 186.852 68.6758 186.311 68.6758 185.748V185.668C68.6758 185.105 68.8996 184.564 69.2979 184.166C69.6962 183.768 70.2365 183.544 70.7998 183.544H91.7478C92.3111 183.544 92.8513 183.768 93.2497 184.166C93.648 184.564 93.8718 185.105 93.8718 185.668V185.748C93.8718 186.309 93.6502 186.846 93.2553 187.244C92.8605 187.642 92.3243 187.868 91.7638 187.872Z" fill="white"/>
<path opacity="0.5" fill-rule="evenodd" clip-rule="evenodd" d="M91.7638 197.364H70.7998C70.2365 197.364 69.6962 197.14 69.2979 196.742C68.8996 196.344 68.6758 195.803 68.6758 195.24V195.16C68.6758 194.597 68.8996 194.057 69.2979 193.658C69.6962 193.26 70.2365 193.036 70.7998 193.036H91.7478C92.3111 193.036 92.8513 193.26 93.2497 193.658C93.648 194.057 93.8718 194.597 93.8718 195.16V195.24C93.8718 195.801 93.6502 196.339 93.2553 196.736C92.8605 197.134 92.3243 197.36 91.7638 197.364Z" fill="white"/>
<path fill-rule="evenodd" clip-rule="evenodd" d="M262.216 210.548H220.948V144.62C220.951 143.022 221.588 141.491 222.719 140.363C223.85 139.234 225.382 138.6 226.98 138.6H256.18C256.971 138.6 257.755 138.756 258.487 139.059C259.218 139.362 259.882 139.806 260.442 140.366C261.002 140.925 261.446 141.59 261.749 142.321C262.052 143.053 262.208 143.836 262.208 144.628L262.216 210.548Z" fill="#DDDDDD"/>
<path opacity="0.5" fill-rule="evenodd" clip-rule="evenodd" d="M254.84 152.932H228.328C227.769 152.908 227.242 152.669 226.855 152.266C226.469 151.862 226.253 151.325 226.253 150.766C226.253 150.207 226.469 149.67 226.855 149.266C227.242 148.863 227.769 148.624 228.328 148.6H254.84C255.398 148.624 255.926 148.863 256.312 149.266C256.699 149.67 256.915 150.207 256.915 150.766C256.915 151.325 256.699 151.862 256.312 152.266C255.926 152.669 255.398 152.908 254.84 152.932Z" fill="white"/>
<path opacity="0.5" fill-rule="evenodd" clip-rule="evenodd" d="M254.84 162.42H228.328C227.754 162.42 227.203 162.192 226.797 161.786C226.392 161.381 226.164 160.83 226.164 160.256C226.164 159.682 226.392 159.132 226.797 158.726C227.203 158.32 227.754 158.092 228.328 158.092H254.84C255.414 158.092 255.964 158.32 256.37 158.726C256.776 159.132 257.004 159.682 257.004 160.256C257.004 160.83 256.776 161.381 256.37 161.786C255.964 162.192 255.414 162.42 254.84 162.42Z" fill="white"/>
<path opacity="0.5" fill-rule="evenodd" clip-rule="evenodd" d="M254.84 171.912H228.328C227.769 171.888 227.242 171.649 226.855 171.246C226.469 170.842 226.253 170.305 226.253 169.746C226.253 169.187 226.469 168.65 226.855 168.246C227.242 167.843 227.769 167.604 228.328 167.58H254.84C255.398 167.604 255.926 167.843 256.312 168.246C256.699 168.65 256.915 169.187 256.915 169.746C256.915 170.305 256.699 170.842 256.312 171.246C255.926 171.649 255.398 171.888 254.84 171.912Z" fill="white"/>
<path fill-rule="evenodd" clip-rule="evenodd" d="M118.22 138.72C116.632 138.72 115.109 138.091 113.984 136.97C112.859 135.849 112.225 134.328 112.22 132.74V121.772H90.0957V131.772H95.8877C96.7091 131.771 97.5225 131.933 98.2815 132.247C99.0405 132.561 99.7301 133.021 100.311 133.602C100.892 134.182 101.353 134.872 101.667 135.631C101.982 136.389 102.144 137.203 102.144 138.024V207.528H105.444V168.248C105.444 166.488 106.143 164.8 107.387 163.556C108.632 162.311 110.32 161.612 112.08 161.612H120.8V138.72H118.22Z" fill="#E8E8E8"/>
<path fill-rule="evenodd" clip-rule="evenodd" d="M222.644 110.34H210.644C210.306 110.34 209.983 110.206 209.744 109.967C209.506 109.729 209.372 109.405 209.372 109.068V103.168C209.372 103.001 209.405 102.836 209.468 102.682C209.532 102.528 209.626 102.388 209.744 102.27C209.863 102.152 210.003 102.059 210.157 101.995C210.311 101.932 210.477 101.899 210.644 101.9H222.644C222.98 101.9 223.302 102.033 223.54 102.271C223.778 102.509 223.912 102.832 223.912 103.168V109.068C223.912 109.235 223.88 109.4 223.816 109.554C223.753 109.709 223.659 109.849 223.542 109.967C223.424 110.085 223.284 110.179 223.13 110.243C222.976 110.307 222.81 110.34 222.644 110.34Z" fill="#DDDDDD"/>
<path fill-rule="evenodd" clip-rule="evenodd" d="M218.912 99.5201H214.4V87.8001C214.4 87.5699 214.491 87.3491 214.654 87.1864C214.817 87.0236 215.038 86.9321 215.268 86.9321H218.068C218.298 86.9321 218.519 87.0236 218.682 87.1864C218.844 87.3491 218.936 87.5699 218.936 87.8001L218.912 99.5201Z" fill="#DDDDDD"/>
<path fill-rule="evenodd" clip-rule="evenodd" d="M230.116 218.6H97.2838C96.3821 218.6 95.5173 218.242 94.8796 217.604C94.242 216.967 93.8838 216.102 93.8838 215.2C93.8838 214.299 94.242 213.434 94.8796 212.796C95.5173 212.158 96.3821 211.8 97.2838 211.8H230.116C231.018 211.8 231.882 212.158 232.52 212.796C233.158 213.434 233.516 214.299 233.516 215.2C233.516 216.102 233.158 216.967 232.52 217.604C231.882 218.242 231.018 218.6 230.116 218.6Z" fill="#7E89A0"/>
<path fill-rule="evenodd" clip-rule="evenodd" d="M310.964 224.64C310.963 220.308 309.241 216.153 306.178 213.09C303.115 210.027 298.96 208.305 294.628 208.304H59.5358C58.2988 208.304 57.1125 207.813 56.2379 206.938C55.3632 206.063 54.8718 204.877 54.8718 203.64C54.8718 202.403 55.3632 201.217 56.2379 200.342C57.1125 199.468 58.2988 198.976 59.5358 198.976H60.9118V191.972H52.0838C47.796 192.039 43.7066 193.79 40.6981 196.846C37.6896 199.902 36.0034 204.018 36.0034 208.306C36.0034 212.594 37.6896 216.711 40.6981 219.767C43.7066 222.823 47.796 224.573 52.0838 224.64H289.964C291.201 224.64 292.387 225.132 293.262 226.006C294.136 226.881 294.628 228.067 294.628 229.304C294.628 230.541 294.136 231.727 293.262 232.602C292.387 233.477 291.201 233.968 289.964 233.968H258.268C257.798 233.952 257.33 234.031 256.891 234.2C256.452 234.369 256.052 234.624 255.714 234.951C255.376 235.278 255.107 235.669 254.924 236.102C254.74 236.535 254.645 237 254.645 237.47C254.645 237.94 254.74 238.406 254.924 238.838C255.107 239.271 255.376 239.663 255.714 239.989C256.052 240.316 256.452 240.572 256.891 240.74C257.33 240.909 257.798 240.988 258.268 240.972H294.82C299.119 240.924 303.226 239.182 306.248 236.124C309.271 233.066 310.965 228.94 310.964 224.64Z" fill="#CCCCCC"/>
<path fill-rule="evenodd" clip-rule="evenodd" d="M241.244 233.968H218.644C217.736 233.999 216.875 234.381 216.243 235.035C215.611 235.688 215.258 236.561 215.258 237.47C215.258 238.379 215.611 239.252 216.243 239.906C216.875 240.559 217.736 240.942 218.644 240.972H241.244C241.714 240.988 242.182 240.909 242.621 240.741C243.06 240.572 243.46 240.316 243.798 239.99C244.136 239.663 244.405 239.271 244.588 238.839C244.772 238.406 244.866 237.94 244.866 237.47C244.866 237 244.772 236.535 244.588 236.102C244.405 235.669 244.136 235.278 243.798 234.951C243.46 234.624 243.06 234.369 242.621 234.2C242.182 234.031 241.714 233.952 241.244 233.968Z" fill="#CCCCCC"/>
<path fill-rule="evenodd" clip-rule="evenodd" d="M203.976 284.524H141.512C137.125 284.524 132.918 282.782 129.816 279.68C126.714 276.578 124.972 272.371 124.972 267.984V113.056C124.972 108.669 126.714 104.462 129.816 101.361C132.918 98.2587 137.125 96.5161 141.512 96.5161H203.976C206.148 96.5156 208.299 96.943 210.306 97.774C212.314 98.605 214.137 99.8232 215.674 101.359C217.21 102.895 218.429 104.719 219.26 106.726C220.092 108.733 220.52 110.884 220.52 113.056V267.984C220.52 270.157 220.092 272.308 219.26 274.315C218.429 276.322 217.21 278.145 215.674 279.681C214.137 281.217 212.314 282.435 210.306 283.266C208.299 284.097 206.148 284.525 203.976 284.524Z" fill="#635252"/>
<path fill-rule="evenodd" clip-rule="evenodd" d="M200.4 279.68H145.088C141.038 279.68 137.153 278.071 134.289 275.207C131.425 272.343 129.816 268.459 129.816 264.408V116.632C129.816 112.582 131.425 108.697 134.289 105.833C137.153 102.969 141.038 101.36 145.088 101.36H200.4C204.45 101.36 208.335 102.969 211.199 105.833C214.063 108.697 215.672 112.582 215.672 116.632V264.408C215.672 268.459 214.063 272.343 211.199 275.207C208.335 278.071 204.45 279.68 200.4 279.68Z" fill="#FFE3E0"/>
<path fill-rule="evenodd" clip-rule="evenodd" d="M200.4 279.68H145.088C141.038 279.68 137.153 278.071 134.289 275.207C131.425 272.343 129.816 268.459 129.816 264.408V116.632C129.816 112.582 131.425 108.697 134.289 105.833C137.153 102.969 141.038 101.36 145.088 101.36H200.4C204.45 101.36 208.335 102.969 211.199 105.833C214.063 108.697 215.672 112.582 215.672 116.632V264.408C215.672 268.459 214.063 272.343 211.199 275.207C208.335 278.071 204.45 279.68 200.4 279.68Z" fill="#F00020"/>
<path fill-rule="evenodd" clip-rule="evenodd" d="M186.528 108.072H158.96C157.303 108.072 155.714 107.414 154.542 106.242C153.37 105.071 152.712 103.481 152.712 101.824V99.0483H192.8V101.824C192.799 102.647 192.637 103.461 192.321 104.22C192.005 104.98 191.543 105.669 190.96 106.25C190.378 106.83 189.686 107.29 188.926 107.603C188.165 107.915 187.35 108.075 186.528 108.072Z" fill="#635252"/>
<path fill-rule="evenodd" clip-rule="evenodd" d="M198.324 254.6H147.164C146.651 254.588 146.146 254.475 145.677 254.267C145.208 254.06 144.785 253.762 144.431 253.39C144.078 253.018 143.801 252.581 143.617 252.102C143.434 251.623 143.346 251.113 143.36 250.6V198C143.346 197.487 143.434 196.977 143.617 196.498C143.801 196.019 144.078 195.582 144.431 195.21C144.785 194.838 145.208 194.54 145.677 194.333C146.146 194.125 146.651 194.012 147.164 194H198.324C198.837 194.012 199.342 194.125 199.811 194.333C200.28 194.54 200.703 194.838 201.056 195.21C201.41 195.582 201.686 196.019 201.87 196.498C202.054 196.977 202.142 197.487 202.128 198V250.6C202.142 251.113 202.054 251.623 201.87 252.102C201.686 252.581 201.41 253.018 201.056 253.39C200.703 253.762 200.28 254.06 199.811 254.267C199.342 254.475 198.837 254.588 198.324 254.6Z" fill="#E5E5E5"/>
<path fill-rule="evenodd" clip-rule="evenodd" d="M196.964 141.04H148.524C147.976 141.016 147.459 140.782 147.079 140.386C146.7 139.99 146.488 139.462 146.488 138.914C146.488 138.366 146.7 137.838 147.079 137.442C147.459 137.046 147.976 136.812 148.524 136.788H196.964C197.512 136.812 198.029 137.046 198.409 137.442C198.788 137.838 199 138.366 199 138.914C199 139.462 198.788 139.99 198.409 140.386C198.029 140.782 197.512 141.016 196.964 141.04Z" fill="white"/>
<path fill-rule="evenodd" clip-rule="evenodd" d="M186.48 150.892H159.008C158.444 150.892 157.904 150.668 157.506 150.27C157.108 149.872 156.884 149.331 156.884 148.768C156.884 148.205 157.108 147.664 157.506 147.266C157.904 146.868 158.444 146.644 159.008 146.644H186.48C187.043 146.644 187.583 146.868 187.982 147.266C188.38 147.664 188.604 148.205 188.604 148.768C188.604 149.331 188.38 149.872 187.982 150.27C187.583 150.668 187.043 150.892 186.48 150.892Z" fill="white"/>
<path fill-rule="evenodd" clip-rule="evenodd" d="M202 258.708H143.504C142.975 258.698 142.452 258.584 141.968 258.372C141.483 258.16 141.044 257.855 140.677 257.473C140.311 257.091 140.023 256.641 139.83 256.148C139.638 255.655 139.545 255.129 139.556 254.6V201.488C139.544 200.96 139.637 200.434 139.83 199.942C140.022 199.45 140.31 199.001 140.677 198.621C141.045 198.241 141.483 197.937 141.968 197.728C142.453 197.518 142.975 197.407 143.504 197.4H202C202.528 197.407 203.049 197.519 203.534 197.729C204.018 197.939 204.457 198.242 204.823 198.622C205.19 199.002 205.478 199.451 205.67 199.943C205.862 200.435 205.955 200.96 205.944 201.488V254.6C205.955 255.129 205.862 255.655 205.67 256.148C205.478 256.641 205.191 257.091 204.825 257.473C204.458 257.854 204.02 258.16 203.535 258.372C203.05 258.584 202.529 258.698 202 258.708Z" fill="#EEEEEE"/>
<path fill-rule="evenodd" clip-rule="evenodd" d="M205.424 261.736H140.064C139.531 261.738 139.003 261.634 138.51 261.431C138.017 261.228 137.569 260.93 137.191 260.554C136.814 260.177 136.514 259.73 136.31 259.238C136.105 258.745 136 258.217 136 257.684V204.484C136 203.409 136.427 202.379 137.187 201.619C137.947 200.859 138.977 200.432 140.052 200.432H205.412C205.944 200.432 206.472 200.536 206.964 200.739C207.456 200.943 207.903 201.241 208.28 201.618C208.656 201.994 208.955 202.441 209.159 202.933C209.363 203.424 209.468 203.952 209.468 204.484V257.684C209.468 258.757 209.042 259.787 208.284 260.546C207.526 261.306 206.497 261.734 205.424 261.736Z" fill="white"/>
<path fill-rule="evenodd" clip-rule="evenodd" d="M150 222.124C148.387 222.124 146.811 221.646 145.471 220.75C144.13 219.855 143.085 218.582 142.468 217.092C141.851 215.602 141.69 213.963 142.004 212.382C142.319 210.801 143.095 209.348 144.235 208.208C145.375 207.068 146.828 206.292 148.409 205.977C149.991 205.662 151.63 205.824 153.119 206.441C154.609 207.058 155.882 208.103 156.778 209.443C157.674 210.784 158.152 212.36 158.152 213.972C158.152 215.043 157.942 216.103 157.532 217.093C157.123 218.082 156.522 218.981 155.765 219.738C155.008 220.495 154.109 221.095 153.12 221.505C152.131 221.914 151.07 222.125 150 222.124Z" fill="#EFEFEF"/>
<path fill-rule="evenodd" clip-rule="evenodd" d="M195.564 212.052H164.24C164.057 212.062 163.874 212.034 163.702 211.971C163.53 211.908 163.373 211.811 163.24 211.685C163.106 211.559 163.001 211.407 162.928 211.239C162.856 211.07 162.818 210.889 162.818 210.706C162.818 210.523 162.856 210.341 162.928 210.173C163.001 210.005 163.106 209.853 163.24 209.727C163.373 209.601 163.53 209.504 163.702 209.44C163.874 209.377 164.057 209.35 164.24 209.36H195.564C195.747 209.35 195.93 209.377 196.102 209.44C196.274 209.504 196.431 209.601 196.564 209.727C196.697 209.853 196.803 210.005 196.875 210.173C196.948 210.341 196.985 210.523 196.985 210.706C196.985 210.889 196.948 211.07 196.875 211.239C196.803 211.407 196.697 211.559 196.564 211.685C196.431 211.811 196.274 211.908 196.102 211.971C195.93 212.034 195.747 212.062 195.564 212.052Z" fill="#EFEFEF"/>
<path fill-rule="evenodd" clip-rule="evenodd" d="M136 227.88H209.476V227.68H136V227.88Z" fill="#E2E2E2"/>
<path fill-rule="evenodd" clip-rule="evenodd" d="M201.156 254.412H145.656C144.933 254.412 144.24 254.125 143.729 253.614C143.219 253.103 142.932 252.41 142.932 251.688V245.476C142.932 244.754 143.219 244.061 143.729 243.55C144.24 243.039 144.933 242.752 145.656 242.752H201.156C201.878 242.752 202.571 243.039 203.082 243.55C203.593 244.061 203.88 244.754 203.88 245.476V251.688C203.88 252.41 203.593 253.103 203.082 253.614C202.571 254.125 201.878 254.412 201.156 254.412Z" fill="#F00020"/>
<path fill-rule="evenodd" clip-rule="evenodd" d="M166.932 217.296C166.974 217.254 167.003 217.201 167.017 217.143C167.03 217.085 167.027 217.024 167.008 216.968C166.992 216.912 166.96 216.862 166.916 216.824C166.872 216.785 166.818 216.761 166.76 216.752L165.74 216.596C165.729 216.595 165.719 216.591 165.711 216.585C165.702 216.579 165.696 216.57 165.692 216.56L165.236 215.592C165.212 215.538 165.173 215.493 165.124 215.46C165.074 215.428 165.017 215.411 164.958 215.411C164.899 215.411 164.841 215.428 164.792 215.46C164.743 215.493 164.704 215.538 164.68 215.592L164.224 216.56C164.219 216.57 164.213 216.578 164.204 216.584C164.196 216.59 164.186 216.594 164.176 216.596L163.156 216.752C163.098 216.761 163.043 216.786 162.999 216.824C162.954 216.862 162.921 216.912 162.904 216.968C162.886 217.025 162.884 217.085 162.899 217.143C162.913 217.201 162.942 217.254 162.984 217.296L163.724 218.052C163.731 218.06 163.736 218.068 163.74 218.078C163.743 218.088 163.745 218.098 163.744 218.108L163.568 219.172C163.558 219.23 163.564 219.29 163.585 219.345C163.606 219.399 163.642 219.448 163.688 219.484C163.733 219.521 163.788 219.543 163.846 219.547C163.904 219.551 163.962 219.538 164.012 219.508L164.928 219.008C164.937 219.002 164.947 218.999 164.958 218.999C164.969 218.999 164.979 219.002 164.988 219.008L165.9 219.508C165.943 219.534 165.993 219.548 166.044 219.548C166.11 219.549 166.173 219.526 166.224 219.484C166.271 219.448 166.308 219.4 166.33 219.345C166.351 219.29 166.358 219.23 166.348 219.172L166.172 218.108C166.171 218.086 166.178 218.065 166.192 218.048L166.932 217.296Z" fill="#FFD400"/>
<path fill-rule="evenodd" clip-rule="evenodd" d="M171.832 217.296C171.874 217.254 171.904 217.201 171.919 217.143C171.933 217.085 171.93 217.025 171.912 216.968C171.896 216.912 171.864 216.862 171.82 216.824C171.776 216.785 171.722 216.76 171.664 216.752L170.64 216.6C170.629 216.598 170.62 216.594 170.611 216.588C170.603 216.582 170.596 216.573 170.592 216.564L170.136 215.596C170.111 215.543 170.072 215.498 170.024 215.467C169.975 215.435 169.918 215.417 169.86 215.416C169.801 215.417 169.745 215.434 169.696 215.466C169.647 215.498 169.608 215.543 169.584 215.596L169.124 216.564C169.12 216.573 169.114 216.582 169.107 216.588C169.099 216.594 169.09 216.598 169.08 216.6L168.056 216.756C167.998 216.764 167.944 216.789 167.9 216.828C167.856 216.866 167.824 216.916 167.808 216.972C167.789 217.028 167.786 217.089 167.8 217.147C167.813 217.205 167.842 217.258 167.884 217.3L168.624 218.056C168.631 218.063 168.637 218.072 168.641 218.082C168.644 218.091 168.645 218.102 168.644 218.112L168.468 219.176C168.458 219.234 168.464 219.294 168.485 219.348C168.506 219.403 168.542 219.452 168.588 219.488C168.634 219.524 168.69 219.546 168.748 219.551C168.807 219.555 168.865 219.541 168.916 219.512L169.832 219.012C169.84 219.006 169.85 219.003 169.86 219.003C169.87 219.003 169.88 219.006 169.888 219.012L170.8 219.512C170.843 219.538 170.893 219.552 170.944 219.552C171.011 219.553 171.076 219.53 171.128 219.488C171.174 219.452 171.21 219.404 171.232 219.349C171.254 219.294 171.261 219.234 171.252 219.176L171.076 218.112C171.068 218.093 171.068 218.071 171.076 218.052L171.832 217.296Z" fill="#FFD400"/>
<path fill-rule="evenodd" clip-rule="evenodd" d="M177.1 217.296C177.143 217.254 177.173 217.201 177.187 217.144C177.201 217.086 177.199 217.025 177.18 216.968C177.164 216.912 177.132 216.862 177.088 216.824C177.044 216.785 176.99 216.761 176.932 216.752L175.908 216.596C175.898 216.594 175.889 216.59 175.88 216.583C175.872 216.577 175.865 216.569 175.86 216.56L175.404 215.592C175.38 215.539 175.341 215.495 175.292 215.463C175.243 215.431 175.186 215.413 175.128 215.412C175.07 215.413 175.013 215.43 174.964 215.462C174.915 215.494 174.876 215.539 174.852 215.592L174.4 216.56C174.397 216.569 174.391 216.578 174.383 216.584C174.375 216.59 174.366 216.595 174.356 216.596L173.332 216.752C173.274 216.761 173.22 216.785 173.176 216.824C173.132 216.862 173.1 216.912 173.084 216.968C173.066 217.024 173.063 217.085 173.076 217.143C173.09 217.201 173.119 217.254 173.16 217.296L173.9 218.052C173.904 218.061 173.907 218.07 173.907 218.08C173.907 218.09 173.904 218.099 173.9 218.108L173.724 219.172C173.714 219.23 173.721 219.29 173.743 219.345C173.764 219.4 173.801 219.448 173.848 219.484C173.893 219.521 173.948 219.543 174.006 219.547C174.064 219.551 174.122 219.538 174.172 219.508L175.088 219.008C175.096 219.002 175.106 218.999 175.116 218.999C175.126 218.999 175.136 219.002 175.144 219.008L176.06 219.508C176.103 219.535 176.153 219.549 176.204 219.548C176.27 219.548 176.333 219.526 176.384 219.484C176.431 219.448 176.467 219.4 176.489 219.345C176.51 219.29 176.517 219.23 176.508 219.172L176.332 218.108C176.325 218.089 176.325 218.067 176.332 218.048L177.1 217.296Z" fill="#FFD400"/>
<path fill-rule="evenodd" clip-rule="evenodd" d="M182 217.296C182.042 217.254 182.072 217.201 182.087 217.143C182.101 217.085 182.098 217.025 182.08 216.968C182.064 216.912 182.032 216.862 181.988 216.824C181.944 216.785 181.89 216.76 181.832 216.752L180.8 216.6C180.79 216.598 180.781 216.594 180.773 216.588C180.765 216.582 180.759 216.573 180.756 216.564L180.296 215.596C180.271 215.543 180.232 215.498 180.184 215.467C180.135 215.435 180.078 215.417 180.02 215.416C179.962 215.417 179.905 215.434 179.856 215.466C179.807 215.498 179.768 215.543 179.744 215.596L179.284 216.564C179.28 216.573 179.274 216.582 179.267 216.588C179.259 216.594 179.25 216.598 179.24 216.6L178.216 216.756C178.158 216.764 178.104 216.789 178.06 216.828C178.016 216.866 177.984 216.916 177.968 216.972C177.951 217.029 177.948 217.089 177.962 217.146C177.975 217.204 178.003 217.257 178.044 217.3L178.788 218.056C178.792 218.065 178.794 218.074 178.794 218.084C178.794 218.094 178.792 218.103 178.788 218.112L178.612 219.176C178.602 219.234 178.608 219.294 178.63 219.349C178.652 219.404 178.689 219.452 178.736 219.488C178.781 219.525 178.836 219.547 178.894 219.551C178.952 219.555 179.01 219.542 179.06 219.512L180 219C180.008 218.994 180.018 218.991 180.028 218.991C180.038 218.991 180.048 218.994 180.056 219L180.972 219.5C181.015 219.527 181.065 219.541 181.116 219.54C181.182 219.541 181.245 219.518 181.296 219.476C181.343 219.44 181.38 219.392 181.401 219.337C181.423 219.282 181.43 219.222 181.42 219.164L181.244 218.1C181.236 218.081 181.236 218.059 181.244 218.04L182 217.296Z" fill="#FFD400"/>
<path fill-rule="evenodd" clip-rule="evenodd" d="M187.048 217.296C187.091 217.254 187.121 217.201 187.135 217.144C187.149 217.086 187.147 217.025 187.128 216.968C187.112 216.912 187.08 216.862 187.036 216.824C186.992 216.785 186.938 216.761 186.88 216.752L185.856 216.596C185.846 216.595 185.837 216.59 185.829 216.584C185.821 216.578 185.816 216.569 185.812 216.56L185.356 215.592C185.331 215.539 185.291 215.494 185.242 215.462C185.192 215.43 185.135 215.413 185.076 215.412C185.018 215.413 184.961 215.43 184.912 215.462C184.863 215.494 184.824 215.539 184.8 215.592L184.34 216.56C184.337 216.57 184.331 216.578 184.323 216.585C184.316 216.591 184.306 216.595 184.296 216.596L183.276 216.752C183.218 216.76 183.163 216.784 183.118 216.823C183.073 216.861 183.041 216.912 183.024 216.968C183.006 217.025 183.005 217.085 183.019 217.143C183.033 217.201 183.062 217.254 183.104 217.296L183.844 218.052C183.848 218.061 183.85 218.07 183.85 218.08C183.85 218.09 183.848 218.099 183.844 218.108L183.668 219.172C183.658 219.23 183.665 219.29 183.686 219.345C183.708 219.4 183.745 219.448 183.792 219.484C183.837 219.521 183.892 219.543 183.95 219.547C184.008 219.551 184.066 219.538 184.116 219.508L185.032 219.008C185.04 219.002 185.05 218.999 185.06 218.999C185.07 218.999 185.08 219.002 185.088 219.008L186.004 219.508C186.048 219.534 186.097 219.548 186.148 219.548C186.214 219.549 186.278 219.526 186.328 219.484C186.375 219.448 186.412 219.4 186.434 219.345C186.455 219.29 186.462 219.23 186.452 219.172L186.276 218.108C186.269 218.089 186.269 218.067 186.276 218.048L187.048 217.296Z" fill="#FFD400"/>
<path d="M150 213.488C151.328 213.488 152.4 212.288 152.4 210.832C152.4 209.376 151.324 208.172 150 208.172C148.676 208.172 147.6 209.372 147.6 210.832C147.6 212.292 148.656 213.488 150 213.488Z" fill="#CCCCCC"/>
<path d="M152.744 213.14C152.677 213.125 152.607 213.131 152.543 213.158C152.48 213.186 152.427 213.233 152.392 213.292C152.157 213.724 151.81 214.084 151.388 214.335C150.966 214.586 150.483 214.719 149.992 214.719C149.501 214.719 149.018 214.586 148.596 214.335C148.174 214.084 147.827 213.724 147.592 213.292C147.557 213.233 147.504 213.186 147.441 213.158C147.378 213.131 147.307 213.125 147.24 213.14C145.752 213.46 145.136 215.312 145.02 217.208C145.006 217.435 145.039 217.662 145.117 217.876C145.194 218.089 145.315 218.285 145.471 218.45C145.627 218.615 145.815 218.747 146.023 218.837C146.232 218.926 146.457 218.972 146.684 218.972H153.304C153.531 218.972 153.756 218.925 153.964 218.835C154.173 218.745 154.36 218.614 154.516 218.449C154.672 218.283 154.792 218.088 154.87 217.875C154.948 217.662 154.981 217.435 154.968 217.208C154.848 215.308 154.232 213.456 152.744 213.14Z" fill="#CCCCCC"/>
</svg>
